<svg id="Слой_1" data-name="Слой 1" xmlns="http://www.w3.org/2000/svg" xmlns:xlink="http://www.w3.org/1999/xlink" width="272" height="437" viewBox="0 0 272 437"><defs><style>.cls-1{fill:#4e362b;}.cls-2{fill:url(#Безымянный_градиент);}.cls-3{fill:#ff861f;}.cls-4{fill:#e39f85;}.cls-5{fill:#db8f77;}.cls-6{fill:url(#Безымянный_градиент_2);}.cls-7{fill:url(#Безымянный_градиент_3);}.cls-8{fill:#d68a74;}.cls-9{fill:url(#Безымянный_градиент_4);}.cls-10{fill:url(#Безымянный_градиент_5);}.cls-11{fill:#333;}.cls-12{fill:#5d402d;}.cls-13{fill:#5e412f;}.cls-14{fill:#646567;}.cls-15{fill:#2c3340;}.cls-16{fill:#fff;opacity:0.5;isolation:isolate;}.cls-17{fill:#e28273;}.cls-18{fill:#df6f61;}.cls-19{fill:#ebb495;}.cls-20{fill:#e9a88f;}</style><linearGradient id="Безымянный_градиент" x1="-9.81" y1="172.7" x2="226.96" y2="106.32" gradientTransform="matrix(1, 0, 0, -1, 0, 446)" gradientUnits="userSpaceOnUse"><stop offset="0" stop-color="#ff8218"/><stop offset="1" stop-color="#fe7952"/></linearGradient><linearGradient id="Безымянный_градиент_2" x1="64.56" y1="90.44" x2="192.04" y2="33.57" xlink:href="#Безымянный_градиент"/><linearGradient id="Безымянный_градиент_3" x1="216.16" y1="203.53" x2="263.92" y2="196.11" xlink:href="#Безымянный_градиент"/><radialGradient id="Безымянный_градиент_4" cx="-156.21" cy="609.52" r="1" gradientTransform="matrix(18.78, 0, 0, -18.24, 3114.19, 11234.56)" gradientUnits="userSpaceOnUse"><stop offset="0" stop-color="#e17a68"/><stop offset="1" stop-color="#e39f85"/></radialGradient><radialGradient id="Безымянный_градиент_5" cx="-155.18" cy="608.4" r="1" gradientTransform="matrix(16.8, 0, 0, -16.31, 2725.37, 10041.74)" xlink:href="#Безымянный_градиент_4"/></defs><title>person2</title><path class="cls-1" d="M275.76,337.65l.24-.07Z" transform="translate(-4 0)"/><path class="cls-2" d="M237.79,202.18C229,194.62,198.1,192,197.71,191.86c-.75-.2-52.29,29.53-82.22-.83-9,0-33.13,4.06-48.87,15.21C43.05,222.93,15.4,228.72,6.89,269.09c-2.61,33.78,16.36,46.16,31.69,39.43,24.5-10.78,31.51-25.8,31.51-25.8S75.21,368.41,65.55,437H224.34c-5.87-60.77-1.63-149.86-1.63-149.86s49.19,0,49.19,0C273,248.7,260.33,220.93,237.79,202.18Z" transform="translate(-4 0)"/><path class="cls-3" d="M4.2,270.55C1.58,304.33,25.7,314.13,41,307.4c24.51-10.77,29.08-24.68,29.08-24.68-12.09-56-3.47-76.48-3.47-76.48C43.05,222.93,12.71,230.18,4.2,270.55Z" transform="translate(-4 0)"/><path class="cls-3" d="M203.45,193.31l1.1-.62c-4-.53-6.73-.79-6.85-.83-.74-.2-52.28,29.53-82.21-.83a51.1,51.1,0,0,0-6.43.46C109.16,191.65,134.37,231.79,203.45,193.31Z" transform="translate(-4 0)"/><path class="cls-4" d="M222.72,287.14s1.21,5.75,8.93,58.12c8.29,50.42-1.73,59.11,0,91.74h36.23s12.38-88.6,4-149.86Z" transform="translate(-4 0)"/><path class="cls-5" d="M222.72,287.14H271.9s2.61,23.55,2.61,32.28c0,0-5.71-32-50.55-24.89Z" transform="translate(-4 0)"/><path class="cls-6" d="M221.28,344.47C183.81,442.31,67.7,429.9,67.7,429.9l-1.37,1.27q-.36,2.94-.78,5.83h158.8C221.58,408.35,221.06,373.41,221.28,344.47Z" transform="translate(-4 0)"/><path class="cls-7" d="M221.16,277l1.56,10.19s49.19,0,49.19,0c1.07-38.44-11.58-66.21-34.12-85C291.41,279.53,221.16,277,221.16,277Z" transform="translate(-4 0)"/><path class="cls-4" d="M224.41,95.36a8.14,8.14,0,0,0-4.86.42c0-.08,0-.17,0-.26-1.16-11.66-19.82-57-19.82-57H103l-9.11,42.9A33.4,33.4,0,0,1,98.66,98c.17,9.69-.07,15.28-4.71,24.81s-12.22,20.26-7.24,29.44c2.77,17,42.57,34.48,77.94,23,26.94-8.74,41.88-32.22,49.17-51.82A7.57,7.57,0,0,0,217,125c5.71,1.36,12-4.18,14.07-12.37S230.12,96.72,224.41,95.36Z" transform="translate(-4 0)"/><path class="cls-5" d="M197.57,45.74c-29.23-6.81-53.83,10.33-71.18,9.72-16.39-.58-15.13,2-19.06,3.54-7.14,3.79-10.54,10.93-12.13,16.14l-1.34,6.3S99.05,55.29,179,54c21.67-.1,25.18,33.68,29.1,38.93C208.55,77,197.57,45.74,197.57,45.74Z" transform="translate(-4 0)"/><path class="cls-8" d="M208.09,92.91a.91.91,0,0,0,.38.26Z" transform="translate(-4 0)"/><path class="cls-9" d="M180.44,135.24c10.37,0,18.78-8.17,18.78-18.24s-8.41-18.24-18.78-18.24-18.78,8.16-18.78,18.24S170.07,135.24,180.44,135.24Z" transform="translate(-4 0)"/><path class="cls-10" d="M118.75,132.44A16.32,16.32,0,1,0,102,116.13,16.56,16.56,0,0,0,118.75,132.44Z" transform="translate(-4 0)"/><path class="cls-11" d="M203.12,22.85c-15.81-19.79-45-36.16-95.79-7.06-2.45,0-24.22,17.41-13.47,65.65,0,0,1.39-16,13.47-22.44,3.93-1.53,2.67-4.12,19.06-3.55,17.35.61,42-16.52,71.18-9.71,0,0,11,31.23,10.52,47.17,7.09,5,11.38,2,11.38,2S239.16,44.94,203.12,22.85Z" transform="translate(-4 0)"/><path class="cls-11" d="M136.91,77.76l-4.08-6.58s-12,8.61-22.63,9.31l.55,4.26S122.93,89.66,136.91,77.76Z" transform="translate(-4 0)"/><path class="cls-11" d="M166.09,77.82l5.82-8.21a30.88,30.88,0,0,0,20,6.45l.64,3.55S182.11,88.49,166.09,77.82Z" transform="translate(-4 0)"/><path class="cls-5" d="M220.19,108.78c4.68,0,.61-7.79,4.71-6.2s4.74,3.51,4.74,3.51-.33-7.18-4.77-7.18C218.29,98.91,218.37,108.8,220.19,108.78Z" transform="translate(-4 0)"/><path class="cls-5" d="M217,125c5.71,1.36,12-4.18,14.07-12.37a21.6,21.6,0,0,0,.6-3.89c-7.69,16.26-16,9.66-16,9.66-.93,2.83-1.8,4.89-1.84,5A7.51,7.51,0,0,0,217,125Z" transform="translate(-4 0)"/><path class="cls-11" d="M218.48,90.2l-10.39,2.71c3.27,27.32-19.93,44.59-33.85,40.35-34-19.74-63.44-1.46-70,.13s-6-23-6-23A65.31,65.31,0,0,1,94,122.82c-4.64,9.54-12.22,20.26-7.24,29.44,2.77,17,42.57,34.48,77.94,23,26.93-8.74,41.88-32.22,49.17-51.82,4.27-10,5.38-21.93,5.65-28.51A45.53,45.53,0,0,0,218.48,90.2Zm-78.74,60.29c-9-.06-11.94,4.55-15.16,4.92-1.77.2-7-1.75-6.55-5.73.91-8.34,11.54-13.36,22.38-13.22,12.67.16,21.5,6.56,23.06,11.32s-3.24,7.88-6.08,7.63C152.67,155,147.4,150.2,139.74,150.49Z" transform="translate(-4 0)"/><path class="cls-11" d="M138.61,170.36c-40.89,4.2-52.6-23.74-53.48-26a13.87,13.87,0,0,0,1.58,7.9c2.77,17,42.56,34.48,77.94,23,26.93-8.74,41.87-32.22,49.16-51.82,4.28-10,5.38-21.93,5.66-28.51C198.79,147.88,181.2,166,138.61,170.36Z" transform="translate(-4 0)"/><path class="cls-11" d="M203.11,22.85s-13.57,8.09-5.54,22.89c0,0,11,31.23,10.52,47.17,7.09,5,11.38,2,11.38,2S239.16,44.94,203.11,22.85Z" transform="translate(-4 0)"/><path class="cls-12" d="M199.22,50.69s12.27,4.19,22.15-3.37c.41.3-6,8.69-20.87,7.44C200.45,54.63,199.22,50.69,199.22,50.69Z" transform="translate(-4 0)"/><path class="cls-11" d="M105.54,16.69C99.82,20.78,84.49,39.4,93.86,81.44c0,0,1.39-16,13.47-22.44,3.93-1.53,2.67-4.12,19.06-3.54C84.27,45.1,107.33,15.79,107.33,15.79Z" transform="translate(-4 0)"/><path class="cls-11" d="M121.39,106.22a10.55,10.55,0,0,1-10.7-10.38c1.13,0,3.18,7.12,10.7,7.42s9.06-7.3,10.7-7.42A10.55,10.55,0,0,1,121.39,106.22Z" transform="translate(-4 0)"/><path class="cls-13" d="M194.66,14q-2.13-1.86-4.48-3.56c-55.15,25.75-81.41,4.76-81.53,4.66C127.91,45.73,177.13,23.3,194.66,14Z" transform="translate(-4 0)"/><path class="cls-11" d="M180.73,105.76a10.54,10.54,0,0,0,10.69-10.39c-1.13,0-3.17,7.13-10.69,7.43s-9.06-7.3-10.7-7.43A10.55,10.55,0,0,0,180.73,105.76Z" transform="translate(-4 0)"/><path class="cls-14" d="M212.51,82.58s7,1.75,7,7.35v5.59l-8.4-2.81Z" transform="translate(-4 0)"/><path class="cls-15" d="M158.18,82.58c-3.67.71-6.51,1.17-8.78,1.43-2.27-.26-5.12-.72-8.78-1.43-19.21-3.73-54.34,0-54.34,0s.28,9.86,1.37,10.13,3.57.53,5.22,8c4.11,7.47,2.74,15.73,25.24,16.44s23.6-9.24,26.9-19.64c1.65-2.19,3.12-3.07,4.39-3.19,1.26.12,2.73,1,4.39,3.19,3.29,10.4,4.39,20.36,26.89,19.64s21.13-9,25.24-16.44c1.65-7.46,4.12-7.73,5.22-8s1.37-10.13,1.37-10.13S177.38,78.85,158.18,82.58Zm-19.25,24c-4.94,9.6-20,7.47-31,6.4S96.4,97.28,97,89.81s19.76-5.32,31.83-5.59S142.22,93,142.22,93,143.87,97,138.93,106.6Zm52.81,6.4c-11,1.07-26.07,3.2-31-6.4S157.44,93,157.44,93s1.37-9.09,13.44-8.82,31.29-1.87,31.83,5.59S202.71,111.93,191.74,113Z" transform="translate(-4 0)"/><path class="cls-16" d="M120.35,84.19l-8.67,29.2-3.82-.38c-11-1.07-11.52-15.73-11-23.19.32-4.3,6.83-5.41,14.6-5.64h8.87Zm3.07,0-9,29.41,2.72.2,8.94-29.59Zm59.66-.09-9,29.62,2.72.2,8.94-29.8Zm-12.33.05C158.68,83.91,157.3,93,157.3,93s-1.64,4,3.3,13.57c2.11,4.11,6.09,6.06,10.8,6.87l8.51-29.31C176.69,84.18,173.53,84.24,170.75,84.18Z" transform="translate(-4 0)"/><path class="cls-4" d="M197.63,192.12c-18.31-5.82-14.32-22.49-12.3-27.88a67.38,67.38,0,0,1-20.68,11,80.94,80.94,0,0,1-39.27,2.28c.54,3.28-3,10.93-10.23,13.75C145.18,221.74,196.88,191.91,197.63,192.12Z" transform="translate(-4 0)"/><path class="cls-17" d="M121.64,150.9c3.65,4.85,9-3.91,17.8-3.37s16.68,8.59,21.38,3.81S149.4,139.05,140,139.6,117.39,145.25,121.64,150.9Z" transform="translate(-4 0)"/><path class="cls-18" d="M140.92,143.5a37.93,37.93,0,0,0-17.55,4.67c-2.28,1.11-1.72,2.73-1.72,2.73,3.64,4.85,8.95-3.91,17.79-3.37s16.68,8.59,21.38,3.81C162.79,148.34,149.79,143.5,140.92,143.5Z" transform="translate(-4 0)"/><path class="cls-5" d="M197.63,192.12c-18.31-5.82-14.32-22.49-12.3-27.88a67.38,67.38,0,0,1-20.68,11,80.94,80.94,0,0,1-39.27,2.28,9.07,9.07,0,0,1-1,4.72s3.57-2.8,20.81-1.65,33.11-3.12,36,4.92-34.14,25.31-66.06,5.76C145.18,221.74,196.88,191.91,197.63,192.12Z" transform="translate(-4 0)"/><path class="cls-11" d="M130.21,125.08c1.76,2.9,7.5,8.88,22.26,0A65.17,65.17,0,0,0,130.21,125.08Z" transform="translate(-4 0)"/><path class="cls-17" d="M150.62,94.65s-3.82-1.88-6.34,5.23-4.3,12.56-9.19,14.42-5,14.19,8.71,11.81S160.29,116.49,157,107,154.08,96.7,150.62,94.65Z" transform="translate(-4 0)"/><path class="cls-19" d="M133.57,120.29c.61.89,2.32.8,3.82-.18s2.22-2.49,1.61-3.37-2.32-.8-3.82.18S133,119.41,133.57,120.29Z" transform="translate(-4 0)"/><path class="cls-4" d="M10.31,267.5c-.3-8.33,6.52-19.92,16.54-29.49S77.62,202.43,96.7,158c3.1-8.8-4.89-23.15-4.17-28.7s1.9-26.06,7.78-37.64c6.68-10.35,18.76-22.39,21.78-22.08s5.41,2.16,4,6.64c0,0,7.23-5.49,8.51-6.41s8.42-2.4,6.83,5.48c0,0,8.67.54,4.38,9.65,0,0,4.88,1.74,2.14,7.76S131,121.38,131,125.31s2.38,26.41-9.66,42.74c-3.34,5.33-32.93,81.59-41.69,95.89C70.17,279.4,63.26,288,55.87,294.07s-26,16.91-41.26,3C9.76,289.82,11,284.88,10.31,267.5Z" transform="translate(-4 0)"/><path class="cls-5" d="M145.79,84.89c4.29-9.11-4.38-9.65-4.38-9.65,1.59-7.88-5.56-6.41-6.83-5.48s-8.51,6.41-8.51,6.41c1.43-4.48-.95-6.33-4-6.64S107,81.27,100.31,91.61c11-12.44,17.63-19.64,20.91-20.25s5.26,2.54,3,4.87c-16.55,20.24-21.47,29.56-20.34,30.18,8.09-16.44,27-33.8,30.65-35,5.24-1.41,6.18,2.12,4.72,3.76-16.8,18.94-27.56,34.45-26.61,35S133,80.61,140.25,77.45c2.4-1,6.25,2.15,3.87,6.58-2,3.77-20.88,31.08-19.87,31.08s20.16-27.72,20.16-27.72,2.4-.25,1.14,4.66-19.28,27.48-18.69,42.69c-3.29,33.86-29.79,14-29.79,14l-.07,0a18.74,18.74,0,0,1-.31,9.18c-.77,1.79-1.57,3.54-2.4,5.27C136.14,165.68,64.14,281,35.91,291.28c-24,8.74-22.37-26.87-21.32-37.85-2.84,5.07-4.43,10-4.28,14.08.64,17.37-.56,22.31,4.29,29.57,15.27,13.9,33.87,3,41.26-3s14.31-14.67,23.78-30.13c8.76-14.3,38.35-90.56,41.69-95.89,12-16.33,9.66-38.8,9.66-42.73s14.19-26.64,16.94-32.67S145.79,84.89,145.79,84.89Z" transform="translate(-4 0)"/><path class="cls-20" d="M93.71,183.75c3.56,1.61-52.3,99.33-64.36,92.55S90.15,182.15,93.71,183.75Z" transform="translate(-4 0)"/></svg>