<svg width="280" height="445" viewBox="0 0 280 445" fill="none" xmlns="http://www.w3.org/2000/svg">
<g filter="url(#filter0_d)">
<path d="M275.76 337.654C275.838 337.629 275.919 337.604 275.997 337.58C275.919 337.602 275.841 337.627 275.76 337.654Z" fill="#4E362B"/>
<path d="M237.793 202.178C228.984 194.618 198.098 192.02 197.706 191.858C196.958 191.657 145.423 221.387 115.492 191.031C106.458 191.031 82.3632 195.092 66.6247 206.238C43.0499 222.935 15.4027 228.72 6.89183 269.091C4.27717 302.869 23.2543 315.247 38.5759 308.515C63.0804 297.744 70.0933 282.723 70.0933 282.723C70.0933 282.723 75.2064 368.408 65.5485 437H224.343C218.472 376.225 222.713 287.135 222.713 287.137C222.713 287.137 271.902 287.157 271.902 287.137C272.98 248.702 260.329 220.925 237.793 202.178Z" fill="url(#paint0_linear)"/>
<path d="M4.19813 270.549C1.58347 304.327 25.7015 314.133 41.0231 307.398C65.5276 296.627 70.0976 282.723 70.0976 282.723C58.007 226.743 66.6265 206.238 66.6265 206.238C43.0517 222.935 12.709 230.178 4.19813 270.549Z" fill="#FF861F"/>
<path d="M203.451 193.306C203.825 193.097 204.189 192.891 204.552 192.687C200.541 192.16 197.82 191.905 197.704 191.858C196.956 191.657 145.421 221.387 115.49 191.031C114.158 191.031 110.788 191.191 109.061 191.485C109.157 191.645 134.371 231.795 203.451 193.306Z" fill="#FF861F"/>
<path d="M222.717 287.137C222.717 287.137 223.932 292.886 231.645 345.257C239.938 395.682 229.922 404.368 231.645 437H267.881C267.881 437 280.262 348.397 271.905 287.137H222.717V287.137Z" fill="#E39F85"/>
<path d="M222.717 287.137H271.905C271.905 287.137 274.505 310.691 274.505 319.421C274.505 319.421 268.798 287.402 223.965 294.534L222.717 287.137Z" fill="#DB8F77"/>
<path d="M221.283 344.472C183.813 442.312 67.7 429.902 67.7 429.902C67.7 429.902 67.2024 430.363 66.3333 431.17C66.0858 433.126 65.8256 435.069 65.5527 437H224.347C221.581 408.35 221.06 373.409 221.283 344.472Z" fill="url(#paint1_linear)"/>
<path d="M221.16 276.95L222.719 287.139C222.719 287.139 271.907 287.159 271.907 287.139C272.983 248.704 260.332 220.928 237.795 202.18C291.407 279.526 221.16 276.95 221.16 276.95Z" fill="url(#paint2_linear)"/>
<path d="M224.41 95.3647C222.804 94.982 221.149 95.1635 219.555 95.7818C219.547 95.696 219.542 95.6052 219.535 95.5242C218.378 83.8625 199.722 38.5429 199.722 38.5429H102.967L93.862 81.4384C93.862 81.4384 98.4851 88.3255 98.6594 98.0121C98.8337 107.699 98.5886 113.285 93.9505 122.822C89.3123 132.364 81.731 143.084 86.7077 152.263C89.4841 169.217 129.277 186.738 164.655 175.252C191.585 166.51 206.527 143.03 213.815 123.428C214.735 124.189 215.778 124.746 216.948 125.023C222.657 126.38 228.958 120.84 231.019 112.648C233.078 104.458 230.12 96.7191 224.41 95.3647Z" fill="#E39F85"/>
<path d="M197.571 45.7441C168.335 38.933 143.742 56.0662 126.392 55.4552C110.004 54.8786 111.262 57.4671 107.334 59.0031C100.195 62.7913 96.7892 69.9312 95.1977 75.1425L93.8613 81.4384C93.8613 81.4384 99.0527 55.2908 178.988 53.9831C200.663 53.8825 204.169 87.6557 208.085 92.9063C208.55 76.968 197.571 45.7441 197.571 45.7441Z" fill="#DB8F77"/>
<path d="M208.086 92.9087C208.172 93.024 208.308 93.1025 208.467 93.1663C208.339 93.0804 208.215 92.9994 208.086 92.9087Z" fill="#D68A74"/>
<path d="M180.438 135.235C190.81 135.235 199.218 127.069 199.218 116.995C199.218 106.922 190.81 98.7556 180.438 98.7556C170.066 98.7556 161.658 106.922 161.658 116.995C161.658 127.069 170.066 135.235 180.438 135.235Z" fill="url(#paint3_radial)"/>
<path d="M118.746 132.443C128.023 132.443 135.543 125.139 135.543 116.129C135.543 107.119 128.023 99.8155 118.746 99.8155C109.469 99.8155 101.949 107.119 101.949 116.129C101.949 125.139 109.469 132.443 118.746 132.443Z" fill="url(#paint4_radial)"/>
<path d="M203.115 22.8549C187.311 3.06449 158.117 -13.3056 107.335 15.7935C104.882 15.7935 83.1058 33.1966 93.8625 81.4384C93.8625 81.4384 95.2494 65.4142 107.335 59.0006C111.263 57.4671 110.005 54.8762 126.393 55.4528C143.743 56.0637 168.336 38.9305 197.572 45.7416C197.572 45.7416 208.554 76.968 208.086 92.9063C215.178 97.8772 219.467 94.9182 219.467 94.9182C219.467 94.9182 239.162 44.9393 203.115 22.8549Z" fill="#333333"/>
<path d="M136.909 77.7605L132.834 71.1776C132.834 71.1776 120.862 79.7896 110.201 80.4938L110.754 84.7507C110.754 84.7507 122.926 89.6553 136.909 77.7605Z" fill="#333333"/>
<path d="M166.092 77.8194L171.915 69.6098C171.915 69.6098 179.759 76.4552 191.877 76.0626L192.516 79.6105C192.516 79.6129 182.111 88.485 166.092 77.8194Z" fill="#333333"/>
<path d="M220.19 108.783C224.869 108.739 220.804 100.993 224.896 102.583C228.989 104.173 229.638 106.094 229.638 106.094C229.638 106.094 229.312 98.9052 224.869 98.9052C218.295 98.9052 218.366 108.8 220.19 108.783Z" fill="#DB8F77"/>
<path d="M216.946 125.023C222.656 126.38 228.956 120.84 231.018 112.648C231.349 111.332 231.538 110.032 231.619 108.764C223.926 125.021 215.656 118.416 215.656 118.416C214.728 121.25 213.862 123.313 213.816 123.426C214.733 124.189 215.777 124.746 216.946 125.023Z" fill="#DB8F77"/>
<path d="M218.476 90.2025L208.086 92.9087C211.362 120.227 188.161 137.5 174.244 133.26C140.201 113.516 110.8 131.802 104.252 133.392C97.7044 134.982 98.1996 110.417 98.1996 110.417C97.1866 114.502 95.7921 119.029 93.9505 122.82C89.3123 132.362 81.731 143.081 86.7077 152.26C89.4841 169.214 129.277 186.735 164.655 175.25C191.584 166.508 206.527 143.027 213.815 123.426C218.092 113.418 219.196 101.501 219.469 94.9182C219.292 93.6448 218.951 92.0426 218.476 90.2025ZM139.736 150.489C130.732 150.435 127.797 155.038 124.576 155.411C122.81 155.614 117.599 153.664 118.033 149.677C118.94 141.339 129.575 136.317 140.41 136.457C153.082 136.621 161.914 143.023 163.473 147.78C165.077 152.682 160.229 155.656 157.389 155.411C152.668 155.003 147.401 150.199 139.736 150.489Z" fill="#333333"/>
<path d="M138.607 170.363C97.7245 174.561 86.0103 146.617 85.1337 144.36C84.919 147.073 85.3307 149.726 86.705 152.26C89.4813 169.214 129.275 186.735 164.652 175.25C191.582 166.508 206.524 143.027 213.813 123.426C218.09 113.418 219.194 101.501 219.466 94.9182C198.787 147.881 181.204 165.99 138.607 170.363Z" fill="#333333"/>
<path d="M203.114 22.8549C203.114 22.8549 189.543 30.9442 197.571 45.7441C197.571 45.7441 208.553 76.9704 208.085 92.9087C215.176 97.8796 219.466 94.9206 219.466 94.9206C219.466 94.9206 239.161 44.9393 203.114 22.8549Z" fill="#333333"/>
<path d="M199.219 50.6855C199.219 50.6855 211.491 54.8811 221.366 47.3217C221.776 47.6235 215.339 56.0122 200.502 54.7584C200.454 54.6308 199.219 50.6855 199.219 50.6855Z" fill="#5D402D"/>
<path d="M105.538 16.6891C99.8158 20.784 84.4866 39.4016 93.8615 81.4408C93.8615 81.4408 95.2484 65.4166 107.334 59.0031C111.262 57.4696 110.004 54.8786 126.392 55.4552C84.2693 45.0988 107.334 15.7935 107.334 15.7935L105.538 16.6891Z" fill="#333333"/>
<path d="M121.387 106.224C115.481 106.224 110.693 101.572 110.693 95.8358C111.823 95.8088 113.866 102.963 121.389 103.263C128.913 103.562 130.449 95.9634 132.086 95.8358C132.086 101.572 127.296 106.224 121.387 106.224Z" fill="#333333"/>
<path d="M194.662 13.9607C193.243 12.7192 191.75 11.5268 190.183 10.3982C135.033 36.1531 108.773 15.1556 108.646 15.055C127.909 45.7269 177.13 23.2965 194.662 13.9607Z" fill="#5E412F"/>
<path d="M180.728 105.76C186.634 105.76 191.421 101.108 191.421 95.3721C190.292 95.3451 188.249 102.5 180.725 102.799C173.202 103.098 171.666 95.4997 170.029 95.3721C170.032 101.111 174.822 105.76 180.728 105.76Z" fill="#333333"/>
<path d="M212.508 82.5817C212.508 82.5817 219.536 84.3262 219.536 89.9252C219.536 95.5242 219.536 95.5242 219.536 95.5242L211.137 92.7075L212.508 82.5817Z" fill="#646567"/>
<path d="M158.177 82.5817C154.512 83.2932 151.667 83.7496 149.396 84.0146C147.125 83.7496 144.283 83.2932 140.615 82.5817C121.408 78.8498 86.2832 82.5817 86.2832 82.5817C86.2832 82.5817 86.5586 92.4425 87.6549 92.7075C88.7513 92.975 91.222 93.2399 92.8691 100.704C96.9843 108.165 95.6126 116.428 118.114 117.145C140.615 117.864 141.711 107.897 145.006 97.5042C146.663 95.3083 148.133 94.4299 149.396 94.3072C150.659 94.4324 152.13 95.3083 153.787 97.5042C157.078 107.897 158.177 117.861 180.679 117.145C203.18 116.426 201.808 108.165 205.923 100.704C207.57 93.2424 210.039 92.975 211.137 92.7075C212.236 92.4401 212.509 82.5817 212.509 82.5817C212.509 82.5817 177.384 78.8498 158.177 82.5817ZM138.933 106.604C133.994 116.198 118.902 114.066 107.925 113.001C96.949 111.936 96.4008 97.2785 96.949 89.8148C97.4972 82.3535 116.707 84.4857 128.78 84.2182C140.852 83.9508 142.224 93.0412 142.224 93.0412C142.224 93.0412 143.871 97.011 138.933 106.604ZM191.738 113.001C180.762 114.068 165.67 116.198 160.731 106.604C155.793 97.011 157.437 93.0412 157.437 93.0412C157.437 93.0412 158.809 83.9508 170.884 84.2182C182.957 84.4857 202.167 82.3535 202.715 89.8148C203.263 97.276 202.715 111.934 191.738 113.001Z" fill="#2C3340"/>
<path opacity="0.5" d="M120.347 84.1863L111.677 113.386C110.366 113.258 109.085 113.126 107.86 113.006C96.8834 111.941 96.3352 97.2834 96.8834 89.8197C97.1992 85.5211 103.712 84.4096 111.48 84.1839H120.347V84.1863ZM123.422 84.2231L114.421 113.627L117.139 113.828L126.082 84.2428L123.422 84.2231ZM183.084 84.1324L174.083 113.747L176.801 113.948L185.744 84.152L183.084 84.1324ZM170.751 84.1814C158.678 83.914 157.303 93.0044 157.303 93.0044C157.303 93.0044 155.656 96.9718 160.595 106.568C162.71 110.675 166.688 112.628 171.405 113.443L179.913 84.1324C176.69 84.179 173.532 84.2428 170.751 84.1814Z" fill="white"/>
<path d="M197.625 192.116C179.317 186.298 183.306 169.634 185.332 164.236C179.393 168.858 172.54 172.688 164.653 175.25C151.461 179.534 137.655 179.782 125.382 177.529C125.918 180.807 122.336 188.462 115.148 191.284C145.175 221.737 196.875 191.915 197.625 192.116Z" fill="#E39F85"/>
<path d="M121.645 150.901C125.293 155.749 130.598 146.988 139.44 147.532C148.282 148.077 156.116 156.12 160.817 151.338C165.518 146.556 149.401 139.055 139.998 139.597C130.598 140.14 117.391 145.248 121.645 150.901Z" fill="#E28273"/>
<path d="M140.921 143.496C132.051 143.496 125.652 147.066 123.371 148.173C121.09 149.279 121.646 150.901 121.646 150.901C125.293 155.749 130.599 146.987 139.44 147.532C148.282 148.077 156.116 156.12 160.817 151.338C162.785 148.344 149.79 143.496 140.921 143.496Z" fill="#DF6F61"/>
<path d="M197.625 192.116C179.317 186.298 183.306 169.634 185.332 164.236C179.393 168.858 172.54 172.688 164.653 175.25C151.461 179.534 137.655 179.782 125.382 177.529C125.572 178.69 125.243 180.4 124.422 182.25C124.422 182.25 127.994 179.45 145.226 180.599C162.46 181.747 178.34 177.48 181.212 185.521C184.084 193.561 147.075 210.831 115.148 191.284C145.175 221.737 196.875 191.915 197.625 192.116Z" fill="#DB8F77"/>
<path d="M130.215 125.085C131.973 127.98 137.713 133.957 152.471 125.134C144.354 123.676 136.826 123.983 130.215 125.085Z" fill="#333333"/>
<path d="M150.62 94.6532C150.62 94.6532 146.803 92.7664 144.28 99.8768C141.756 106.987 139.977 112.437 135.089 114.296C130.198 116.156 130.087 128.49 143.797 126.105C157.51 123.72 160.293 116.487 157.04 106.997C153.786 97.5042 154.081 96.6995 150.62 94.6532Z" fill="#E28273"/>
<path d="M133.572 120.295C134.183 121.176 135.893 121.093 137.394 120.111C138.892 119.13 139.612 117.621 139.003 116.74C138.392 115.859 136.682 115.943 135.181 116.924C133.683 117.906 132.963 119.414 133.572 120.295Z" fill="#EBB495"/>
<path d="M10.3126 267.504C10.0069 259.169 16.8328 247.583 26.8494 238.007C36.8659 228.433 77.6166 202.426 96.6973 157.95C99.797 149.147 91.8141 134.803 92.529 129.246C93.2439 123.686 94.4262 103.192 100.31 91.6108C106.989 81.2641 119.072 69.2196 122.094 69.5263C125.115 69.8355 127.5 71.6879 126.07 76.1657C126.07 76.1657 133.305 70.6844 134.576 69.757C135.849 68.8295 143.003 67.3623 141.412 75.2382C141.412 75.2382 150.077 75.778 145.785 84.8905C145.785 84.8905 150.673 86.6276 147.932 92.6511C145.188 98.6746 130.999 121.375 130.999 125.313C130.999 129.251 133.383 151.72 121.338 168.051C117.999 173.378 88.4112 249.637 79.6452 263.939C70.1718 279.396 63.2625 288.042 55.8682 294.066C48.4739 300.089 29.8707 310.976 14.6072 297.076C9.75683 289.819 10.9492 284.877 10.3126 267.504Z" fill="#E39F85"/>
<path d="M145.785 84.893C150.077 75.7805 141.412 75.2407 141.412 75.2407C143.001 67.3648 135.847 68.832 134.576 69.7594C133.303 70.6869 126.071 76.1681 126.071 76.1681C127.5 71.6904 125.116 69.8355 122.094 69.5288C119.073 69.2197 106.99 81.2666 100.31 91.6132C111.325 79.1713 117.936 71.975 121.22 71.3616C124.504 70.7482 126.482 73.8961 124.209 76.227C107.662 96.4688 102.736 105.792 103.872 106.406C111.956 89.9669 130.923 72.608 134.523 71.4426C139.765 70.0318 140.7 73.5575 139.24 75.2039C122.44 94.1355 111.681 109.654 112.628 110.206C113.576 110.758 132.975 80.6115 140.248 77.4513C142.648 76.4086 146.5 79.5982 144.12 84.0342C142.099 87.8029 123.236 115.113 124.247 115.113C125.257 115.113 144.414 87.3882 144.414 87.3882C144.414 87.3882 146.813 87.1429 145.55 92.05C144.287 96.9571 126.268 119.53 126.856 134.742C123.572 168.601 97.0718 148.752 97.0718 148.752C97.0718 148.752 97.0466 148.759 96.9986 148.771C97.5518 152.076 97.6377 155.271 96.6929 157.952C95.9249 159.741 95.1216 161.495 94.2879 163.223C136.138 165.676 64.1449 280.998 35.9116 291.279C11.8972 300.025 13.5418 264.407 14.5902 253.435C11.7456 258.497 10.1592 263.396 10.3107 267.506C10.9473 284.88 9.75496 289.821 14.6028 297.079C29.8663 310.978 48.4696 300.089 55.8638 294.068C63.2581 288.045 70.1674 279.398 79.6408 263.941C88.4043 249.639 117.994 173.383 121.334 168.054C133.379 151.723 130.994 129.253 130.994 125.315C130.994 121.377 145.184 98.677 147.928 92.6536C150.674 86.6301 145.785 84.893 145.785 84.893Z" fill="#DB8F77"/>
<path d="M93.7089 183.752C97.2735 185.356 41.4133 283.084 29.3455 276.295C17.2776 269.508 90.1469 182.147 93.7089 183.752Z" fill="#E9A88F"/>
</g>
<defs>
<filter id="filter0_d" x="0" y="0" width="280" height="445" filterUnits="userSpaceOnUse" color-interpolation-filters="sRGB">
<feFlood flood-opacity="0" result="BackgroundImageFix"/>
<feColorMatrix in="SourceAlpha" type="matrix" values="0 0 0 0 0 0 0 0 0 0 0 0 0 0 0 0 0 0 127 0"/>
<feOffset dy="4"/>
<feGaussianBlur stdDeviation="2"/>
<feColorMatrix type="matrix" values="0 0 0 0 0 0 0 0 0 0 0 0 0 0 0 0 0 0 0.25 0"/>
<feBlend mode="normal" in2="BackgroundImageFix" result="effect1_dropShadow"/>
<feBlend mode="normal" in="SourceGraphic" in2="effect1_dropShadow" result="shape"/>
</filter>
<linearGradient id="paint0_linear" x1="-21.406" y1="314.673" x2="215.365" y2="381.05" gradientUnits="userSpaceOnUse">
<stop stop-color="#FF8218"/>
<stop offset="1" stop-color="#FE7952"/>
</linearGradient>
<linearGradient id="paint1_linear" x1="48.7619" y1="390.983" x2="176.246" y2="447.845" gradientUnits="userSpaceOnUse">
<stop stop-color="#FF8218"/>
<stop offset="1" stop-color="#FE7952"/>
</linearGradient>
<linearGradient id="paint2_linear" x1="215.787" y1="244.891" x2="263.541" y2="252.313" gradientUnits="userSpaceOnUse">
<stop stop-color="#FF8218"/>
<stop offset="1" stop-color="#FE7952"/>
</linearGradient>
<radialGradient id="paint3_radial" cx="0" cy="0" r="1" gradientUnits="userSpaceOnUse" gradientTransform="translate(180.439 116.996) scale(18.7803 18.24)">
<stop stop-color="#E17A68"/>
<stop offset="1" stop-color="#E39F85"/>
</radialGradient>
<radialGradient id="paint4_radial" cx="0" cy="0" r="1" gradientUnits="userSpaceOnUse" gradientTransform="translate(118.746 116.13) scale(16.7977 16.3144)">
<stop stop-color="#E17A68"/>
<stop offset="1" stop-color="#E39F85"/>
</radialGradient>
</defs>
</svg>
