<svg width="115" height="140" viewBox="0 0 115 140" fill="none" xmlns="http://www.w3.org/2000/svg">
<g clip-path="url(#clip0)">
<path d="M62.3438 111.292C62.3438 111.292 78.2254 76.237 112.819 71.9622C112.819 71.9622 107.478 82.189 96.0874 91.602C84.6964 101.015 62.3438 111.292 62.3438 111.292Z" fill="#AFAD04"/>
<path d="M64.1875 109.614C67.8535 106.207 71.6081 102.903 75.4026 99.6431C76.3498 98.8269 77.2993 98.0132 78.2574 97.2092L81.1278 94.7947C83.0488 93.1939 84.9855 91.6101 86.9258 90.0311C88.8758 88.4643 90.8319 86.9048 92.805 85.3659C94.7866 83.8378 96.7681 82.3086 98.7897 80.8327C100.805 79.3484 102.849 77.8992 104.935 76.5107C105.982 75.8243 107.037 75.1464 108.12 74.5145C108.661 74.198 109.211 73.8936 109.768 73.6074C110.327 73.3249 110.899 73.0593 111.493 72.8628C110.917 73.1054 110.372 73.4134 109.839 73.7372C109.305 74.0586 108.779 74.3945 108.263 74.745C107.229 75.441 106.212 76.1626 105.207 76.9048C104.201 77.6409 103.203 78.3916 102.212 79.1507C101.222 79.9111 100.23 80.669 99.2481 81.4391L96.3049 83.7554C95.325 84.5303 94.3488 85.3089 93.375 86.0911C91.4225 87.6494 89.4737 89.2126 87.5358 90.7891C85.587 92.3523 83.6503 93.9312 81.7099 95.5065L75.8853 100.226C72.0046 103.372 68.1155 106.514 64.1875 109.614Z" fill="white"/>
<path d="M71.2813 103.584C71.2813 103.584 68.5345 65.1978 96.9082 44.9504C96.9082 44.9504 97.0865 56.4857 91.5602 70.1917C86.0339 83.8965 71.2813 103.584 71.2813 103.584Z" fill="#AFAD04"/>
<path d="M72.1035 101.229C73.7031 96.4869 75.4275 91.7913 77.2102 87.1175C77.6541 85.9485 78.1004 84.7806 78.5588 83.6164L79.9316 80.125C80.8568 77.8015 81.8052 75.4864 82.7572 73.1738C83.7249 70.8672 84.7011 68.5631 85.7028 66.2698C86.7167 63.9827 87.7305 61.6943 88.8037 59.4326C89.8685 57.1672 90.9733 54.9189 92.146 52.7045C92.739 51.6009 93.3441 50.5022 93.9953 49.4314C94.3204 48.8953 94.6575 48.3654 95.0116 47.8488C95.3681 47.3334 95.7441 46.8277 96.1734 46.3717C95.7829 46.8604 95.4506 47.3892 95.1365 47.9276C94.82 48.4648 94.518 49.0106 94.2318 49.5648C93.6546 50.6695 93.104 51.7901 92.5753 52.9203C92.0405 54.0482 91.5214 55.1832 91.0133 56.3232C90.5052 57.4631 89.9946 58.6019 89.4986 59.7479L88.0155 63.1871C87.5243 64.3344 87.0368 65.4852 86.5529 66.6361C85.5791 68.9366 84.6114 71.2395 83.6594 73.5485C82.6905 75.8515 81.7409 78.1629 80.7865 80.4719L77.916 87.3977C75.9999 92.0157 74.079 96.6312 72.1035 101.229Z" fill="white"/>
<path d="M53.1172 117.414C53.1172 117.414 81.5201 91.4467 115.002 101.139C115.002 101.139 106.065 108.436 91.8875 112.604C77.7097 116.772 53.1172 117.414 53.1172 117.414Z" fill="#AFAD04"/>
<path d="M55.4766 116.598C60.1879 114.911 64.9405 113.35 69.7113 111.849C70.9034 111.472 72.0967 111.097 73.2937 110.736L76.8833 109.647C79.2796 108.931 81.6832 108.239 84.088 107.551C86.4977 106.879 88.9097 106.216 91.3291 105.578C93.7521 104.955 96.1763 104.329 98.6163 103.767C101.054 103.196 103.502 102.669 105.967 102.215C107.2 101.996 108.437 101.789 109.681 101.634C110.303 101.555 110.928 101.492 111.553 101.449C112.179 101.409 112.809 101.39 113.432 101.443C112.806 101.439 112.185 101.507 111.568 101.594C110.951 101.679 110.336 101.781 109.723 101.9C108.499 102.133 107.279 102.396 106.064 102.682C104.847 102.962 103.636 103.259 102.425 103.567C101.216 103.876 100.006 104.182 98.7994 104.503L95.1819 105.474C93.9764 105.8 92.7722 106.131 91.5692 106.467C89.1608 107.13 86.7548 107.8 84.3524 108.486C81.9452 109.155 79.544 109.844 77.1404 110.528L69.9272 112.574C65.12 113.938 60.308 115.295 55.4766 116.598Z" fill="white"/>
<path d="M71.3707 19.624H12.4913C10.1422 19.624 8.23828 21.494 8.23828 23.8018V134.356C8.23828 136.664 10.1422 138.534 12.4913 138.534H71.3707C73.7197 138.534 75.6237 136.664 75.6237 134.356V23.8018C75.6237 21.494 73.7197 19.624 71.3707 19.624Z" fill="url(#paint0_linear)"/>
<path d="M71.5273 66.8738C71.5273 66.8723 71.5273 66.8723 71.5273 66.8738" stroke="white" stroke-width="0.121271" stroke-miterlimit="10"/>
<path d="M25.15 137.19C25.15 137.19 25.15 137.192 25.1484 137.195" stroke="white" stroke-width="0.121271" stroke-miterlimit="10"/>
<path d="M39.2428 24.6034C40.2776 24.6034 41.1164 23.7646 41.1164 22.7298C41.1164 21.695 40.2776 20.8561 39.2428 20.8561C38.208 20.8561 37.3691 21.695 37.3691 22.7298C37.3691 23.7646 38.208 24.6034 39.2428 24.6034Z" fill="url(#paint1_linear)"/>
<path d="M45.0627 23.1589C45.0627 23.5798 44.7207 23.9217 44.2999 23.9217C43.8791 23.9217 43.5371 23.5798 43.5371 23.1589C43.5371 22.7381 43.8791 22.3961 44.2999 22.3961C44.7219 22.3961 45.0627 22.7381 45.0627 23.1589Z" fill="url(#paint2_linear)"/>
<path d="M46.4895 23.1591C46.4895 23.4574 46.2481 23.6988 45.9498 23.6988C45.6515 23.6988 45.4102 23.4574 45.4102 23.1591C45.4102 22.8608 45.6515 22.6194 45.9498 22.6194C46.2481 22.6194 46.4895 22.862 46.4895 23.1591Z" fill="url(#paint3_linear)"/>
<path d="M8.05766 67.2785H8.23836V58.1019H8.05766C7.50952 58.1019 7.06445 58.5458 7.06445 59.0951V66.2865C7.06445 66.8346 7.50952 67.2785 8.05766 67.2785Z" fill="url(#paint4_linear)"/>
<path d="M8.02372 53.0814H8.23837V31.0113H8.02372C7.37128 31.0113 6.84375 31.5401 6.84375 32.1913V51.9015C6.84254 52.5539 7.37128 53.0814 8.02372 53.0814Z" fill="url(#paint5_linear)"/>
<path d="M25.5955 103.456C25.5881 103.46 25.5796 103.465 25.5723 103.468" stroke="white" stroke-width="0.121271" stroke-miterlimit="10"/>
<path d="M52.1686 25.6188H32.0631H11.1172V132.953H72.7325V25.6188H52.1686Z" fill="url(#paint6_linear)"/>
<path d="M93.2948 117.456L93.6308 138.083L79.875 126.942L92.509 117.469L93.2948 117.456Z" fill="url(#paint7_linear)"/>
<path d="M92.5085 117.469L79.8745 126.942L75.8422 127.007L62.9062 117.952L92.5085 117.469Z" fill="url(#paint8_linear)"/>
<path d="M93.6309 138.083L62.457 138.591L75.8429 127.007L79.8752 126.942L93.6309 138.083Z" fill="url(#paint9_linear)"/>
<path d="M75.8449 127.007L62.459 138.591L62.123 117.964L62.9089 117.952L75.8449 127.007Z" fill="url(#paint10_linear)"/>
<path d="M93.2794 116.606L93.2951 117.577L62.1212 118.085L62.1055 117.114L77.5081 105.558L93.2794 116.606Z" fill="url(#paint11_linear)"/>
<path d="M93.0112 0L75.3687 29.2627L69.2482 21.6165L65.8574 17.3793L93.0112 0Z" fill="url(#paint12_linear)"/>
<path d="M93.0126 0L61.0286 11.773L52.8125 8.65026L93.0126 0Z" fill="#FF861F"/>
<path d="M93.0109 0L65.8572 17.3793L60.2266 24.0917L61.027 11.773L93.0109 0Z" fill="url(#paint13_linear)"/>
<path d="M69.2479 21.6167L60.2266 24.0918L65.8572 17.3795L69.2479 21.6167Z" fill="url(#paint14_linear)"/>
<path d="M58.1509 25.9312L57.1152 25.0811C57.5749 24.522 57.8186 24.2007 57.8222 24.197L58.8882 25.0083C58.8785 25.0229 58.6287 25.3503 58.1509 25.9312Z" fill="url(#paint15_linear)"/>
<path d="M4.34514 77.6898C3.78487 77.0955 3.2634 76.4504 2.79772 75.7701L3.9025 75.0121C4.33058 75.6354 4.80718 76.226 5.32016 76.7705L4.34514 77.6898ZM1.56076 73.6381C1.20301 72.8959 0.901043 72.1234 0.663352 71.3425L1.94519 70.9532C2.16226 71.6687 2.43876 72.3769 2.7674 73.0572L1.56076 73.6381ZM0.135823 68.9304C0.046083 68.2658 0 67.594 0 66.9306C0 66.7742 0.00242542 66.6165 0.00727626 66.4601L1.34611 66.5037C1.34126 66.6456 1.33883 66.7887 1.33883 66.9306C1.33883 67.5333 1.38006 68.1457 1.46253 68.7497L0.135823 68.9304ZM1.61412 64.2748L0.303177 63.9995C0.472957 63.1918 0.715498 62.3939 1.02595 61.6287L2.26777 62.1319C1.98642 62.8244 1.76692 63.5447 1.61412 64.2748ZM3.28765 60.1334L2.15135 59.424C2.58065 58.7376 3.07664 58.0718 3.62721 57.4448L4.63376 58.3289C4.1317 58.9013 3.67936 59.5088 3.28765 60.1334ZM6.2503 56.7439L5.382 55.724C5.98715 55.2098 6.64686 54.7186 7.34417 54.2627L8.07664 55.3844C7.42663 55.8077 6.81179 56.2661 6.2503 56.7439ZM10.0606 54.2408L9.45428 53.0463C10.1528 52.691 10.8974 52.3563 11.6651 52.0519L12.1586 53.2973C11.4286 53.5872 10.7228 53.9049 10.0606 54.2408ZM14.3379 52.5333L13.9437 51.2539C14.6883 51.0247 15.4705 50.8125 16.2685 50.6245L16.5753 51.9282C15.8065 52.1089 15.0546 52.3126 14.3379 52.5333ZM18.854 51.4625L18.6199 50.1443C19.3742 50.0109 20.1419 49.852 20.8998 49.675L21.2054 50.9786C20.4232 51.1605 19.6325 51.3243 18.854 51.4625ZM23.5217 50.3711L23.1494 49.0844C23.8843 48.8722 24.6313 48.6357 25.3687 48.3822L25.8028 49.6495C25.0449 49.9102 24.2772 50.1528 23.5217 50.3711ZM28.0475 48.8212L27.5552 47.5758C28.2695 47.2932 28.9935 46.9888 29.7077 46.6687L30.2535 47.8911C29.521 48.2185 28.7788 48.5314 28.0475 48.8212ZM32.4169 46.8712L31.8215 45.6718C32.5091 45.3298 33.2076 44.966 33.8952 44.5901L34.5367 45.7652C33.8334 46.1496 33.1203 46.5219 32.4169 46.8712ZM36.6129 44.5828L35.9289 43.4307C36.5923 43.0366 37.2629 42.6231 37.9214 42.1998L38.6442 43.3277C37.9724 43.7582 37.2884 44.1814 36.6129 44.5828ZM40.6318 42.007L39.8727 40.9035C40.5081 40.4657 41.1509 40.0097 41.7839 39.544L42.577 40.6233C41.9331 41.0963 41.2794 41.562 40.6318 42.007ZM44.4785 39.1838L43.6551 38.1276C44.2639 37.6534 44.8787 37.1586 45.4851 36.6578L46.3388 37.6898C45.7228 38.1991 45.097 38.7012 44.4785 39.1838ZM48.1543 36.1472L47.2738 35.1382C47.8584 34.6277 48.4477 34.1002 49.0226 33.5714L49.9297 34.5573C49.3464 35.0934 48.7485 35.6294 48.1543 36.1472ZM51.6626 32.9202L50.7313 31.9585C51.2927 31.4152 51.853 30.8586 52.3975 30.3032L53.3531 31.2418C52.8014 31.8045 52.2314 32.3696 51.6626 32.9202ZM55.0012 29.5173L54.0213 28.6042C54.561 28.0245 55.0922 27.4387 55.5979 26.8639L56.6032 27.7492C56.089 28.3337 55.5494 28.928 55.0012 29.5173Z" fill="url(#paint16_linear)"/>
<path d="M7.18071 80.0462C6.84358 79.8303 6.51008 79.5975 6.1875 79.3513L7.00002 78.2866C7.29228 78.5097 7.59546 78.7219 7.90227 78.9172L7.18071 80.0462Z" fill="url(#paint17_linear)"/>
<path d="M53.7041 100.361V101.798C53.7041 101.798 53.3512 101.978 52.9025 102.087C52.4526 102.195 52.5241 102.652 52.2416 102.588C51.9578 102.522 52.1761 101.673 52.2416 101.108C52.3071 100.541 53.7041 100.361 53.7041 100.361Z" fill="url(#paint18_linear)"/>
<path d="M36.1401 139.022C36.1401 139.497 35.8794 139.616 35.3567 139.616C34.8341 139.616 33.397 139.735 33.1363 139.616C32.8755 139.497 32.2219 139.113 32.2219 139.378C32.2219 139.735 31.6992 139.735 31.4385 139.616C31.1777 139.497 31.1777 137.597 31.1777 137.597H33.1375C33.1375 137.597 33.7911 137.716 33.9209 138.191C34.0506 138.666 36.1401 138.548 36.1401 139.022Z" fill="url(#paint19_linear)"/>
<path d="M26.2593 139.022C26.2593 139.497 25.9985 139.616 25.4759 139.616C24.9532 139.616 23.5161 139.735 23.2554 139.616C22.9947 139.497 22.341 139.113 22.341 139.378C22.341 139.735 21.8183 139.735 21.5576 139.616C21.2969 139.497 21.2969 137.597 21.2969 137.597H23.2566C23.2566 137.597 23.9103 137.716 24.04 138.191C24.1698 138.666 26.2593 138.548 26.2593 139.022Z" fill="url(#paint20_linear)"/>
<path d="M27.9558 82.7385C27.8164 82.7385 27.7133 82.673 27.6345 82.5712C27.4247 82.2947 27.398 81.7538 27.3022 81.5634C27.204 81.3669 27.2525 81.2457 27.2294 81.0868C27.2222 81.0334 27.2052 80.9752 27.1724 80.911C27.0415 80.6502 26.6498 79.6049 27.1724 79.6049C27.6951 79.6049 27.3034 81.0419 27.5641 80.911C27.8249 80.78 27.6951 79.2132 27.8249 78.6905C27.9558 78.1678 28.3476 78.4297 28.3476 79.2132C28.3476 79.2132 28.3524 79.3563 28.3573 79.5855C28.3742 80.4901 28.373 82.7385 27.9558 82.7385Z" fill="url(#paint21_linear)"/>
<path d="M29.0264 78.4175C28.6698 78.9475 28.6007 79.0784 28.8627 79.3392C29.104 79.5805 28.46 79.7005 28.3594 79.7515C28.3557 79.5235 28.3473 79.2118 28.3473 79.2118C28.3473 78.4284 27.9555 78.1665 27.8246 78.6891C27.6936 79.2118 27.8246 80.7786 27.5638 80.9096C27.3031 81.0406 27.6948 79.6035 27.1721 79.6035C26.6495 79.6035 27.0412 80.6489 27.1721 80.9096C27.2049 80.9751 27.2219 81.0321 27.2291 81.0855C27.2291 81.0855 26.9102 82.0847 26.7804 82.7372H25.6053C25.6053 82.7372 23.2539 79.4713 23.6456 78.1653C24.0373 76.8592 25.0087 75.9484 26.9114 75.9448C29.5939 75.9387 29.2738 77.3503 29.2592 77.6947C29.2519 77.8281 29.2119 78.141 29.0264 78.4175Z" fill="url(#paint22_linear)"/>
<path d="M25.6104 83.6202C25.6092 83.6314 25.6067 83.6426 25.6055 83.6538" stroke="#848484" stroke-width="0.121271" stroke-miterlimit="10"/>
<path d="M27.6089 83.8761C26.7078 83.5099 25.9365 83.5693 25.6103 83.6202C25.7316 82.8647 25.6055 82.7386 25.6055 82.7386H26.7806C26.9116 82.0849 27.2293 81.0869 27.2293 81.0869C27.2523 81.2457 27.205 81.3682 27.302 81.5635C27.3979 81.7539 27.4233 82.2947 27.6343 82.5712C27.6343 82.5712 27.4876 83.0745 27.6089 83.8761Z" fill="url(#paint23_linear)"/>
<path d="M28.5563 84.2662C26.2461 83.8527 24.8502 83.9825 24.7969 83.9885C25.1789 83.7642 25.4445 83.6526 25.4445 83.6526C25.4445 83.6526 25.5027 83.6369 25.6118 83.6199C25.938 83.5689 26.7093 83.5107 27.6104 83.8758C27.7498 83.9315 27.8941 83.9982 28.0384 84.0771C28.0384 84.0771 28.2531 84.1474 28.5563 84.2662Z" fill="url(#paint24_linear)"/>
<path d="M32.2343 94.4176C31.0664 93.154 29.941 91.8879 29.8937 91.8358C29.9277 91.9752 31.1489 96.9958 32.2306 103.557H21.3672C21.5297 98.4256 21.9651 87.1426 22.7097 85.9384C23.2966 84.9888 24.1892 84.3449 24.7943 83.9883C24.7943 83.9883 24.7943 83.9883 24.7955 83.9883C24.8489 83.9835 26.2435 83.8525 28.5549 84.266C28.5561 84.2672 28.5586 84.2672 28.5598 84.2672C29.137 84.4916 30.0284 84.8869 30.3558 85.2847C30.6699 85.6655 32.666 88.7082 34.1152 90.9311C34.0897 91.0026 33.2857 93.3153 32.2343 94.4176Z" fill="url(#paint25_linear)"/>
<path d="M33.8782 120.922L33.1821 137.596H31.1775C31.1775 137.596 30.6585 122.338 29.7866 119.18C29.2008 117.065 28.2634 114.882 27.2217 112.845C24.618 107.75 21.3691 103.557 21.3691 103.557H32.2326C33.1154 108.923 33.9061 115.323 33.8782 120.922Z" fill="url(#paint26_linear)"/>
<path d="M27.2202 112.845L25.1271 123.556L23.2935 137.596H21.2949C21.1809 135.203 21.8176 123.556 21.8176 123.556C21.2949 117.482 21.2949 106.076 21.2949 106.076C21.2949 106.076 21.318 105.092 21.3665 103.557C21.3677 103.557 24.6165 107.75 27.2202 112.845Z" fill="url(#paint27_linear)"/>
<path d="M34.777 91.9393C34.777 91.9393 34.777 91.9393 34.777 91.9405C34.7697 91.9975 34.5283 93.8372 33.0476 95.2876C32.7833 95.0087 32.508 94.7116 32.2363 94.4169C33.2877 93.3145 34.0918 91.0031 34.1172 90.9303C34.3561 91.2941 34.5781 91.6361 34.777 91.9393Z" fill="url(#paint28_linear)"/>
<path d="M43.8029 97.7493C43.7677 97.7723 43.7228 97.7857 43.6683 97.7857C43.0995 97.7857 34.4141 96.6748 34.4141 96.6748C34.0806 96.368 33.5858 95.8611 33.0449 95.2875C34.5256 93.8359 34.767 91.9974 34.7742 91.9404C35.3006 92.7493 35.6547 93.295 35.6547 93.295L43.6683 96.4141C43.6683 96.4141 44.1339 97.5334 43.8029 97.7493Z" fill="url(#paint29_linear)"/>
<path d="M34.1163 90.9303C34.1163 90.9303 34.1163 90.9303 34.1152 90.9314" stroke="#848484" stroke-width="0.121271" stroke-miterlimit="10"/>
<path d="M28.5547 84.2663C28.556 84.2676 28.5586 84.2676 28.56 84.2676" stroke="#848484" stroke-width="0.121271" stroke-miterlimit="10"/>
<path d="M24.796 83.9875C24.7949 83.9875 24.7949 83.9875 24.7949 83.9875" stroke="#848484" stroke-width="0.121271" stroke-miterlimit="10"/>
<path d="M45.8989 97.2847C45.8928 97.2992 45.8843 97.3138 45.8758 97.3283C45.8395 97.3865 45.7788 97.4411 45.6854 97.5248C45.5678 97.6303 45.3811 97.7006 45.1434 97.7503C44.9324 97.794 44.6449 97.7989 44.3903 97.7904C44.0725 97.7795 43.8045 97.7503 43.8045 97.7503C44.1344 97.5345 43.6699 96.4152 43.6699 96.4152C43.6699 96.4152 44.212 95.9252 44.457 95.9907C44.4897 96.0004 44.5225 96.0234 44.5528 96.0586C44.4824 96.1387 44.4182 96.2417 44.3854 96.3824C44.229 97.0737 44.668 96.5874 44.8851 96.6419C44.9918 96.8299 45.1167 96.9948 45.2731 97.0349C45.6648 97.1331 45.9947 97.053 45.8989 97.2847Z" fill="url(#paint30_linear)"/>
<path d="M69.9918 137.597H68.032C68.032 137.597 62.7761 125.295 59.8171 120.663C59.3636 119.954 59.0361 119.173 58.8603 118.352L58.3558 115.997L53.9258 103.768H63.1994C63.1994 103.768 63.904 113.031 63.7548 117.56C63.739 118.034 63.8263 118.506 64.0107 118.944C65.0403 121.393 68.294 130.935 69.9918 137.597Z" fill="url(#paint31_linear)"/>
<path d="M61.8938 82.4761C61.7628 82.3451 61.633 83.6512 60.196 83.7822C60.1414 83.7871 60.0893 83.7871 60.0407 83.7834C59.2585 83.7107 59.1603 82.4846 59.1955 81.5872C59.2149 81.0597 59.2816 80.6474 59.2816 80.6474C59.2816 80.6474 59.5423 80.1247 59.8043 79.733C60.065 79.3413 60.8496 79.2103 61.1104 79.733C61.3711 80.2556 61.5021 80.1247 61.5021 80.9081C61.5021 81.6915 61.5021 82.3451 61.8938 81.6915C62.2855 81.0378 63.1999 80.9081 63.3308 81.6915C63.4618 82.4761 62.0247 82.6071 61.8938 82.4761Z" fill="url(#paint32_linear)"/>
<path d="M60.0391 83.7835C60.0391 83.7824 60.0391 83.7824 60.0391 83.7824" stroke="#848484" stroke-width="0.121271" stroke-miterlimit="10"/>
<path d="M61.8924 82.4762V85.3503C61.8924 85.3503 60.1946 86.1337 59.541 86.9172C59.484 86.9863 59.4403 87.0312 59.4088 87.0542C59.4076 87.0554 59.4076 87.0554 59.4076 87.0554C59.3578 87.093 59.3397 87.0785 59.3445 87.0263C59.3651 86.7486 60.0358 85.4049 60.0612 85.3503C60.0624 85.3491 60.0624 85.3491 60.0624 85.3491C60.191 85.2206 60.043 83.8332 60.0382 83.7835C60.0867 83.7872 60.1388 83.7872 60.1934 83.7823C61.6317 83.6525 61.7626 82.3452 61.8924 82.4762Z" fill="url(#paint33_linear)"/>
<path d="M63.3305 82.3452C62.6768 83.1286 61.8934 83.929 61.8934 83.929V82.4761C62.0244 82.6071 63.4602 82.4761 63.3305 81.6927C63.1995 80.9093 62.2851 81.0391 61.8934 81.6927C61.5017 82.3464 61.5017 81.6927 61.5017 80.9093C61.5017 80.1259 61.3707 80.2557 61.11 79.7342C60.8493 79.2115 60.0646 79.3425 59.8039 79.7342C59.5432 80.1259 59.2812 80.6486 59.2812 80.6486C59.2812 80.6486 59.2145 81.0609 59.1951 81.5884C59.1951 81.5884 58.7586 81.5618 58.1061 81.1701C57.4525 80.7784 58.2371 79.864 58.2371 79.864C56.0166 79.733 56.4083 76.9898 56.6703 77.1208C56.931 77.2518 56.931 77.7745 59.5444 77.1208C62.1566 76.4672 62.2875 78.8186 62.2875 78.8186C64.5056 79.0806 63.9841 81.5618 63.3305 82.3452Z" fill="url(#paint34_linear)"/>
<path d="M62.2806 85.6156L60.7175 88.092C60.5865 88.223 60.8484 88.092 60.4567 87.4383C60.0747 86.8041 59.4453 87.0394 59.4102 87.0527C59.4417 87.0297 59.4841 86.9848 59.5423 86.9157C60.196 86.1323 61.8938 85.3488 61.8938 85.3488C61.8938 85.3488 62.0417 85.4459 62.2806 85.6156Z" fill="url(#paint35_linear)"/>
<path d="M64.7819 87.85C61.1026 87.0205 61.8945 96.9744 61.8945 96.9744C61.0674 97.5941 56.4033 99.3574 54.4873 100.067L55.2331 95.1456L54.1198 95.6028C50.4793 96.2165 46.7999 97.0726 46.7999 97.0726L46.4434 95.7168C48.4031 95.0316 53.2467 93.0392 53.2467 93.0392C53.9003 93.0392 55.9449 88.7947 56.8593 87.6183C57.4535 86.8543 58.6287 86.1255 59.3805 85.7083C59.0519 86.0176 58.5389 86.5754 58.3667 87.1781C58.3667 87.1781 59.0179 86.6142 59.3466 87.0265C59.3417 87.0787 59.3599 87.0932 59.4096 87.0556C59.4096 87.0556 59.4096 87.0556 59.4109 87.0544C59.446 87.0411 60.0754 86.8046 60.4574 87.4401C60.8491 88.0937 60.5884 88.2235 60.7182 88.0937L62.2813 85.6174C62.8768 86.0394 64.0276 86.915 64.7819 87.85Z" fill="url(#paint36_linear)"/>
<path d="M64.6367 99.7169C64.5033 99.7969 63.9685 99.9315 63.1996 100.094C60.739 100.617 55.8942 101.435 54.2365 101.711C53.8751 101.772 53.6641 101.806 53.6641 101.806V100.369C53.6641 100.369 53.9794 100.254 54.4851 100.066C56.4011 99.3555 61.0652 97.5922 61.8923 96.9737C61.8923 96.9737 61.1004 87.0198 64.7798 87.8493C64.9847 88.1028 65.1618 88.3599 65.2879 88.6145C66.0737 90.1826 65.2903 99.3252 64.6367 99.7169Z" fill="url(#paint37_linear)"/>
<path d="M60.0638 85.3514C60.0371 85.406 59.3677 86.7485 59.3471 87.0274C59.0196 86.6151 58.3672 87.179 58.3672 87.179C58.5394 86.5763 59.0512 86.0196 59.381 85.7092C59.7667 85.4933 60.0407 85.3611 60.0638 85.3514Z" fill="url(#paint38_linear)"/>
<path d="M63.1994 100.096V103.768H53.9258L54.2362 101.713C55.894 101.437 60.7388 100.617 63.1994 100.096Z" fill="url(#paint39_linear)"/>
<path d="M62.2852 85.6109L62.2812 85.6162" stroke="#848484" stroke-width="0.121271" stroke-miterlimit="10"/>
<path d="M58.3568 115.996C57.8074 117.434 57.3757 118.595 57.1914 119.18C56.408 121.661 54.3173 135.507 53.6648 137.596H51.7051L52.7504 116.437L53.9255 103.767L58.3568 115.996Z" fill="url(#paint40_linear)"/>
<path d="M53.6655 137.596C53.6655 137.596 53.6655 139.497 53.4048 139.616C53.1441 139.734 52.6214 139.734 52.6214 139.378C52.6214 139.112 51.9677 139.497 51.707 139.616C51.4463 139.734 50.0092 139.616 49.4865 139.616C48.9639 139.616 48.7031 139.497 48.7031 139.021C48.7031 138.547 50.7926 138.666 50.9236 138.191C51.0546 137.715 51.707 137.596 51.707 137.596H53.6655Z" fill="url(#paint41_linear)"/>
<path d="M69.9917 137.596C69.9917 137.596 69.9917 139.497 69.731 139.616C69.4702 139.734 68.9476 139.734 68.9476 139.378C68.9476 139.112 68.2939 139.497 68.0332 139.616C67.7724 139.734 66.3354 139.616 65.8127 139.616C65.29 139.616 65.0293 139.497 65.0293 139.021C65.0293 138.547 67.1188 138.666 67.2498 138.191C67.3807 137.715 68.0332 137.596 68.0332 137.596H69.9917Z" fill="url(#paint42_linear)"/>
<path d="M45.9004 97.2849C45.9974 97.0533 45.6664 97.1333 45.2747 97.0351C45.1182 96.9951 44.9933 96.8301 44.8866 96.6422C44.6683 96.5876 44.2293 97.0727 44.387 96.3826C44.4197 96.242 44.484 96.1389 44.5543 96.0588C44.7629 95.8248 45.0794 95.8078 45.3232 95.7181C45.6494 95.5992 46.4437 95.7181 46.4437 95.7181L46.8002 97.0739L45.8774 97.3286C45.8859 97.3128 45.8931 97.2995 45.9004 97.2849Z" fill="url(#paint43_linear)"/>
<path d="M44.3867 97.8112C44.3867 97.8112 44.5201 97.2254 44.7663 97.2739C45.0125 97.3237 44.9688 97.3625 45.1701 97.3091C45.3714 97.257 45.6043 97.2752 45.6358 97.3152C45.6673 97.3552 45.7389 97.6099 45.6261 97.6741C45.5121 97.7396 44.5601 97.9761 44.3867 97.8112Z" fill="url(#paint44_linear)"/>
<path d="M27.4165 62.7928L29.0633 69.1219C29.1943 69.624 28.8753 70.1406 28.3454 70.2789L16.7216 73.3046L14.8382 66.0671C14.706 65.5602 15.0286 65.0436 15.5549 64.9065L26.2256 62.1294C26.7543 61.9912 27.2843 62.2871 27.4165 62.7928Z" fill="url(#paint45_linear)"/>
<path d="M21.5533 65.6265L17.5465 66.6694L17.373 66.0012L21.3786 64.9595L21.5533 65.6265Z" fill="url(#paint46_linear)"/>
<path d="M23.0584 66.8858L17.9481 68.215L17.7734 67.548L22.885 66.2177L23.0584 66.8858Z" fill="url(#paint47_linear)"/>
<path d="M26.0822 67.7494L18.3512 69.7613L18.1777 69.0931L25.9088 67.0812L26.0822 67.7494Z" fill="url(#paint48_linear)"/>
<path d="M19.5418 71.0005L18.7293 71.2115L18.5547 70.5445L19.3684 70.3323L19.5418 71.0005Z" fill="url(#paint49_linear)"/>
<path d="M21.1375 70.5848L20.3238 70.797L20.1504 70.1289L20.9641 69.9166L21.1375 70.5848Z" fill="url(#paint50_linear)"/>
<path d="M22.7332 70.1686L21.9207 70.3808L21.7461 69.7126L22.5598 69.5016L22.7332 70.1686Z" fill="url(#paint51_linear)"/>
<path d="M19.9242 72.4703L20.6458 75.2438L16.7227 73.3035L19.9242 72.4703Z" fill="#333333"/>
<path d="M55.7389 63.3351L54.4704 69.7503C54.3697 70.2596 54.719 70.7556 55.255 70.8624L67.0377 73.1932L68.4893 65.8575C68.5912 65.3445 68.2383 64.8473 67.7059 64.7418L56.8898 62.6026C56.3513 62.4959 55.8395 62.8221 55.7389 63.3351Z" fill="url(#paint52_linear)"/>
<path d="M62.0477 65.8735L57.9863 65.0706L58.1197 64.394L62.1811 65.1968L62.0477 65.8735Z" fill="url(#paint53_linear)"/>
<path d="M62.8545 67.6624L57.6738 66.6377L57.8084 65.9598L62.9891 66.9845L62.8545 67.6624Z" fill="url(#paint54_linear)"/>
<path d="M65.2018 69.7527L57.3652 68.2029L57.4986 67.5262L65.3352 69.0761L65.2018 69.7527Z" fill="url(#paint55_linear)"/>
<path d="M57.8989 69.8376L57.0742 69.6739L57.2076 68.9972L58.0323 69.1597L57.8989 69.8376Z" fill="url(#paint56_linear)"/>
<path d="M59.516 70.1577L58.6914 69.994L58.826 69.3173L59.6507 69.4798L59.516 70.1577Z" fill="url(#paint57_linear)"/>
<path d="M61.1352 70.4785L60.3105 70.3148L60.4439 69.6381L61.2686 69.8006L61.1352 70.4785Z" fill="url(#paint58_linear)"/>
<path d="M63.7918 72.5518L63.2363 75.3628L67.037 73.1933L63.7918 72.5518Z" fill="url(#paint59_linear)"/>
</g>
<defs>
<linearGradient id="paint0_linear" x1="117.632" y1="-12.2004" x2="-34.8664" y2="171.68" gradientUnits="userSpaceOnUse">
<stop stop-color="#808080"/>
<stop offset="0.6386" stop-color="#52524D"/>
<stop offset="1" stop-color="#3C3C35"/>
</linearGradient>
<linearGradient id="paint1_linear" x1="37.3692" y1="22.7297" x2="41.1173" y2="22.7297" gradientUnits="userSpaceOnUse">
<stop stop-color="#F7F7F7"/>
<stop offset="1" stop-color="white"/>
</linearGradient>
<linearGradient id="paint2_linear" x1="43.5379" y1="23.1591" x2="45.063" y2="23.1591" gradientUnits="userSpaceOnUse">
<stop stop-color="#F7F7F7"/>
<stop offset="1" stop-color="white"/>
</linearGradient>
<linearGradient id="paint3_linear" x1="45.4113" y1="23.1593" x2="46.4897" y2="23.1593" gradientUnits="userSpaceOnUse">
<stop stop-color="#F7F7F7"/>
<stop offset="1" stop-color="white"/>
</linearGradient>
<linearGradient id="paint4_linear" x1="8.23764" y1="62.6902" x2="7.06472" y2="62.6902" gradientUnits="userSpaceOnUse">
<stop stop-color="#212121"/>
<stop offset="1" stop-color="#686868"/>
</linearGradient>
<linearGradient id="paint5_linear" x1="6.8427" y1="42.0466" x2="8.23763" y2="42.0466" gradientUnits="userSpaceOnUse">
<stop stop-color="#212121"/>
<stop offset="1" stop-color="#686868"/>
</linearGradient>
<linearGradient id="paint6_linear" x1="89.7287" y1="2.76906" x2="-18.5076" y2="176.016" gradientUnits="userSpaceOnUse">
<stop offset="0.0027027" stop-color="white"/>
<stop offset="0.367" stop-color="#F2F2FF"/>
<stop offset="1" stop-color="#D2D2FF"/>
</linearGradient>
<linearGradient id="paint7_linear" x1="78.4205" y1="127.824" x2="91.2748" y2="130.052" gradientUnits="userSpaceOnUse">
<stop stop-color="#FF8218"/>
<stop offset="1" stop-color="#FE7952"/>
</linearGradient>
<linearGradient id="paint8_linear" x1="77.7349" y1="115.095" x2="77.562" y2="131.52" gradientUnits="userSpaceOnUse">
<stop stop-color="#FFD571"/>
<stop offset="0.2509" stop-color="#FFBD60"/>
<stop offset="0.7782" stop-color="#FF8035"/>
<stop offset="1" stop-color="#FF6421"/>
</linearGradient>
<linearGradient id="paint9_linear" x1="78.8554" y1="126.252" x2="77.7028" y2="143.427" gradientUnits="userSpaceOnUse">
<stop stop-color="#FFD571"/>
<stop offset="0.2509" stop-color="#FFBD60"/>
<stop offset="0.7782" stop-color="#FF8035"/>
<stop offset="1" stop-color="#FF6421"/>
</linearGradient>
<linearGradient id="paint10_linear" x1="69.1897" y1="118.348" x2="67.8641" y2="145.033" gradientUnits="userSpaceOnUse">
<stop stop-color="#FFD571"/>
<stop offset="0.2509" stop-color="#FFBD60"/>
<stop offset="0.7782" stop-color="#FF8035"/>
<stop offset="1" stop-color="#FF6421"/>
</linearGradient>
<linearGradient id="paint11_linear" x1="58.8075" y1="111.855" x2="79.9686" y2="125.548" gradientUnits="userSpaceOnUse">
<stop stop-color="#FF8218"/>
<stop offset="1" stop-color="#FE7952"/>
</linearGradient>
<linearGradient id="paint12_linear" x1="62.9862" y1="14.7096" x2="87.6863" y2="20.6664" gradientUnits="userSpaceOnUse">
<stop stop-color="#FF8218"/>
<stop offset="1" stop-color="#FE7952"/>
</linearGradient>
<linearGradient id="paint13_linear" x1="73.8186" y1="7.16074" x2="77.1592" y2="12.9879" gradientUnits="userSpaceOnUse">
<stop stop-color="#FFD571"/>
<stop offset="0.2509" stop-color="#FFBD60"/>
<stop offset="0.7782" stop-color="#FF8035"/>
<stop offset="1" stop-color="#FF6421"/>
</linearGradient>
<linearGradient id="paint14_linear" x1="61.1224" y1="20.2848" x2="69.119" y2="22.165" gradientUnits="userSpaceOnUse">
<stop stop-color="#FFD571"/>
<stop offset="0.2509" stop-color="#FFBD60"/>
<stop offset="0.7782" stop-color="#FF8035"/>
<stop offset="1" stop-color="#FF6421"/>
</linearGradient>
<linearGradient id="paint15_linear" x1="57.8866" y1="25.1828" x2="9.48681" y2="82.1667" gradientUnits="userSpaceOnUse">
<stop stop-color="#FFD571"/>
<stop offset="0.2509" stop-color="#FFBD60"/>
<stop offset="0.7782" stop-color="#FF8035"/>
<stop offset="1" stop-color="#FF6421"/>
</linearGradient>
<linearGradient id="paint16_linear" x1="50.3451" y1="18.7777" x2="1.94491" y2="75.7621" gradientUnits="userSpaceOnUse">
<stop stop-color="#FFD571"/>
<stop offset="0.2509" stop-color="#FFBD60"/>
<stop offset="0.7782" stop-color="#FF8035"/>
<stop offset="1" stop-color="#FF6421"/>
</linearGradient>
<linearGradient id="paint17_linear" x1="55.0137" y1="22.7429" x2="6.61367" y2="79.7271" gradientUnits="userSpaceOnUse">
<stop stop-color="#FFD571"/>
<stop offset="0.2509" stop-color="#FFBD60"/>
<stop offset="0.7782" stop-color="#FF8035"/>
<stop offset="1" stop-color="#FF6421"/>
</linearGradient>
<linearGradient id="paint18_linear" x1="52.0998" y1="101.478" x2="53.7044" y2="101.478" gradientUnits="userSpaceOnUse">
<stop stop-color="#FFECDC"/>
<stop offset="0.2378" stop-color="#F6DAC4"/>
<stop offset="0.7374" stop-color="#E0AD87"/>
<stop offset="1" stop-color="#D39364"/>
</linearGradient>
<linearGradient id="paint19_linear" x1="31.1768" y1="138.642" x2="36.1402" y2="138.642" gradientUnits="userSpaceOnUse">
<stop stop-color="#F5F5F5"/>
<stop offset="0.405" stop-color="#DDDDDD"/>
<stop offset="1" stop-color="#B3B3B3"/>
</linearGradient>
<linearGradient id="paint20_linear" x1="21.2961" y1="138.642" x2="26.2595" y2="138.642" gradientUnits="userSpaceOnUse">
<stop stop-color="#F5F5F5"/>
<stop offset="0.405" stop-color="#DDDDDD"/>
<stop offset="1" stop-color="#B3B3B3"/>
</linearGradient>
<linearGradient id="paint21_linear" x1="26.9085" y1="80.5776" x2="28.3623" y2="80.5776" gradientUnits="userSpaceOnUse">
<stop stop-color="#FFECDC"/>
<stop offset="0.2378" stop-color="#F6DAC4"/>
<stop offset="0.7374" stop-color="#E0AD87"/>
<stop offset="1" stop-color="#D39364"/>
</linearGradient>
<linearGradient id="paint22_linear" x1="23.6016" y1="79.3419" x2="29.2776" y2="79.3419" gradientUnits="userSpaceOnUse">
<stop stop-color="#808080"/>
<stop offset="0.6386" stop-color="#52524D"/>
<stop offset="1" stop-color="#3C3C35"/>
</linearGradient>
<linearGradient id="paint23_linear" x1="25.605" y1="82.4808" x2="27.6348" y2="82.4808" gradientUnits="userSpaceOnUse">
<stop stop-color="#FFECDC"/>
<stop offset="0.2378" stop-color="#F6DAC4"/>
<stop offset="0.7374" stop-color="#E0AD87"/>
<stop offset="1" stop-color="#D39364"/>
</linearGradient>
<linearGradient id="paint24_linear" x1="24.7967" y1="83.9237" x2="28.5558" y2="83.9237" gradientUnits="userSpaceOnUse">
<stop offset="0.0027027" stop-color="white"/>
<stop offset="0.367" stop-color="#F2F2FF"/>
<stop offset="1" stop-color="#D2D2FF"/>
</linearGradient>
<linearGradient id="paint25_linear" x1="20.0192" y1="93.8131" x2="31.9486" y2="95.8305" gradientUnits="userSpaceOnUse">
<stop stop-color="#FF8218"/>
<stop offset="1" stop-color="#FE7952"/>
</linearGradient>
<linearGradient id="paint26_linear" x1="21.3674" y1="120.576" x2="33.8785" y2="120.576" gradientUnits="userSpaceOnUse">
<stop stop-color="#808080"/>
<stop offset="0.6386" stop-color="#52524D"/>
<stop offset="1" stop-color="#3C3C35"/>
</linearGradient>
<linearGradient id="paint27_linear" x1="21.2817" y1="120.576" x2="27.22" y2="120.576" gradientUnits="userSpaceOnUse">
<stop stop-color="#808080"/>
<stop offset="0.6386" stop-color="#52524D"/>
<stop offset="1" stop-color="#3C3C35"/>
</linearGradient>
<linearGradient id="paint28_linear" x1="34.3884" y1="91.4422" x2="32.613" y2="95.4191" gradientUnits="userSpaceOnUse">
<stop offset="0.0027027" stop-color="white"/>
<stop offset="0.367" stop-color="#F2F2FF"/>
<stop offset="1" stop-color="#D2D2FF"/>
</linearGradient>
<linearGradient id="paint29_linear" x1="39.1221" y1="94.4999" x2="38.0554" y2="97.7" gradientUnits="userSpaceOnUse">
<stop stop-color="#FFECDC"/>
<stop offset="0.2378" stop-color="#F6DAC4"/>
<stop offset="0.7374" stop-color="#E0AD87"/>
<stop offset="1" stop-color="#D39364"/>
</linearGradient>
<linearGradient id="paint30_linear" x1="43.6689" y1="96.8884" x2="45.9155" y2="96.8884" gradientUnits="userSpaceOnUse">
<stop stop-color="#FFECDC"/>
<stop offset="0.2378" stop-color="#F6DAC4"/>
<stop offset="0.7374" stop-color="#E0AD87"/>
<stop offset="1" stop-color="#D39364"/>
</linearGradient>
<linearGradient id="paint31_linear" x1="53.926" y1="120.682" x2="69.9917" y2="120.682" gradientUnits="userSpaceOnUse">
<stop stop-color="#808080"/>
<stop offset="0.6386" stop-color="#52524D"/>
<stop offset="1" stop-color="#3C3C35"/>
</linearGradient>
<linearGradient id="paint32_linear" x1="59.1895" y1="81.5877" x2="63.3392" y2="81.5877" gradientUnits="userSpaceOnUse">
<stop stop-color="#FFECDC"/>
<stop offset="0.2378" stop-color="#F6DAC4"/>
<stop offset="0.7374" stop-color="#E0AD87"/>
<stop offset="1" stop-color="#D39364"/>
</linearGradient>
<linearGradient id="paint33_linear" x1="59.3448" y1="84.7722" x2="61.8927" y2="84.7722" gradientUnits="userSpaceOnUse">
<stop stop-color="#FFECDC"/>
<stop offset="0.2378" stop-color="#F6DAC4"/>
<stop offset="0.7374" stop-color="#E0AD87"/>
<stop offset="1" stop-color="#D39364"/>
</linearGradient>
<linearGradient id="paint34_linear" x1="56.4642" y1="80.4683" x2="63.8948" y2="80.4683" gradientUnits="userSpaceOnUse">
<stop stop-color="#808080"/>
<stop offset="0.6386" stop-color="#52524D"/>
<stop offset="1" stop-color="#3C3C35"/>
</linearGradient>
<linearGradient id="paint35_linear" x1="59.4099" y1="86.7439" x2="62.2808" y2="86.7439" gradientUnits="userSpaceOnUse">
<stop offset="0.0027027" stop-color="white"/>
<stop offset="0.367" stop-color="#F2F2FF"/>
<stop offset="1" stop-color="#D2D2FF"/>
</linearGradient>
<linearGradient id="paint36_linear" x1="46.4431" y1="92.8423" x2="64.7815" y2="92.8423" gradientUnits="userSpaceOnUse">
<stop stop-color="#FFD571"/>
<stop offset="0.2509" stop-color="#FFBD60"/>
<stop offset="0.7782" stop-color="#FF8035"/>
<stop offset="1" stop-color="#FF6421"/>
</linearGradient>
<linearGradient id="paint37_linear" x1="58.8539" y1="94.5452" x2="66.2989" y2="100.249" gradientUnits="userSpaceOnUse">
<stop stop-color="#FFD571"/>
<stop offset="0.2509" stop-color="#FFBD60"/>
<stop offset="0.7782" stop-color="#FF8035"/>
<stop offset="1" stop-color="#FF6421"/>
</linearGradient>
<linearGradient id="paint38_linear" x1="58.3674" y1="86.2649" x2="60.0641" y2="86.2649" gradientUnits="userSpaceOnUse">
<stop offset="0.0027027" stop-color="white"/>
<stop offset="0.367" stop-color="#F2F2FF"/>
<stop offset="1" stop-color="#D2D2FF"/>
</linearGradient>
<linearGradient id="paint39_linear" x1="53.926" y1="101.931" x2="63.1997" y2="101.931" gradientUnits="userSpaceOnUse">
<stop stop-color="#FFD571"/>
<stop offset="0.2509" stop-color="#FFBD60"/>
<stop offset="0.7782" stop-color="#FF8035"/>
<stop offset="1" stop-color="#FF6421"/>
</linearGradient>
<linearGradient id="paint40_linear" x1="51.7054" y1="120.681" x2="58.3563" y2="120.681" gradientUnits="userSpaceOnUse">
<stop stop-color="#808080"/>
<stop offset="0.6386" stop-color="#52524D"/>
<stop offset="1" stop-color="#3C3C35"/>
</linearGradient>
<linearGradient id="paint41_linear" x1="48.7019" y1="138.641" x2="53.6653" y2="138.641" gradientUnits="userSpaceOnUse">
<stop offset="0.0027027" stop-color="white"/>
<stop offset="0.367" stop-color="#F2F2FF"/>
<stop offset="1" stop-color="#D2D2FF"/>
</linearGradient>
<linearGradient id="paint42_linear" x1="65.0283" y1="138.641" x2="69.9917" y2="138.641" gradientUnits="userSpaceOnUse">
<stop offset="0.0027027" stop-color="white"/>
<stop offset="0.367" stop-color="#F2F2FF"/>
<stop offset="1" stop-color="#D2D2FF"/>
</linearGradient>
<linearGradient id="paint43_linear" x1="44.3532" y1="96.496" x2="46.8" y2="96.496" gradientUnits="userSpaceOnUse">
<stop stop-color="#FFECDC"/>
<stop offset="0.2378" stop-color="#F6DAC4"/>
<stop offset="0.7374" stop-color="#E0AD87"/>
<stop offset="1" stop-color="#D39364"/>
</linearGradient>
<linearGradient id="paint44_linear" x1="44.3863" y1="97.5698" x2="45.6868" y2="97.5698" gradientUnits="userSpaceOnUse">
<stop stop-color="#FFECDC"/>
<stop offset="0.2378" stop-color="#F6DAC4"/>
<stop offset="0.7374" stop-color="#E0AD87"/>
<stop offset="1" stop-color="#D39364"/>
</linearGradient>
<linearGradient id="paint45_linear" x1="13.2982" y1="67.73" x2="25.6882" y2="71.8335" gradientUnits="userSpaceOnUse">
<stop stop-color="#FF8218"/>
<stop offset="1" stop-color="#FE7952"/>
</linearGradient>
<linearGradient id="paint46_linear" x1="17.4594" y1="66.3357" x2="21.4661" y2="65.2929" gradientUnits="userSpaceOnUse">
<stop offset="0.0027027" stop-color="white"/>
<stop offset="0.367" stop-color="#F2F2FF"/>
<stop offset="1" stop-color="#D2D2FF"/>
</linearGradient>
<linearGradient id="paint47_linear" x1="17.8606" y1="67.8816" x2="22.9716" y2="66.5513" gradientUnits="userSpaceOnUse">
<stop offset="0.0027027" stop-color="white"/>
<stop offset="0.367" stop-color="#F2F2FF"/>
<stop offset="1" stop-color="#D2D2FF"/>
</linearGradient>
<linearGradient id="paint48_linear" x1="18.2644" y1="69.4271" x2="25.9952" y2="67.415" gradientUnits="userSpaceOnUse">
<stop offset="0.0027027" stop-color="white"/>
<stop offset="0.367" stop-color="#F2F2FF"/>
<stop offset="1" stop-color="#D2D2FF"/>
</linearGradient>
<linearGradient id="paint49_linear" x1="18.6419" y1="70.8779" x2="19.4552" y2="70.6662" gradientUnits="userSpaceOnUse">
<stop offset="0.0027027" stop-color="white"/>
<stop offset="0.367" stop-color="#F2F2FF"/>
<stop offset="1" stop-color="#D2D2FF"/>
</linearGradient>
<linearGradient id="paint50_linear" x1="20.2371" y1="70.4627" x2="21.0504" y2="70.251" gradientUnits="userSpaceOnUse">
<stop offset="0.0027027" stop-color="white"/>
<stop offset="0.367" stop-color="#F2F2FF"/>
<stop offset="1" stop-color="#D2D2FF"/>
</linearGradient>
<linearGradient id="paint51_linear" x1="21.8335" y1="70.0469" x2="22.6469" y2="69.8352" gradientUnits="userSpaceOnUse">
<stop offset="0.0027027" stop-color="white"/>
<stop offset="0.367" stop-color="#F2F2FF"/>
<stop offset="1" stop-color="#D2D2FF"/>
</linearGradient>
<linearGradient id="paint52_linear" x1="67.854" y1="69.0625" x2="55.1041" y2="66.5411" gradientUnits="userSpaceOnUse">
<stop stop-color="#FFD571"/>
<stop offset="0.2509" stop-color="#FFBD60"/>
<stop offset="0.7782" stop-color="#FF8035"/>
<stop offset="1" stop-color="#FF6421"/>
</linearGradient>
<linearGradient id="paint53_linear" x1="58.0529" y1="64.7321" x2="62.1144" y2="65.5353" gradientUnits="userSpaceOnUse">
<stop offset="0.0027027" stop-color="white"/>
<stop offset="0.367" stop-color="#F2F2FF"/>
<stop offset="1" stop-color="#D2D2FF"/>
</linearGradient>
<linearGradient id="paint54_linear" x1="57.741" y1="66.2988" x2="62.922" y2="67.3234" gradientUnits="userSpaceOnUse">
<stop offset="0.0027027" stop-color="white"/>
<stop offset="0.367" stop-color="#F2F2FF"/>
<stop offset="1" stop-color="#D2D2FF"/>
</linearGradient>
<linearGradient id="paint55_linear" x1="57.4318" y1="67.8649" x2="65.2684" y2="69.4146" gradientUnits="userSpaceOnUse">
<stop offset="0.0027027" stop-color="white"/>
<stop offset="0.367" stop-color="#F2F2FF"/>
<stop offset="1" stop-color="#D2D2FF"/>
</linearGradient>
<linearGradient id="paint56_linear" x1="57.1409" y1="69.3357" x2="57.9654" y2="69.4987" gradientUnits="userSpaceOnUse">
<stop offset="0.0027027" stop-color="white"/>
<stop offset="0.367" stop-color="#F2F2FF"/>
<stop offset="1" stop-color="#D2D2FF"/>
</linearGradient>
<linearGradient id="paint57_linear" x1="58.7588" y1="69.6558" x2="59.5833" y2="69.8188" gradientUnits="userSpaceOnUse">
<stop offset="0.0027027" stop-color="white"/>
<stop offset="0.367" stop-color="#F2F2FF"/>
<stop offset="1" stop-color="#D2D2FF"/>
</linearGradient>
<linearGradient id="paint58_linear" x1="60.3775" y1="69.9765" x2="61.202" y2="70.1396" gradientUnits="userSpaceOnUse">
<stop offset="0.0027027" stop-color="white"/>
<stop offset="0.367" stop-color="#F2F2FF"/>
<stop offset="1" stop-color="#D2D2FF"/>
</linearGradient>
<linearGradient id="paint59_linear" x1="66.7593" y1="74.5989" x2="63.5142" y2="73.9571" gradientUnits="userSpaceOnUse">
<stop stop-color="#FFD571"/>
<stop offset="0.2509" stop-color="#FFBD60"/>
<stop offset="0.7782" stop-color="#FF8035"/>
<stop offset="1" stop-color="#FF6421"/>
</linearGradient>
<clipPath id="clip0">
<rect width="115" height="139.687" fill="white"/>
</clipPath>
</defs>
</svg>
