<svg width="168" height="185" viewBox="0 0 168 185" fill="none" xmlns="http://www.w3.org/2000/svg">
<g clip-path="url(#clip0)">
<path d="M163.391 51.5147C164.282 49.1179 163.085 46.4505 160.703 45.5243L152.105 42.1775C152.022 42.1411 151.937 42.1058 151.85 42.0732L151.418 41.91L62.9628 8.63805C60.5049 7.71431 57.7621 8.95703 56.8383 11.4149L13.8582 125.679C12.9344 128.136 14.1772 130.879 16.635 131.803L105.523 165.237C107.98 166.16 110.723 164.918 111.647 162.46L138.898 90.012L143.392 91.736C145.823 92.6687 148.546 91.4374 149.454 88.9972L163.391 51.5147Z" fill="#FF861F"/>
<g opacity="0.46">
<path opacity="0.46" d="M62.4732 10.0486C61.6109 9.7243 60.7133 9.66788 59.873 9.83509L67.7053 12.0161L62.4732 10.0486Z" fill="#AD731D"/>
<path opacity="0.46" d="M71.6401 148.377L104.814 160.444L148.289 40.7328L67.7029 12.0172L59.8707 9.83613C58.3142 10.1467 56.9479 11.2299 56.3469 12.8249L32.0884 77.3216L13.8832 127.365L71.6401 148.377Z" fill="#AD731D"/>
<path opacity="0.56" d="M71.6401 148.377L104.814 160.444L148.289 40.7328L67.7029 12.0172L59.8707 9.83613C58.3142 10.1467 56.9479 11.2299 56.3469 12.8249L32.0884 77.3216L13.8832 127.365L71.6401 148.377Z" fill="#AD731D"/>
</g>
<g opacity="0.46">
<path opacity="0.46" d="M57.1896 11.6207L47.1481 9.00175L22.2784 104.344L56.9651 12.1256C57.0303 11.9508 57.1057 11.7827 57.1896 11.6207Z" fill="#AD731D"/>
<path opacity="0.46" d="M139.551 38.1087L96.1369 21.779L57.1895 11.6206C57.1056 11.7826 57.0302 11.9508 56.965 12.1256L22.2772 104.342L15.1841 131.535C15.6272 131.951 16.1562 132.287 16.7617 132.514L44.7334 143.034L107.884 159.507L139.551 38.1087Z" fill="#AD731D"/>
</g>
<path d="M139.745 31.503L46.1211 7.07797L13.2281 133.16L106.852 157.585L139.745 31.503Z" fill="white"/>
<g opacity="0.69">
<path opacity="0.69" d="M46.1198 7.0781L18.7817 111.881L55.971 9.64785L46.1198 7.0781Z" fill="#9D9D9C"/>
<path opacity="0.7" d="M139.109 33.9421L113.758 24.7208L55.9707 9.6478L18.7814 111.881L14.7437 127.362L74.9563 149.265L105.269 157.172L111.263 140.694L139.109 33.9421Z" fill="#9D9D9C"/>
</g>
<path d="M148.208 36.0631L138.236 32.4359L103.898 155.753L70.4907 146.451L103.663 158.518L148.208 36.0631Z" fill="white"/>
<path d="M138.236 32.4359L110.299 22.2732L55.7841 7.09278L12.7335 125.441L70.4909 146.451L103.898 155.753L138.236 32.4359Z" fill="white"/>
<path opacity="0.46" d="M138.236 32.4359L110.299 22.2732L55.7841 7.09278L12.7335 125.441L70.4909 146.451L103.898 155.753L138.236 32.4359Z" fill="#9D9D9C"/>
<path d="M138.042 28.9265L44.8281 2.96701L9.86865 128.497L103.082 154.457L138.042 28.9265Z" fill="white"/>
<path d="M124.966 44.8984L47.9445 23.4522C47.3078 23.2753 46.9371 22.617 47.114 21.9804L47.121 21.9581C47.2978 21.3215 47.9562 20.9508 48.5928 21.1277L125.614 42.5739C126.251 42.7508 126.622 43.4091 126.445 44.0458L126.437 44.0696C126.261 44.7046 125.602 45.0753 124.966 44.8984Z" fill="#DADADA"/>
<path d="M86.6728 39.7847L46.5094 28.6003C45.8727 28.4234 45.502 27.7651 45.6789 27.1284L45.6864 27.1046C45.8632 26.468 46.5216 26.0973 47.1582 26.2742L87.3216 37.4586C87.9583 37.6355 88.329 38.2938 88.1521 38.9305L88.1446 38.9543C87.9678 39.5909 87.3089 39.9632 86.6728 39.7847Z" fill="#DADADA"/>
<path d="M108.875 51.3384L45.1212 33.5851C44.4846 33.4082 44.1139 32.7499 44.2908 32.1132L44.2982 32.0894C44.4751 31.4528 45.1334 31.0821 45.7701 31.259L109.524 49.0107C110.16 49.1875 110.531 49.8459 110.354 50.4825L110.347 50.5063C110.17 51.143 109.511 51.5152 108.875 51.3384Z" fill="#DADADA"/>
<path d="M120.759 60.0003L43.738 38.554C43.1013 38.3771 42.7307 37.7188 42.9075 37.0822L42.9159 37.0499C43.0928 36.4133 43.7511 36.0426 44.3877 36.2195L121.409 57.6657C122.046 57.8426 122.416 58.5009 122.24 59.1376L122.231 59.1698C122.054 59.8064 121.396 60.1771 120.759 60.0003Z" fill="#DADADA"/>
<path d="M119.321 65.1712L42.2985 43.7228C41.6619 43.546 41.2912 42.8876 41.4681 42.251L41.4764 42.2187C41.6533 41.5821 42.3116 41.2114 42.9483 41.3883L119.97 62.8345C120.606 63.0114 120.977 63.6697 120.8 64.3064L120.792 64.3386C120.615 64.9753 119.956 65.3475 119.321 65.1712Z" fill="#DADADA"/>
<path d="M117.922 70.1735L40.9111 48.7287C40.2729 48.5513 39.9 47.8888 40.0773 47.2506L40.0848 47.2268C40.2622 46.5885 40.9247 46.2157 41.5629 46.393L118.576 67.8384C119.214 68.0158 119.587 68.6783 119.41 69.3165L119.402 69.3403C119.223 69.978 118.561 70.3509 117.922 70.1735Z" fill="#DADADA"/>
<path d="M90.7298 68.1187L39.4842 53.8479C38.846 53.6706 38.4731 53.0081 38.6505 52.3698L38.6579 52.346C38.8353 51.7078 39.4978 51.3349 40.136 51.5123L91.3821 65.7815C92.0203 65.9588 92.3932 66.6213 92.2158 67.2596L92.2084 67.2834C92.0305 67.9232 91.368 68.2961 90.7298 68.1187Z" fill="#DADADA"/>
<path d="M113.779 85.056L36.7661 63.6107C36.1278 63.4333 35.755 62.7708 35.9323 62.1326L35.9442 62.0892C36.1216 61.451 36.7841 61.0781 37.4223 61.2555L114.435 82.7008C115.073 82.8782 115.446 83.5407 115.269 84.1789L115.257 84.2223C115.078 84.86 114.417 85.2334 113.779 85.056Z" fill="#DADADA"/>
<path d="M112.326 90.2682L35.3149 68.8234C34.6767 68.646 34.3038 67.9835 34.4812 67.3453L34.493 67.3019C34.6704 66.6637 35.3329 66.2908 35.9711 66.4682L112.984 87.9135C113.622 88.0909 113.995 88.7534 113.818 89.3916L113.806 89.435C113.627 90.0727 112.964 90.4456 112.326 90.2682Z" fill="#DADADA"/>
<path d="M51.3094 96.9398L28.8802 90.6947C28.3689 90.5518 28.0694 90.0222 28.2122 89.5108L28.2182 89.4918C28.361 88.9804 28.8907 88.681 29.402 88.8238L51.8313 95.069C52.3426 95.2118 52.642 95.7415 52.4992 96.2528L52.4932 96.2719C52.3504 96.7832 51.8207 97.0826 51.3094 96.9398Z" fill="#DADADA"/>
<path d="M47.1099 100.231L27.727 94.8339C27.2156 94.6911 26.9162 94.1614 27.059 93.6501L27.065 93.631C27.2078 93.1197 27.7375 92.8202 28.2488 92.963L47.6317 98.3598C48.143 98.5026 48.4425 99.0323 48.2997 99.5436L48.2937 99.5627C48.1509 100.074 47.6212 100.373 47.1099 100.231Z" fill="#DADADA"/>
<path d="M106.073 112.189L83.6439 105.944C83.1325 105.801 82.8331 105.272 82.9759 104.76L82.9819 104.741C83.1247 104.23 83.6544 103.93 84.1657 104.073L106.595 110.318C107.106 110.461 107.406 110.991 107.263 111.502L107.257 111.521C107.114 112.033 106.585 112.331 106.073 112.189Z" fill="#DADADA"/>
<path d="M96.9801 114.118L82.4906 110.084C81.9792 109.941 81.6798 109.411 81.8226 108.9L81.8286 108.881C81.9714 108.37 82.5011 108.07 83.0124 108.213L97.502 112.247C98.0133 112.39 98.3128 112.92 98.1699 113.431L98.164 113.45C98.0211 113.961 97.4915 114.261 96.9801 114.118Z" fill="#DADADA"/>
<path d="M84.1934 87.8698L33.9097 73.8674C33.2715 73.69 32.8986 73.0275 33.076 72.3893L33.0878 72.3459C33.2652 71.7077 33.9277 71.3348 34.5659 71.5122L84.8496 85.5146C85.4878 85.692 85.8607 86.3545 85.6833 86.9927L85.6715 87.0361C85.4941 87.6743 84.8316 88.0472 84.1934 87.8698Z" fill="#DADADA"/>
<path d="M115.057 80.4642L38.0439 59.0188C37.4057 58.8414 37.0328 58.1789 37.2102 57.5407L37.2176 57.5169C37.395 56.8787 38.0575 56.5058 38.6957 56.6832L115.709 78.1285C116.347 78.3059 116.72 78.9684 116.542 79.6066L116.535 79.6304C116.356 80.2682 115.695 80.6415 115.057 80.4642Z" fill="#DADADA"/>
<path d="M95.6035 124.541C95.5839 124.542 95.5649 124.542 95.5458 124.541C95.5697 124.543 95.5988 124.545 95.6206 124.548C95.6163 124.545 95.6099 124.543 95.6035 124.541Z" fill="#5B89C7"/>
<path d="M98.5869 125.494C98.3769 124.094 95.9151 123.272 94.7823 122.976C92.4311 122.363 89.949 122.229 87.5598 122.109C87.3891 121.975 87.1567 121.927 86.9098 122.064C86.8285 122.079 86.7488 122.094 86.6675 122.108C86.6551 122.059 86.6311 122.013 86.593 121.974C86.5162 121.712 86.3166 121.465 86.0083 121.497C85.6391 121.535 85.3046 121.568 84.9573 121.714C84.8513 121.757 84.7118 121.841 84.5619 121.93C84.7239 121.691 85.1782 121.009 85.3352 120.758C85.6165 120.311 84.4234 119.852 84.1467 120.201C84.051 120.323 83.6081 120.885 83.4275 121.11C83.3504 121.207 83.2727 121.304 83.1955 121.4C83.0731 121.529 82.9464 121.65 82.8152 121.757C82.9043 121.417 82.9839 121.074 82.964 120.698C82.9608 120.642 82.9494 120.589 82.9342 120.537C82.9407 120.166 82.7949 119.992 82.5253 119.979C82.4532 119.975 82.365 120.012 82.2641 120.078C82.7617 119.024 83.2133 117.984 83.3521 116.784C83.3585 116.731 83.3566 116.681 83.35 116.636C83.4751 116.37 83.5788 116.139 83.6413 115.956C83.6491 115.948 83.6563 115.942 83.6641 115.934C83.7914 115.817 83.803 115.618 83.6891 115.487C83.5473 115.322 83.3491 115.303 83.1942 115.497C82.9502 115.792 80.7499 117.334 78.7765 118.568C78.1975 118.931 77.6432 119.264 77.1734 119.529C76.9945 119.615 76.8167 119.704 76.6422 119.8C76.6146 119.815 76.5917 119.833 76.5684 119.851C76.244 120.013 76.0016 120.108 75.8828 120.109C75.7044 120.111 75.5618 120.254 75.5634 120.433C75.5635 120.61 75.7087 120.754 75.887 120.752C75.8886 120.752 75.8886 120.752 75.8907 120.751C76.1783 120.746 76.4627 120.789 76.7253 120.908C76.8781 120.977 77.0601 120.98 77.2514 120.876C78.2749 120.308 79.3734 119.896 80.4074 119.35C80.8587 119.111 81.2668 118.81 81.6609 118.487C81.2994 119.391 80.8078 120.253 80.4218 121.139C80.3334 121.344 80.2561 121.551 80.1804 121.759C79.7745 122.621 79.3881 123.453 79.068 124.168C78.9123 124.432 78.7646 124.703 78.6563 124.998C78.6297 125.072 78.6237 125.147 78.6303 125.22C78.6237 125.291 78.6437 125.35 78.6803 125.4C78.826 125.714 79.2417 125.923 79.5534 125.701C80.2926 125.178 80.6308 124.416 81.1205 123.677C81.2429 123.492 81.3664 123.309 81.4899 123.127C81.608 123.289 81.7985 123.405 81.9891 123.386C82.3205 123.352 82.6108 123.26 82.8747 123.13C82.9459 123.287 83.0808 123.413 83.2644 123.472C83.8804 123.67 84.403 123.388 84.9384 123.115C84.9695 123.177 85.0251 123.227 85.1126 123.265C85.1603 123.285 85.2005 123.296 85.2374 123.301C85.6197 123.405 86.787 123.685 87.1573 123.304C87.2055 123.318 87.2561 123.328 87.3114 123.33C89.1203 123.421 90.9044 123.569 92.7159 123.835C93.6776 123.976 94.7101 124.136 95.605 124.54C95.7844 124.54 95.9802 124.544 95.6219 124.547C95.3256 124.541 95.4098 124.54 95.5476 124.539C93.8281 124.358 89.8537 124.268 88.0638 124.322C87.2524 124.347 86.433 124.392 85.6283 124.462C84.1448 124.59 84.5312 124.458 83.2806 124.778C83.0685 124.831 82.8813 124.956 82.8246 125.342C82.6941 125.837 83.0568 126.137 83.6788 126.06C87.1325 125.631 85.1736 125.857 88.2965 125.588C90.0006 125.44 91.8451 125.551 93.5584 125.563C94.3671 125.569 95.0793 125.644 95.8747 125.787C96.8433 125.962 97.2697 126.181 97.9884 126.268C98.4203 126.32 98.6395 125.843 98.5869 125.494Z" fill="#5B89C7"/>
<path d="M44.438 107.728C44.2753 107.313 44.0343 106.986 43.7998 106.822C43.7868 106.536 43.6373 106.156 43.3747 105.798C43.1104 105.44 42.7928 105.185 42.5232 105.089C42.4367 104.814 42.1941 104.487 41.8466 104.211C41.4996 103.933 41.1257 103.768 40.8401 103.745C40.6858 103.503 40.3677 103.25 39.9599 103.072C39.5521 102.893 39.1495 102.832 38.8669 102.883C38.654 102.689 38.2812 102.527 37.8417 102.46C37.4023 102.394 36.9979 102.438 36.7366 102.56C36.4816 102.428 36.0786 102.368 35.636 102.417C35.1933 102.467 34.814 102.615 34.5954 102.801C34.3149 102.739 33.9101 102.785 33.4963 102.948C33.081 103.111 32.7544 103.352 32.5903 103.586C32.3038 103.599 31.924 103.749 31.5662 104.011C31.208 104.276 30.9532 104.593 30.8566 104.863C30.5819 104.949 30.2548 105.192 29.9786 105.539C29.7007 105.886 29.5365 106.26 29.5132 106.546C29.2713 106.7 29.0182 107.018 28.8399 107.426C28.6615 107.834 28.5998 108.236 28.6507 108.519C28.4567 108.732 28.2946 109.105 28.2283 109.544C28.162 109.984 28.2062 110.388 28.3282 110.649C28.196 110.904 28.1359 111.307 28.1855 111.75C28.235 112.193 28.3829 112.572 28.5689 112.791C28.5071 113.071 28.5528 113.476 28.716 113.89C28.8787 114.305 29.1198 114.632 29.3542 114.796C29.3673 115.082 29.5167 115.462 29.7794 115.82C30.0436 116.178 30.3613 116.433 30.6308 116.529C30.7173 116.804 30.96 117.131 31.3075 117.407C31.6545 117.685 32.0283 117.85 32.3139 117.873C32.4682 118.115 32.7864 118.368 33.1942 118.546C33.602 118.725 34.0045 118.786 34.2872 118.735C34.5001 118.929 34.8729 119.091 35.3123 119.158C35.7518 119.224 36.1561 119.18 36.4175 119.058C36.6724 119.19 37.0754 119.25 37.5181 119.201C37.9607 119.151 38.34 119.003 38.5587 118.817C38.8392 118.879 39.244 118.833 39.6577 118.67C40.073 118.507 40.3996 118.266 40.5638 118.032C40.8503 118.019 41.2301 117.869 41.5878 117.607C41.9461 117.342 42.2008 117.025 42.2975 116.755C42.5721 116.669 42.8992 116.426 43.1755 116.079C43.4533 115.732 43.6176 115.358 43.6408 115.072C43.8827 114.918 44.1358 114.6 44.3142 114.192C44.4925 113.784 44.5542 113.382 44.5033 113.099C44.6973 112.886 44.8595 112.513 44.9257 112.074C44.992 111.634 44.9479 111.23 44.8258 110.969C44.958 110.714 45.0181 110.311 44.9685 109.868C44.919 109.425 44.7712 109.046 44.5852 108.827C44.6453 108.546 44.5996 108.142 44.438 107.728ZM39.3022 117.774C35.455 119.281 31.1145 117.384 29.6077 113.536C28.101 109.689 29.9983 105.349 33.8455 103.842C37.6927 102.335 42.0332 104.232 43.54 108.08C45.0467 111.927 43.1494 116.267 39.3022 117.774Z" fill="#D7DDE9"/>
<path d="M34.0301 104.313C30.4431 105.718 28.6746 109.764 30.0783 113.351C31.4835 116.938 35.5297 118.707 39.1163 117.303C42.7033 115.898 44.4717 111.851 43.0681 108.265C41.6633 104.676 37.6171 102.908 34.0301 104.313ZM38.4329 115.556C35.8098 116.584 32.8522 115.291 31.8248 112.668C30.7973 110.045 32.0903 107.087 34.7134 106.06C37.3366 105.032 40.2941 106.325 41.3216 108.948C42.3495 111.57 41.056 114.529 38.4329 115.556Z" fill="#D7DDE9"/>
<path d="M35.5347 108.156C36.5482 107.759 37.6538 108.003 38.407 108.692L39.9451 108.09C38.8063 106.617 36.7917 106.003 34.9711 106.717C33.1488 107.431 32.0878 109.248 32.2523 111.104L33.7903 110.502C33.8756 109.484 34.5212 108.553 35.5347 108.156Z" fill="#D7DDE9"/>
<path d="M37.6141 113.458C36.6006 113.855 35.495 113.612 34.7418 112.923L33.2037 113.525C34.3425 114.997 36.3571 115.611 38.1777 114.897C40 114.183 41.061 112.367 40.8966 110.511L39.3585 111.113C39.2727 112.132 38.6276 113.061 37.6141 113.458Z" fill="#D7DDE9"/>
<path opacity="0.29" d="M137.835 32.3097L138.214 31.1001L137.487 30.9107L137.157 32.0972L137.835 32.3097Z" fill="#9D9D9C"/>
<g opacity="0.61">
<path opacity="0.61" d="M70.4451 106.333C70.4349 106.321 70.4246 106.309 70.416 106.298C70.4462 106.335 70.4768 106.371 70.5085 106.409C71.134 107.161 71.6798 107.817 71.9981 108.197C72.1261 108.35 72.2159 108.459 72.2589 108.511C72.2794 108.534 72.2891 108.548 72.2891 108.548C72.2713 108.527 71.4458 107.534 70.4451 106.333Z" fill="#575756"/>
<path opacity="0.61" d="M57.2315 122.588C57.2072 122.559 57.2315 122.588 57.2315 122.588V122.588Z" fill="#575756"/>
<path opacity="0.61" d="M60.4551 114.643C60.4777 114.671 60.5008 114.697 60.5223 114.723C60.5008 114.697 60.4782 114.669 60.4551 114.643Z" fill="#575756"/>
<path opacity="0.54" d="M27.4602 136.876C27.0502 137.217 26.6464 137.554 26.2499 137.885L25.3485 138.636C25.348 138.637 25.3459 138.639 25.3459 138.639L25.3433 138.641C25.3387 138.645 25.334 138.649 25.3314 138.651C25.325 138.644 25.3201 138.637 25.3201 138.637C25.3196 138.639 25.317 138.642 25.3145 138.644L25.3129 138.644C25.2975 138.665 25.1779 138.774 24.9325 138.995C24.7155 139.187 24.4555 139.416 24.2567 139.594C23.9777 139.845 23.6091 140.181 23.3348 140.433C23.2122 140.546 23.0559 140.689 22.9224 140.815C22.3753 141.314 21.7205 141.913 20.95 142.625C18.2579 145.196 17.3157 146.372 16.9705 146.862L16.9463 146.833L16.937 146.841C16.8924 146.878 16.8532 146.919 16.816 146.96C16.8078 146.97 16.8 146.978 16.7918 146.987C16.7557 147.03 16.7244 147.074 16.6963 147.119C16.6927 147.125 16.6891 147.131 16.6856 147.137C16.6595 147.181 16.6362 147.228 16.6149 147.273C16.6129 147.28 16.6093 147.286 16.6073 147.292C16.5862 147.343 16.5692 147.397 16.556 147.45C16.554 147.457 16.5541 147.462 16.5521 147.468C16.5257 147.58 16.5157 147.696 16.522 147.809C16.5226 147.813 16.5221 147.814 16.5227 147.818C16.5306 147.937 16.5553 148.053 16.5984 148.166C16.565 148.211 16.5369 148.257 16.5098 148.304C16.5053 148.313 16.4991 148.321 16.4945 148.33C16.4696 148.377 16.4483 148.422 16.4302 148.469C16.4277 148.477 16.4252 148.485 16.4212 148.492C16.4041 148.536 16.3901 148.58 16.3794 148.626C16.3779 148.63 16.3764 148.635 16.3749 148.64C16.3637 148.687 16.3577 148.734 16.3537 148.78C16.3523 148.79 16.353 148.799 16.3516 148.809C16.3493 148.855 16.3491 148.9 16.3525 148.945C16.3526 148.95 16.3543 148.956 16.3544 148.961C16.3588 149.003 16.3674 149.042 16.3776 149.082C16.3804 149.09 16.3816 149.097 16.3828 149.104C16.3961 149.145 16.4116 149.185 16.4312 149.222C16.4355 149.231 16.4399 149.239 16.4448 149.246C16.466 149.284 16.4908 149.321 16.5183 149.356L17.4962 150.513L18.4741 151.67C18.7348 151.979 19.2205 152.014 19.6611 151.793C20.0813 152.043 20.6306 152.015 21.0249 151.68L21.0342 151.673L21.0025 151.635C21.1246 151.579 21.2701 151.504 21.4352 151.411C21.5622 151.34 21.7028 151.258 21.8532 151.168C22.6608 150.699 23.9331 149.888 25.8613 148.486C27.6882 147.156 28.8729 146.246 29.5935 145.677C29.6853 145.607 29.7756 145.536 29.8607 145.47C30.133 145.257 30.3701 145.068 30.565 144.908L31.4664 144.157L37.0287 139.525L35.0933 138.864L27.4602 136.876Z" fill="#575756"/>
<path opacity="0.52" d="M81.5673 97.1748C81.5505 97.1504 81.5323 97.1308 81.5232 97.1209C81.5172 97.1121 81.5059 97.0981 81.492 97.0815C81.4844 97.0722 81.4748 97.0639 81.4657 97.0541C81.4213 97.0123 81.3586 96.9787 81.2758 97.026C81.2758 97.026 81.2742 97.0255 81.2737 97.027C81.0698 97.127 80.8508 97.2083 80.5943 97.2813C80.2939 97.3667 79.9448 97.4403 79.5048 97.5204C79.4235 97.535 79.3386 97.5502 79.2515 97.5665C78.9012 97.6275 78.4967 97.6943 78.0257 97.7733C77.9082 97.7922 77.7865 97.8133 77.6596 97.8346C77.573 97.8493 77.4923 97.8676 77.4121 97.8843C77.3933 97.8888 77.3749 97.8918 77.3577 97.8968C77.2806 97.9145 77.2068 97.9332 77.1345 97.9524C77.1324 97.9535 77.1309 97.953 77.1304 97.9546C77.1283 97.9557 77.1267 97.9552 77.1262 97.9568C77.0539 97.976 76.9859 97.9983 76.92 98.0194C76.9064 98.0239 76.8907 98.0294 76.8771 98.0339C76.8343 98.0483 76.793 98.0633 76.7517 98.0782C76.7281 98.0866 76.7062 98.0954 76.6827 98.1037C76.6806 98.1048 76.6769 98.1054 76.6748 98.1065C76.6351 98.1219 76.5954 98.1374 76.5584 98.1554C76.5401 98.1636 76.5219 98.1718 76.5036 98.18C76.4916 98.185 76.4812 98.1904 76.4692 98.1954C76.4159 98.2206 76.3643 98.2462 76.3143 98.2724C76.3122 98.2735 76.3101 98.2746 76.308 98.2756C76.3059 98.2767 76.3059 98.2767 76.3039 98.2778C76.3013 98.2805 76.2976 98.2811 76.295 98.2838C76.245 98.3099 76.1981 98.3371 76.1524 98.3663C76.1524 98.3663 76.1519 98.3679 76.1503 98.3674C76.1414 98.3734 76.1331 98.3777 76.1243 98.3837C76.0962 98.401 76.0676 98.4199 76.0395 98.4373C76.0197 98.4503 76.002 98.4621 75.9839 98.4756C75.9813 98.4783 75.9792 98.4794 75.975 98.4816C75.9366 98.5096 75.8987 98.5361 75.8618 98.5646C75.8577 98.5668 75.8546 98.5711 75.8504 98.5733C75.8437 98.5781 75.8385 98.5835 75.8317 98.5883C75.7944 98.6185 75.7571 98.6486 75.7229 98.6797C75.7182 98.6835 75.7152 98.6878 75.7105 98.6915C75.7084 98.6926 75.7058 98.6953 75.7032 98.698C75.667 98.7302 75.6323 98.7629 75.5977 98.7956C75.5956 98.7967 75.5951 98.7983 75.593 98.7994C75.5883 98.8032 75.5853 98.8074 75.5806 98.8112C75.5609 98.8295 75.5429 98.8482 75.5243 98.8685C75.5067 98.8857 75.4886 98.9044 75.4721 98.9236C75.4716 98.9252 75.4696 98.9263 75.4691 98.9279C75.4634 98.9349 75.4582 98.9402 75.451 98.9467C75.4216 98.9793 75.3927 99.0103 75.3633 99.0429C75.3628 99.0445 75.3607 99.0456 75.3607 99.0456C75.2849 99.1317 75.2118 99.2203 75.1403 99.3095C75.0744 99.3917 75.0101 99.4744 74.9438 99.5582C74.9355 99.5678 74.9289 99.578 74.9206 99.5876C74.8826 99.6367 74.8434 99.6837 74.8038 99.7323C74.8012 99.7349 74.7986 99.7376 74.7956 99.7419C74.7533 99.7931 74.7111 99.8444 74.6673 99.8952C74.6652 99.8963 74.6642 99.8994 74.6622 99.9005C74.6163 99.9524 74.5704 100.004 74.5229 100.056C73.1026 101.584 70.8546 103.606 70.313 104.088C70.24 104.154 70.1991 104.19 70.1991 104.19C70.0066 103.959 69.8468 103.768 69.7302 103.628C69.5988 103.463 69.524 103.368 69.524 103.368C69.5009 103.342 69.4913 103.334 69.4689 103.321C69.4626 103.319 69.4567 103.316 69.4504 103.314C69.4404 103.312 69.4272 103.31 69.4166 103.31C69.4056 103.312 69.3946 103.314 69.3842 103.319C69.3738 103.325 69.3628 103.332 69.3535 103.339C69.3514 103.34 69.3509 103.342 69.3488 103.343L69.3468 103.344C69.3343 103.356 69.3224 103.366 69.3054 103.387C69.2695 103.435 69.2472 103.484 69.2346 103.513C69.0799 103.806 68.6806 104.185 68.6588 104.204C68.6215 104.234 68.441 104.376 68.0917 104.645C67.9584 104.748 67.8001 104.869 67.6185 105.009C67.5266 105.08 67.428 105.155 67.3248 105.235C67.2723 105.274 67.2189 105.317 67.1623 105.358C67.0502 105.443 66.9329 105.534 66.8094 105.627C66.6854 105.723 66.553 105.823 66.4155 105.928C66.2764 106.032 66.1316 106.144 65.979 106.258C65.8259 106.374 65.666 106.495 65.4994 106.62C65.1656 106.873 64.8012 107.146 64.4083 107.443C64.2121 107.59 64.007 107.744 63.7947 107.904L63.7952 107.903C63.5829 108.063 63.3784 108.215 63.18 108.358C60.2182 110.533 58.916 111.145 58.8441 111.18L58.8452 111.182C58.8431 111.183 58.8389 111.185 58.8368 111.186C58.8342 111.189 58.8301 111.191 58.827 111.195C58.8006 111.218 58.7715 111.239 58.743 111.263C58.5603 111.401 58.3329 111.542 58.1486 111.68C58.1149 111.704 58.0822 111.731 58.0521 111.754C57.646 112.077 57.2403 112.398 56.8363 112.719C56.8363 112.719 53.7159 115.233 52.134 116.465L50.8277 117.434C45.973 121.477 40.0463 126.41 34.4648 131.058C34.413 131.101 34.356 131.149 34.2974 131.197C34.2595 131.229 34.2217 131.261 34.1839 131.293C34.0232 131.427 33.8558 131.566 33.7168 131.681C31.5398 133.494 29.4312 135.249 27.4636 136.888L35.0941 138.879L37.0295 139.539L38.9375 137.951L39.2133 137.722L56.0448 123.71L57.236 122.601C57.236 122.601 57.2118 122.573 57.236 122.601C58.733 121.268 61.7684 118.653 61.7726 118.656L62.9417 117.634C62.9417 117.634 62.9417 117.634 62.9422 117.633L63.6471 116.958C63.6533 116.949 63.6743 116.921 63.7103 116.873C63.7283 116.849 63.7514 116.82 63.7781 116.784C63.8048 116.749 63.8362 116.71 63.8728 116.666C63.8903 116.643 63.9098 116.62 63.9299 116.595C63.9531 116.566 63.9783 116.535 64.0056 116.504C64.0499 116.451 64.0968 116.396 64.1488 116.336C64.2061 116.27 64.2668 116.198 64.3344 116.122C64.4019 116.046 64.4746 115.964 64.5546 115.875C64.7522 115.657 64.9885 115.403 65.2654 115.115C65.3712 115.005 65.4844 114.889 65.6042 114.768C65.6714 114.698 65.7417 114.63 65.813 114.558C65.8791 114.492 65.9474 114.424 66.0161 114.355C66.3681 114.005 66.7683 113.618 67.2205 113.193C67.3907 113.034 67.5682 112.868 67.7529 112.696C67.7576 112.692 67.7622 112.688 67.7653 112.684C67.964 112.5 68.1555 112.323 68.3413 112.153C68.6058 111.91 68.8537 111.681 69.0902 111.466C69.0975 111.459 69.1026 111.454 69.1099 111.448C70.5534 110.124 71.4614 109.306 71.9227 108.891C71.9492 108.868 71.9735 108.846 71.9957 108.825C72.134 108.701 72.223 108.623 72.2665 108.584C72.281 108.571 72.2904 108.564 72.295 108.56C72.295 108.56 72.2837 108.546 72.2649 108.523C72.2203 108.47 72.1321 108.363 72.0041 108.209C71.6878 107.828 71.142 107.172 70.5145 106.421C70.4827 106.383 70.4521 106.347 70.422 106.31C70.4322 106.322 70.4408 106.333 70.451 106.345C71.4513 107.548 72.2773 108.539 72.295 108.56C72.3179 108.543 72.7629 108.219 73.0784 108.119C73.0899 108.115 73.103 108.112 73.1161 108.11C73.1276 108.106 73.1428 108.102 73.1564 108.098C73.17 108.093 73.1836 108.089 73.1961 108.082C73.2102 108.076 73.2227 108.07 73.2336 108.063C73.2445 108.056 73.2555 108.049 73.2653 108.04C73.2746 108.032 73.2829 108.022 73.2906 108.014C73.2973 108.004 73.3039 107.994 73.3053 107.984C73.3088 107.973 73.3086 107.963 73.3089 107.95C73.3077 107.938 73.3048 107.925 73.2967 107.912C73.2906 107.898 73.2809 107.884 73.2685 107.868C73.2583 107.856 72.9722 107.512 72.5366 106.988C72.5366 106.988 75.3802 104.796 77.3953 103.517C78.3502 102.901 79.3039 102.745 80.0148 101.088C80.0213 101.073 80.0274 101.059 80.034 101.044C80.0663 100.968 80.0975 100.891 80.1286 100.808C80.1291 100.807 80.1291 100.807 80.1296 100.805C80.4375 99.9621 80.6612 99.3262 80.8573 98.8228C80.9126 98.6798 80.9665 98.5468 81.019 98.4238C81.0715 98.3008 81.1231 98.1862 81.1738 98.08C81.301 97.8131 81.4302 97.5956 81.576 97.3972C81.589 97.3839 81.5971 97.369 81.6037 97.3536C81.6239 97.278 81.5975 97.2174 81.5673 97.1748ZM58.8442 111.185C58.8468 111.188 58.8495 111.19 58.8544 111.197C58.8495 111.19 58.8468 111.188 58.8442 111.185ZM60.4554 114.643C60.478 114.671 60.5011 114.697 60.5227 114.723C60.5011 114.697 60.4785 114.669 60.4554 114.643ZM63.2162 116.436C63.263 116.492 63.3087 116.547 63.348 116.594C63.3087 116.547 63.2646 116.493 63.2162 116.436Z" fill="#575756"/>
</g>
<path d="M71.7459 103.458C71.6767 103.384 71.0473 102.589 70.5977 102.049C70.5977 102.049 73.3046 99.6584 74.9283 97.9097C75.127 97.6983 75.2941 97.4822 75.4623 97.2682C75.9911 96.5989 76.5248 95.9695 78.0604 95.6977C80.0814 95.3566 80.9669 95.2402 81.674 94.8918C81.8047 94.8142 81.8992 94.9519 81.9235 94.9857C81.9509 95.0151 82.0688 95.134 81.9698 95.2495C81.4993 95.883 81.2247 96.7313 80.5218 98.657C79.9752 100.117 79.2603 100.53 78.5062 100.928C78.2659 101.055 78.023 101.179 77.7801 101.336C75.7661 102.618 72.9236 104.845 72.9236 104.845C72.5697 104.417 71.8057 103.54 71.7459 103.458Z" fill="url(#paint0_linear)"/>
<path d="M73.6286 105.913C73.6161 105.92 73.6036 105.926 73.5911 105.933C73.5786 105.94 73.565 105.944 73.5514 105.948C73.5378 105.953 73.5242 105.957 73.5111 105.96C73.498 105.963 73.4844 105.968 73.4734 105.969C73.1563 106.069 72.7129 106.393 72.69 106.411C72.6723 106.389 71.8463 105.398 70.846 104.196C69.8554 103.007 69.0638 102.056 69.0638 102.056C69.0856 102.037 69.4844 101.66 69.6396 101.365C69.6522 101.336 69.6745 101.287 69.7104 101.239C69.7274 101.218 69.7383 101.206 69.7518 101.196C69.759 101.19 69.772 101.182 69.7824 101.176C69.7929 101.171 69.8039 101.169 69.8149 101.167C69.8254 101.167 69.8391 101.168 69.8486 101.171C69.855 101.173 69.8613 101.175 69.8672 101.178C69.8911 101.191 69.8986 101.2 69.9217 101.227C69.9217 101.227 70.7375 102.206 71.7593 103.434C72.7929 104.675 73.6437 105.698 73.6614 105.72C73.6743 105.734 73.6835 105.749 73.6896 105.763C73.6956 105.777 73.7001 105.791 73.7018 105.802C73.7031 105.815 73.7017 105.825 73.6982 105.836C73.6947 105.847 73.6902 105.856 73.6835 105.866C73.6769 105.876 73.6691 105.884 73.6582 105.891C73.652 105.9 73.6411 105.907 73.6286 105.913Z" fill="#184760"/>
<path d="M58.4459 109.61C58.4459 109.61 59.5375 110.922 60.8497 112.497C62.1758 114.09 63.3132 115.455 63.3358 115.483L64.0408 114.808C64.0182 114.78 62.9238 113.466 61.5977 111.874C60.2855 110.298 59.2384 109.039 59.2384 109.039C59.014 109.227 58.6698 109.424 58.4459 109.61Z" fill="#EDE8E5"/>
<path d="M64.0419 114.808C64.0408 114.806 64.037 114.802 64.0306 114.794C64.023 114.785 64.0117 114.771 63.9951 114.752C63.9467 114.695 63.8633 114.594 63.7477 114.456C63.4638 114.116 62.9954 113.553 62.4318 112.876C61.8512 112.187 60.4049 110.466 60.3194 110.338C59.7951 109.708 59.4149 109.253 59.2858 109.097C59.2541 109.059 59.2364 109.038 59.2364 109.038C59.3099 109.004 60.61 108.393 63.5723 106.217C63.7696 106.071 63.9742 105.919 64.1875 105.761C64.3998 105.601 64.6044 105.449 64.8011 105.3C65.1956 105.003 65.5584 104.73 65.8922 104.477C66.0588 104.352 66.2192 104.229 66.3718 104.115C66.5249 103.999 66.6692 103.889 66.8083 103.785C66.9474 103.68 67.0782 103.58 67.2022 103.484C67.3262 103.389 67.4451 103.299 67.5551 103.215C67.6101 103.173 67.6651 103.131 67.7176 103.092C67.8229 103.011 67.9194 102.937 68.0113 102.866C68.195 102.725 68.3517 102.603 68.4845 102.502C68.8504 102.219 69.033 102.076 69.0584 102.056C69.0584 102.056 69.0595 102.058 69.0611 102.059C69.0879 102.09 69.4703 102.55 70.0237 103.215L70.0463 103.243C70.3033 103.552 70.5948 103.901 70.9035 104.273C71.5289 105.025 72.0748 105.681 72.3931 106.061C72.5211 106.215 72.6109 106.323 72.6539 106.375C72.6744 106.399 72.6841 106.412 72.6841 106.412C72.6794 106.416 72.6701 106.424 72.6556 106.437C72.6121 106.475 72.523 106.554 72.3848 106.678C72.3609 106.698 72.3366 106.72 72.3118 106.744C71.8489 107.158 70.9424 107.976 69.4989 109.3C69.4917 109.306 69.4865 109.312 69.4793 109.318C69.2443 109.534 68.9948 109.762 68.7304 110.006C68.5461 110.176 68.3531 110.353 68.1543 110.536C68.1497 110.54 68.145 110.544 68.1419 110.548C67.9577 110.719 67.7787 110.884 67.6095 111.045C67.1573 111.47 66.7587 111.858 66.4051 112.207C66.3348 112.276 66.2682 112.344 66.202 112.41C66.1307 112.482 66.0615 112.553 65.9933 112.62C65.8734 112.741 65.7603 112.858 65.6544 112.967C65.3776 113.255 65.1412 113.509 64.9436 113.728C64.8642 113.814 64.791 113.898 64.7234 113.974C64.6559 114.051 64.5935 114.122 64.5379 114.188C64.4858 114.248 64.4384 114.305 64.3946 114.356C64.3673 114.387 64.3416 114.419 64.3189 114.447C64.2989 114.472 64.2793 114.496 64.2618 114.518C64.2253 114.562 64.1934 114.603 64.1672 114.637C64.1404 114.672 64.1178 114.7 64.0993 114.725C64.0691 114.772 64.048 114.8 64.0419 114.808Z" fill="#184760"/>
<path d="M70.6076 102.037C70.6076 102.037 73.3026 99.6562 74.9262 97.9075C75.7475 97.0336 76.035 96.055 78.0583 95.6955C80.0793 95.3544 80.9648 95.238 81.6719 94.8896C81.8026 94.812 81.8971 94.9497 81.9214 94.9834C81.9488 95.0129 82.0667 95.1318 81.9678 95.2472C81.4972 95.8808 81.2227 96.7291 80.5198 98.6548C79.7995 100.58 78.7944 100.717 77.7876 101.365C75.7735 102.646 72.9288 104.837 72.9288 104.837C72.5744 104.41 71.8021 103.537 71.7422 103.456C71.6757 103.384 71.0571 102.577 70.6076 102.037Z" fill="#EDE8E5"/>
<path d="M76.5588 99.4839C76.6856 99.6352 76.9107 99.6569 77.062 99.53C77.215 99.4036 77.2351 99.1781 77.1082 99.0268C76.9818 98.8738 76.7563 98.8537 76.6049 98.9806C76.4536 99.1075 76.4319 99.3325 76.5588 99.4839Z" fill="#057BAF"/>
<path d="M81.9219 94.9835L76.8339 99.2201L76.8572 99.257L81.9364 94.9985L81.9219 94.9835Z" fill="#057BAF"/>
<path d="M56.4411 121.559C56.4347 121.552 56.4411 121.559 56.4411 121.559L57.6323 120.451C57.6323 120.451 57.6081 120.422 57.6323 120.451C59.1292 119.117 62.1646 116.502 62.1673 116.504L63.3363 115.483C63.3363 115.483 63.3363 115.483 63.3368 115.482C63.3126 115.453 62.1995 114.116 60.8496 112.493C59.5133 110.889 58.4469 109.608 58.4469 109.608C58.0407 109.931 57.6351 110.252 57.231 110.573C57.231 110.573 54.1107 113.087 52.5288 114.319L51.2225 115.288C43.8491 121.427 34.0198 129.611 26.6449 135.749L25.7435 136.501L25.751 136.51C25.7457 136.505 25.7435 136.501 25.7435 136.501C25.7383 136.506 25.7311 136.512 25.7243 136.517C25.7179 136.51 25.713 136.503 25.713 136.503C25.6976 136.525 25.578 136.634 25.3327 136.855C25.1157 137.046 24.8557 137.275 24.6569 137.454C24.3778 137.704 24.0093 138.04 23.735 138.292C23.6123 138.406 23.456 138.548 23.3225 138.674C22.7754 139.174 22.1207 139.772 21.3501 140.484C17.5594 144.102 17.2377 144.962 17.1678 145.024C17.1689 145.026 17.178 145.036 17.1904 145.052C17.1345 145.191 17.0962 145.341 17.086 145.451C17.0726 145.583 17.0679 145.759 17.0771 145.891C17.0879 146.024 17.1221 146.198 17.1545 146.329C17.1873 146.458 17.2419 146.628 17.2941 146.751C17.3189 146.811 17.3509 146.892 17.3798 146.95C17.4334 147.063 17.5108 147.211 17.569 147.32C17.6273 147.429 17.8557 147.812 18.1327 148.147C18.1402 148.156 18.1644 148.185 18.2004 148.226C18.2197 148.247 18.2455 148.276 18.2649 148.298C18.2895 148.325 18.3243 148.358 18.347 148.387C18.4086 148.451 18.4815 148.525 18.565 148.603C18.6485 148.681 18.7421 148.767 18.843 148.851C18.9407 148.928 19.0725 149.031 19.1733 149.104C19.2905 149.186 19.4156 149.265 19.5447 149.337C19.6739 149.409 19.8092 149.472 19.9479 149.525C20.0867 149.577 20.229 149.618 20.3747 149.643C20.5203 149.667 20.6662 149.675 20.8144 149.664C20.8769 149.659 20.9414 149.648 21.0043 149.636C21.021 149.655 21.0349 149.672 21.0349 149.672C21.0531 149.658 21.1393 149.623 21.3161 149.537C21.4566 149.478 21.6286 149.391 21.8354 149.276C21.9625 149.204 22.1031 149.123 22.2535 149.032C23.0611 148.563 24.3333 147.752 26.2615 146.35C28.0885 145.021 29.2732 144.111 29.9937 143.542C30.0856 143.471 30.1758 143.4 30.2609 143.334C30.5333 143.122 30.7703 142.933 30.9653 142.772L31.8666 142.021L56.4411 121.559ZM26.6885 135.805L26.6492 135.758C26.6568 135.767 26.6692 135.783 26.6885 135.805Z" fill="#184760"/>
<path d="M20.3643 149.453L17.2484 145.762L17.239 145.77C16.741 146.191 16.597 146.839 16.9174 147.219L18.8727 149.535C19.1931 149.914 19.857 149.881 20.355 149.461L20.3643 149.453Z" fill="#EDE8E5"/>
<path d="M21.4234 149.544C20.9254 149.965 20.1798 149.902 19.7605 149.405L17.195 146.366C16.7741 145.868 16.8369 145.122 17.3344 144.703L17.3437 144.696L19.6135 147.382L32.1257 136.817L32.774 137.585L20.2618 148.15L21.4327 149.537L21.4234 149.544Z" fill="#EDE8E5"/>
<path d="M34.1146 129.533C34.1146 129.533 35.2531 130.901 36.6792 132.613C38.1205 134.344 39.3084 135.771 39.3337 135.802L40.0817 135.179C40.0564 135.148 38.8684 133.721 37.4272 131.99C36.001 130.277 34.8626 128.909 34.8626 128.909C34.6402 129.096 34.3406 129.346 34.1146 129.533Z" fill="#EDE8E5"/>
<path d="M32.1217 136.812L19.6172 147.371L19.9413 147.755L32.4458 137.196L32.1217 136.812Z" fill="#DADADA"/>
<g opacity="0.51">
<path opacity="0.51" d="M72.4044 106.055C72.086 105.674 71.5402 105.018 70.9148 104.266C70.883 104.228 70.8524 104.193 70.8223 104.155C70.8325 104.167 70.8427 104.179 70.8513 104.191C71.4999 104.969 72.0752 105.659 72.4044 106.055Z" fill="#4664AD"/>
<path opacity="0.51" d="M59.2922 109.093C59.2605 109.055 59.2427 109.034 59.2427 109.034C59.3163 108.999 60.6164 108.388 63.5787 106.212C63.776 106.067 63.9805 105.914 64.1939 105.756L64.1934 105.758C64.4057 105.598 64.6102 105.446 64.807 105.297C65.2015 105 65.5643 104.727 65.898 104.474C66.0647 104.348 66.2245 104.228 66.3776 104.112C66.5308 103.996 66.675 103.886 66.8142 103.781C66.9533 103.677 67.084 103.577 67.2097 103.482C67.3337 103.386 67.4525 103.296 67.5626 103.212C67.6176 103.17 67.6726 103.128 67.725 103.089C67.8304 103.009 67.9269 102.934 68.0187 102.864C68.2024 102.723 68.3591 102.601 68.492 102.5C68.8578 102.217 69.0404 102.074 69.0658 102.054C69.0658 102.054 69.0669 102.056 69.0685 102.056C69.0954 102.087 69.4777 102.547 70.0311 103.212L70.0537 103.24C70.2844 103.516 70.5437 103.829 70.819 104.158L61.6012 111.882C61.007 111.175 60.3789 110.42 60.3227 110.338C59.8015 109.704 59.4213 109.248 59.2922 109.093Z" fill="#4664AD"/>
<path opacity="0.51" d="M69.0717 102.05C69.0934 102.031 69.4922 101.653 69.6474 101.359C69.66 101.329 69.6823 101.281 69.7183 101.233C69.7352 101.212 69.7461 101.2 69.7596 101.19C69.7668 101.183 69.7798 101.175 69.7903 101.17C69.8007 101.164 69.8117 101.163 69.8227 101.161C69.8332 101.161 69.8469 101.161 69.8564 101.164C69.8628 101.166 69.8691 101.168 69.875 101.172C69.8989 101.185 69.9064 101.194 69.93 101.219C69.93 101.219 70.706 102.208 71.7127 103.418L70.8232 104.154C69.8466 102.981 69.0717 102.05 69.0717 102.05Z" fill="#4664AD"/>
<path opacity="0.51" d="M17.3739 144.718C17.7192 144.228 18.6618 143.05 21.3534 140.48C22.1255 139.769 22.7787 139.17 23.3258 138.67C23.4609 138.545 23.6156 138.402 23.7382 138.289C24.0141 138.037 24.3827 137.701 24.6601 137.45C24.8595 137.27 25.1194 137.041 25.3359 136.851C25.5813 136.63 25.7025 136.521 25.7163 136.499C25.7163 136.499 25.7201 136.504 25.7276 136.513C25.7343 136.509 25.74 136.502 25.7468 136.497L26.6481 135.746C28.948 133.831 31.4832 131.721 34.1133 129.531C34.1155 129.535 35.3308 130.992 36.7543 132.702C36.7795 132.732 36.7218 132.683 36.7543 132.702L19.4626 147.192L17.3739 144.718Z" fill="#4664AD"/>
<path opacity="0.51" d="M37.4284 131.989C36.0038 130.277 34.8649 128.91 34.8638 128.908C40.4468 124.26 46.3725 119.326 51.2267 115.284L52.533 114.315C54.1144 113.085 57.2352 110.569 57.2352 110.569C57.6409 110.248 58.047 109.926 58.4511 109.605C58.4511 109.605 59.5175 110.885 60.8538 112.49C60.8565 112.492 60.8587 112.496 60.8614 112.499L37.4978 132.073C37.4752 132.045 37.4521 132.019 37.4284 131.989Z" fill="#4664AD"/>
</g>
<path d="M60.8379 112.506C59.5257 110.93 58.4449 109.611 58.4449 109.611C58.6694 109.424 59.0022 109.235 59.2266 109.048C59.2266 109.048 60.2737 110.307 61.5858 111.882C61.5982 111.899 61.5734 111.866 61.5858 111.882L60.8472 112.498C60.8337 112.48 60.8534 112.523 60.8379 112.506Z" fill="#DADADA"/>
<path d="M36.683 132.618C35.2568 130.906 34.1146 129.533 34.1146 129.533C34.339 129.345 34.6381 129.098 34.8641 128.91C34.8641 128.91 36.008 130.283 37.4326 131.996C37.4465 132.012 37.4842 132.059 37.4998 132.076L36.7556 132.704C36.7394 132.683 36.6981 132.637 36.683 132.618Z" fill="#DADADA"/>
<path d="M18.4758 147.885L17.8928 148.377L16.9149 147.22C16.6542 146.912 16.7002 146.426 16.9934 146.03C17.0398 146.149 17.105 146.263 17.1926 146.368L18.4758 147.885Z" fill="#DADADA"/>
<path d="M17.2475 145.762L17.2381 145.77C17.1438 145.848 17.0638 145.936 16.995 146.028C16.8189 145.572 16.9397 145.036 17.3341 144.701L17.3434 144.694L19.3879 147.114L18.8049 147.606L17.2475 145.762Z" fill="#DADADA"/>
<path d="M17.2477 145.762L18.8068 147.607L18.4777 147.884L17.1949 146.364C17.1073 146.26 17.0421 146.145 16.9957 146.026C17.063 145.934 17.1445 145.846 17.2389 145.768L17.2477 145.762Z" fill="#DADADA"/>
<g opacity="0.5">
<path opacity="0.5" d="M76.6041 98.9804C76.4528 99.1073 76.4408 99.3179 76.5457 99.4728C76.5457 99.4728 76.5472 99.4733 76.5467 99.4749L71.7123 103.42C71.6962 103.399 71.7505 103.465 71.7456 103.458C71.6764 103.384 71.0527 102.582 70.6031 102.042C70.6031 102.042 73.3033 99.656 74.9285 97.9078C75.7498 97.0338 76.0373 96.0553 78.0606 95.6958C80.0816 95.3547 80.9655 95.2378 81.6743 94.8899C81.8044 94.8138 81.8834 94.9345 81.9238 94.9837L79.6902 96.8428L77.0961 99.0125C76.9653 98.8791 76.7482 98.8599 76.6041 98.9804Z" fill="#C6C6C6"/>
</g>
</g>
<defs>
<linearGradient id="paint0_linear" x1="82.323" y1="100.276" x2="70.0746" y2="99.2428" gradientUnits="userSpaceOnUse">
<stop offset="0.00561798" stop-color="#CBAD56"/>
<stop offset="0.00768708" stop-color="#D2B35E"/>
<stop offset="0.0132" stop-color="#E0C06E"/>
<stop offset="0.02" stop-color="#E9C97A"/>
<stop offset="0.0296" stop-color="#EFCE81"/>
<stop offset="0.0562" stop-color="#F0D083"/>
<stop offset="0.0614" stop-color="#F4D88B"/>
<stop offset="0.0729" stop-color="#F9E598"/>
<stop offset="0.0872" stop-color="#FDEFA2"/>
<stop offset="0.1072" stop-color="#FFF4A7"/>
<stop offset="0.1629" stop-color="#FFF5A9"/>
<stop offset="0.229" stop-color="#FFF4A7"/>
<stop offset="0.2528" stop-color="#FFF09F"/>
<stop offset="0.2698" stop-color="#FDE793"/>
<stop offset="0.2834" stop-color="#FADC80"/>
<stop offset="0.2921" stop-color="#F7D16F"/>
<stop offset="0.2937" stop-color="#D1AB5E"/>
<stop offset="0.296" stop-color="#A8844C"/>
<stop offset="0.2985" stop-color="#88663C"/>
<stop offset="0.3014" stop-color="#6E4F30"/>
<stop offset="0.3045" stop-color="#5B3E27"/>
<stop offset="0.3082" stop-color="#4D321F"/>
<stop offset="0.3128" stop-color="#442A1A"/>
<stop offset="0.3192" stop-color="#3E2617"/>
<stop offset="0.3371" stop-color="#3D2516"/>
<stop offset="0.3522" stop-color="#543821"/>
<stop offset="0.3733" stop-color="#70502C"/>
<stop offset="0.3972" stop-color="#8B6835"/>
<stop offset="0.4235" stop-color="#A47E3B"/>
<stop offset="0.4533" stop-color="#B99240"/>
<stop offset="0.488" stop-color="#CAA244"/>
<stop offset="0.531" stop-color="#D6AD46"/>
<stop offset="0.5912" stop-color="#DEB447"/>
<stop offset="0.7584" stop-color="#E0B647"/>
<stop offset="0.764" stop-color="#E0B647"/>
<stop offset="0.7978" stop-color="#E0B647"/>
<stop offset="0.8558" stop-color="#DEB445"/>
<stop offset="0.8767" stop-color="#D7AC3F"/>
<stop offset="0.8916" stop-color="#CB9F35"/>
<stop offset="0.9035" stop-color="#BA8D28"/>
<stop offset="0.9045" stop-color="#B98B27"/>
<stop offset="0.908" stop-color="#BB8F2E"/>
<stop offset="0.9184" stop-color="#BF983D"/>
<stop offset="0.9314" stop-color="#C39F48"/>
<stop offset="0.9495" stop-color="#C4A24E"/>
<stop offset="1" stop-color="#C5A350"/>
</linearGradient>
<clipPath id="clip0">
<rect width="127.662" height="153" fill="white" transform="translate(45.7578) rotate(17.4017)"/>
</clipPath>
</defs>
</svg>
