<svg width="186" height="129" viewBox="0 0 186 129" fill="none" xmlns="http://www.w3.org/2000/svg">
<g clip-path="url(#clip0)">
<path d="M113.625 40.5937C125.178 31.6695 141.802 33.7882 150.758 45.3413C154.815 50.6161 156.6 56.9123 156.222 63.084C156.174 64.07 156.031 65.0893 155.888 66.0769C155.917 65.8857 155.914 65.6951 155.942 65.5039C156.321 59.3321 154.536 53.036 150.479 47.7612C141.555 36.2076 124.93 34.0571 113.346 43.0136C108.071 47.0704 104.761 52.7486 103.586 58.8059C103.557 58.9971 103.497 59.1887 103.468 59.3799C103.548 58.3934 103.69 57.3741 103.897 56.4173C105.04 50.3287 108.351 44.6823 113.625 40.5937Z" fill="#FA6E00"/>
<path d="M103.554 58.8075C103.525 58.9986 103.464 59.1903 103.436 59.3814C102.182 66.457 103.827 73.9949 108.565 80.1169C117.489 91.6705 134.114 93.821 145.699 84.8645C151.821 80.1268 155.302 73.2382 155.887 66.0779C155.916 65.8867 155.913 65.6961 155.942 65.5049C156.32 59.3332 154.535 53.037 150.479 47.7622C141.554 36.2086 124.93 34.0581 113.345 43.0146C108.038 47.072 104.728 52.7501 103.554 58.8075ZM113.337 76.4177C109.606 71.6145 108.366 65.6592 109.423 60.1441C109.451 59.953 109.511 59.7295 109.54 59.5384C110.517 55.0098 113.056 50.8058 116.98 47.7558C125.896 40.8441 138.731 42.5147 145.643 51.4307C148.693 55.3866 150.071 60.0684 149.891 64.7115C149.894 64.9021 149.865 65.125 149.868 65.3157C149.481 70.9473 146.803 76.3929 141.999 80.0926C133.052 87.0048 120.249 85.3655 113.337 76.4177Z" fill="#FFE800"/>
<path d="M144.195 82.2838C150.883 77.1239 154.124 69.1267 153.491 61.2867C154.382 69.3769 151.178 77.7231 144.239 83.0459C133.69 91.1913 118.531 89.2717 110.354 78.6915C107.369 74.8616 105.74 70.3745 105.382 65.8672C105.863 70.1183 107.455 74.2882 110.278 77.9299C118.487 88.5097 133.646 90.4293 144.195 82.2838Z" fill="#FA6E00"/>
<path d="M114.742 44.8351C125.291 36.6897 140.45 38.6093 148.627 49.1577C151.45 52.7995 153.042 57.0011 153.523 61.2522C154.125 69.0928 150.915 77.0895 144.228 82.2494C133.679 90.3949 118.52 88.4752 110.343 77.9268C107.552 74.2845 105.928 70.1152 105.447 65.864C104.782 58.0245 108.023 50.0273 114.742 44.8351Z" fill="#F7C200"/>
<path d="M141.951 78.9494C147.006 75.055 149.709 69.2276 149.869 63.3135C149.872 63.4724 149.906 63.599 149.908 63.7261C149.974 69.8908 147.244 76.0364 141.969 80.0933C133.053 87.0049 120.218 85.3343 113.306 76.4184C110.808 73.1846 109.445 69.4561 109.131 65.679C109.127 65.4248 109.123 65.2024 109.151 64.9477C109.526 68.5649 110.918 72.1341 113.288 75.2427C120.2 84.1905 133.034 85.8293 141.951 78.9494Z" fill="#FA6E00"/>
<path d="M109.162 65.7104C109.158 65.4562 109.155 65.2338 109.182 64.9791C109.558 68.5963 110.95 72.1655 113.319 75.2741C120.231 84.1901 133.033 85.8294 141.982 78.949C147.037 75.0546 149.741 69.259 149.901 63.3449C149.903 63.472 149.937 63.6304 149.939 63.7575C149.903 59.4675 148.499 55.1357 145.675 51.4622C138.764 42.5462 125.961 40.9069 117.013 47.7873C111.299 52.2007 108.579 59.0137 109.162 65.7104Z" fill="#FFA200"/>
<path d="M112.352 76.3713L112.179 75.5159L111.586 76.161L110.694 76.0481L111.151 76.8036L110.751 77.6045L111.638 77.4315L112.252 78.0573L112.365 77.1656L113.152 76.7399L112.352 76.3713Z" fill="#FF861F"/>
<path d="M118.416 82.0251L117.927 81.2701L117.623 82.1013L116.768 82.3374L117.476 82.8664L117.426 83.7571L118.15 83.2688L118.981 83.6052L118.745 82.7508L119.306 82.0427L118.416 82.0251Z" fill="#FF861F"/>
<path d="M126.186 84.9214L125.446 84.3929L125.492 85.2821L124.77 85.8339L125.632 86.0744L125.931 86.896L126.428 86.1571L127.317 86.1429L126.766 85.4525L127.007 84.6223L126.186 84.9214Z" fill="#FF861F"/>
<path d="M134.475 84.6L133.614 84.423L133.977 85.2436L133.512 85.982L134.4 85.8725L134.983 86.5624L135.16 85.6697L135.981 85.3388L135.211 84.9061L135.133 84.0174L134.475 84.6Z" fill="#FF861F"/>
<path d="M142.016 81.1733L141.129 81.3145L141.774 81.9081L141.661 82.7998L142.448 82.3741L143.217 82.7432L143.045 81.8879L143.67 81.2422L142.778 81.1293L142.384 80.3411L142.016 81.1733Z" fill="#FF861F"/>
<path d="M147.641 75.0772L146.886 75.5659L147.749 75.87L147.953 76.7249L148.514 76.0485L149.405 76.0979L148.884 75.3434L149.221 74.5117L148.367 74.7796L147.69 74.1865L147.641 75.0772Z" fill="#FF861F"/>
<path d="M150.536 67.308L150.04 68.0469L150.929 68.0009L151.449 68.7236L151.689 67.8617L152.543 67.5621L151.804 67.0971L151.79 66.2074L151.068 66.7592L150.237 66.4864L150.536 67.308Z" fill="#FF861F"/>
<path d="M150.245 59.0493L150.036 59.9107L150.856 59.5163L151.626 59.9807L151.517 59.0926L152.175 58.51L151.314 58.333L150.951 57.5125L150.519 58.3139L149.63 58.3916L150.245 59.0493Z" fill="#FF861F"/>
<path d="M146.788 51.5087L146.929 52.3646L147.555 51.719L148.415 51.8324L147.989 51.0764L148.358 50.276L147.503 50.4485L146.857 49.8232L146.776 50.7144L145.988 51.1401L146.788 51.5087Z" fill="#FF861F"/>
<path d="M140.723 45.8533L141.18 46.6088L141.485 45.7776L142.371 45.541L141.663 45.012L141.713 44.1213L140.958 44.6101L140.158 44.2732L140.394 45.1276L139.833 45.8357L140.723 45.8533Z" fill="#FF861F"/>
<path d="M132.953 42.9562L133.661 43.4852L133.647 42.5955L134.337 42.0442L133.475 41.8037L133.208 40.9817L132.711 41.7206L131.821 41.7347L132.373 42.4252L132.1 43.2876L132.953 42.9562Z" fill="#FF861F"/>
<path d="M124.664 43.28L125.525 43.457L125.163 42.6682L125.595 41.8985L124.707 42.008L124.124 41.3181L123.948 42.2108L123.159 42.573L123.929 43.0057L124.006 43.8626L124.664 43.28Z" fill="#FF861F"/>
<path d="M117.122 46.7059L118.01 46.5646L117.333 45.9715L117.477 45.0793L116.69 45.5368L115.889 45.1364L116.062 45.9918L115.436 46.6374L116.328 46.7503L116.754 47.5381L117.122 46.7059Z" fill="#FF861F"/>
<path d="M111.467 52.8033L112.222 52.3146L111.391 52.01L111.155 51.1556L110.626 51.8633L109.735 51.7821L110.223 52.5371L109.919 53.3683L110.773 53.1322L111.45 53.6935L111.467 52.8033Z" fill="#FF861F"/>
<path d="M108.603 60.572L109.1 59.8331L108.211 59.8791L107.659 59.1569L107.45 60.0183L106.597 60.318L107.336 60.8147L107.35 61.7044L108.04 61.1531L108.902 61.3936L108.603 60.572Z" fill="#FF861F"/>
<path d="M108.895 68.8609L109.071 67.9682L108.283 68.3621L107.513 67.8977L107.622 68.7858L106.964 69.3684L107.825 69.5453L108.188 70.3659L108.621 69.5962L109.509 69.4867L108.895 68.8609Z" fill="#FF861F"/>
<path d="M128.398 68.2304C127.895 68.588 127.291 68.5659 126.446 67.4034C125.082 65.5818 124.087 62.9597 124.109 60.3215L124.045 60.3225L124.077 60.322L122.612 60.1229C122.612 60.1229 122.549 60.1874 122.424 60.3165L117.656 60.2972C117.541 63.0323 118.251 65.6907 119.658 68.2426L116.894 70.3207L118.55 72.519C118.339 73.2216 118.158 73.8283 118.158 73.8283L119.655 74.0587L119.655 74.027L119.655 74.0587L122.388 72.0129C126.104 75.8311 130.522 75.8878 133.443 73.7119C141.012 68.0294 131.107 58.7162 132.928 57.3523C133.682 56.8 134.744 57.6094 135.556 58.7088C137.115 60.7816 137.756 63.1233 137.79 65.2521C137.567 65.2557 137.409 65.2582 137.409 65.2582C136.846 65.871 136.221 66.5484 136.221 66.5484L137.687 66.7475C137.687 66.7475 137.687 66.7475 137.718 66.747L137.719 66.7788L144.294 66.5469C144.566 63.6822 143.977 60.6087 141.954 57.3356L144.592 55.3548L141.832 51.6803L141.801 51.7126L140.336 51.5135C140.336 51.5135 140.411 52.2115 140.445 52.3699C140.445 52.4016 140.574 52.4632 140.733 52.5242L139.226 53.6606C135.639 49.9674 131.497 49.3025 127.791 52.0948C120.661 57.3889 130.22 66.8983 128.398 68.2304Z" fill="#FA6E00"/>
<path d="M140.52 57.0722C142.543 60.377 143.132 63.4187 142.86 66.2835L136.285 66.5154C136.595 64.0314 136.071 61.0523 134.123 58.4772C133.31 57.3778 132.249 56.5683 131.495 57.1207C129.642 58.5168 139.579 67.7977 132.01 73.4802C129.089 75.6562 124.702 75.599 120.954 71.7813L118.222 73.8271L115.462 70.1526L118.226 68.0745C116.818 65.5225 116.108 62.8642 116.224 60.1291L122.676 60.1534C122.654 62.7598 123.65 65.4137 125.014 67.2353C125.89 68.3973 126.494 68.4194 126.965 68.0623C128.787 66.6984 119.196 57.1895 126.357 51.8314C130.063 49.039 134.205 49.704 137.792 53.3971L140.43 51.4164L143.19 55.0909L140.52 57.0722Z" fill="#FFDE17"/>
<path d="M170.037 8.74189L172.563 9.71865L172.471 9.94259C180.912 15.0839 183.791 28.2276 178.81 40.7655C173.861 53.2394 162.858 60.82 153.228 58.8441L153.167 59.004L151.792 58.4538C151.408 58.3328 151.057 58.2113 150.673 58.0585C140.534 54.0248 136.683 39.7207 142.059 26.0958C147.438 12.5981 159.932 4.8666 170.037 8.74189Z" fill="#FA6E00"/>
<path d="M168.344 58.0937C168.502 58.0276 168.66 57.9298 168.786 57.8642C174.235 54.7899 179.104 49.214 181.976 41.9537C187.352 28.297 183.501 13.9929 173.362 9.99101C167.989 7.88367 161.938 9.0607 156.625 12.705C156.467 12.8028 156.342 12.9002 156.184 12.998C151.659 16.2166 147.703 21.2376 145.259 27.4423C139.883 41.0989 143.734 55.4031 153.873 59.4049C158.51 61.238 163.649 60.6158 168.344 58.0937ZM177.786 40.3042C175.556 45.9652 171.685 50.3492 167.4 52.674C167.243 52.7719 167.085 52.838 166.927 52.9358C163.365 54.7406 159.557 55.1509 156.104 53.8075C148.268 50.7224 145.295 39.6778 149.449 29.1235C151.282 24.4541 154.209 20.689 157.57 18.1882C157.727 18.0903 157.852 17.9612 158.01 17.8634C162.159 14.9686 166.91 13.9712 171.132 15.6202C178.968 18.7053 181.94 29.7499 177.786 40.3042Z" fill="#FFE800"/>
<path d="M172.006 12.6514C166.153 10.3293 159.384 12.3441 153.965 17.3249C159.473 11.9931 166.461 9.75229 172.539 12.1662C181.782 15.8328 185.295 28.871 180.409 41.3439C178.606 45.8857 175.965 49.7098 172.865 52.5878C175.744 49.7769 178.228 46.1142 179.908 41.8604C184.763 29.3562 181.249 16.2862 172.006 12.6514Z" fill="#FA6E00"/>
<path d="M154.761 57.2623C145.518 53.5958 142.004 40.5576 146.891 28.0847C148.602 23.7668 151.054 20.1046 153.965 17.2932C159.384 12.3124 166.153 10.2975 172.006 12.6197C181.25 16.2863 184.763 29.3245 179.877 41.7974C178.197 46.0829 175.713 49.7457 172.833 52.5248C167.383 57.5379 160.614 59.5845 154.761 57.2623Z" fill="#F7C200"/>
<path d="M170.35 16.3312C165.937 14.5899 160.902 15.7508 156.6 19.0293C156.694 18.9325 156.787 18.8356 156.881 18.7388C161.274 15.1728 166.528 13.8177 171.165 15.619C179.001 18.7041 181.974 29.7487 177.82 40.303C176.323 44.1089 174.086 47.3228 171.487 49.7478C171.298 49.878 171.142 50.0394 170.953 50.1695C173.426 47.7782 175.537 44.6617 176.973 41.0157C181.127 30.4614 178.154 19.4168 170.35 16.3312Z" fill="#FA6E00"/>
<path d="M171.486 49.7164C171.297 49.8465 171.141 50.0079 170.952 50.138C173.425 47.7468 175.537 44.6302 176.972 40.9842C181.127 30.4617 178.154 19.3853 170.318 16.3002C165.904 14.559 160.869 15.7198 156.599 18.9978C156.693 18.901 156.787 18.8042 156.881 18.7391C153.806 21.2353 151.162 24.8053 149.482 29.1226C145.328 39.6451 148.301 50.7215 156.137 53.8066C161.126 55.7612 166.882 54.0168 171.486 49.7164Z" fill="#FFA200"/>
<path d="M178.088 41.1297L177.525 41.7425L178.194 41.8272L178.365 42.5873L178.798 41.8176L179.495 41.6794L179.072 41.0822L179.313 40.2203L178.652 40.644L178.106 40.2713L178.088 41.1297Z" fill="#FF861F"/>
<path d="M180.153 33.1191L179.784 33.9195L180.479 33.686L180.901 34.2196L181.078 33.3586L181.738 32.9031L181.13 32.595L181.116 31.7689L180.587 32.4448L179.887 32.3924L180.153 33.1191Z" fill="#FF861F"/>
<path d="M179.709 25.3387L179.596 26.1986L180.222 25.6483L180.831 25.9247L180.722 25.1L181.219 24.3929L180.521 24.4358L180.224 23.7414L179.919 24.5725L179.224 24.8379L179.709 25.3387Z" fill="#FF861F"/>
<path d="M176.812 18.9647L176.952 19.7571L177.417 19.0187L178.115 18.944L177.755 18.2823L178.028 17.4516L177.366 17.8118L176.85 17.375L176.769 18.2345L176.174 18.816L176.812 18.9647Z" fill="#FF861F"/>
<path d="M171.918 15.0062L172.309 15.6038L172.518 14.7424L173.211 14.3499L172.633 13.9777L172.651 13.1193L172.089 13.7639L171.42 13.6475L171.654 14.4065L171.221 15.1762L171.918 15.0062Z" fill="#FF861F"/>
<path d="M165.736 14.0245L166.345 14.3643L166.268 13.5075L166.829 12.8629L166.129 12.8105L165.895 12.0832L165.527 12.9154L164.831 13.1172L165.285 13.6503L165.108 14.5112L165.736 14.0245Z" fill="#FF861F"/>
<path d="M159.256 16.192L159.955 16.1808L159.627 15.5186L159.963 14.6869L159.269 14.984L158.784 14.4832L158.671 15.3432L158.043 15.8617L158.683 16.1058L158.76 16.9309L159.256 16.192Z" fill="#FF861F"/>
<path d="M153.424 21.1803L154.118 20.8197L153.571 20.4152L153.653 19.5558L153.058 20.1374L152.42 19.9569L152.591 20.7487L152.126 21.4871L152.824 21.3806L153.152 22.011L153.424 21.1803Z" fill="#FF861F"/>
<path d="M149.15 28.2093L149.712 27.5965L149.075 27.4796L148.872 26.72L148.439 27.4897L147.743 27.6597L148.165 28.225L147.924 29.087L148.585 28.6633L149.131 29.036L149.15 28.2093Z" fill="#FF861F"/>
<path d="M147.085 36.2201L147.454 35.4196L146.758 35.6532L146.336 35.0879L146.159 35.9488L145.499 36.436L146.108 36.7124L146.121 37.5703L146.683 36.8939L147.351 36.9468L147.085 36.2201Z" fill="#FF861F"/>
<path d="M147.526 43.9981L147.639 43.1064L147.044 43.6562L146.404 43.4122L146.512 44.205L146.015 44.9121L146.714 44.901L147.01 45.5637L147.315 44.7325L148.01 44.4672L147.526 43.9981Z" fill="#FF861F"/>
<path d="M150.424 50.3418L150.284 49.5494L149.819 50.2878L149.122 50.3943L149.481 51.0242L149.209 51.8549L149.87 51.4947L150.386 51.9315L150.467 51.0721L151.062 50.5223L150.424 50.3418Z" fill="#FF861F"/>
<path d="M155.319 54.2981L154.928 53.7005L154.72 54.5619L154.058 54.9539L154.605 55.3265L154.587 56.1849L155.148 55.5403L155.818 55.6568L155.583 54.8978L156.016 54.1281L155.319 54.2981Z" fill="#FF861F"/>
<path d="M161.499 55.2813L160.922 54.9727L160.967 55.7983L160.406 56.4747L161.105 56.4953L161.339 57.2226L161.708 56.4221L162.404 56.1886L161.95 55.6555L162.127 54.7946L161.499 55.2813Z" fill="#FF861F"/>
<path d="M167.981 53.1131L167.314 53.1237L167.611 53.8182L167.274 54.6499L167.968 54.321L168.453 54.8218L168.566 53.9619L169.194 53.4433L168.586 53.1988L168.478 52.4059L167.981 53.1131Z" fill="#FF861F"/>
<path d="M173.812 48.1557L173.118 48.4846L173.665 48.9209L173.584 49.7803L174.178 49.1669L174.817 49.3792L174.645 48.5874L175.142 47.8485L174.444 47.955L174.084 47.2933L173.812 48.1557Z" fill="#FF861F"/>
<path d="M167.057 33.1019C167.473 33.286 167.64 33.7918 167.121 35.1032C166.265 37.2144 164.712 39.4957 162.829 40.9877L162.862 41.0507L162.83 41.0512L163.168 42.3171C163.168 42.3171 163.231 42.3161 163.359 42.3459L164.881 46.1037C166.859 44.6102 168.543 42.5493 169.9 39.9851L172.268 40.9644L173.308 38.4053C173.876 38.1737 174.349 37.9755 174.349 37.9755L174.011 36.7096L173.98 36.7101L173.979 36.6783L171.612 35.699C173.151 30.5894 171.76 27.0837 169.265 26.0429C162.738 23.3183 159.293 36.4674 157.724 35.7932C157.084 35.5174 157.318 34.2106 157.838 32.931C158.816 30.5 160.281 28.6651 161.786 27.4334C161.853 27.623 161.918 27.7173 161.918 27.7173C162.555 27.8025 163.224 27.9189 163.224 27.9189L162.886 26.653L162.918 26.6525L160.645 21.6036C158.506 23.0361 156.507 25.2292 154.815 28.7204L152.543 27.7713L150.8 32.0579L150.832 32.0574L151.17 33.3233C151.17 33.3233 151.639 32.8709 151.764 32.7418C151.796 32.7095 151.794 32.5824 151.792 32.4553L153.103 33.0065C151.625 37.9562 152.478 41.5976 155.677 42.9132C161.819 45.4215 165.521 32.459 167.057 33.1019Z" fill="#FA6E00"/>
<path d="M155.184 29.9552C156.876 26.464 158.876 24.271 161.014 22.8385L163.287 27.8874C161.431 29.0611 159.463 31.1901 158.239 34.1971C157.719 35.4767 157.486 36.7835 158.126 37.0593C159.726 37.733 163.171 24.5839 169.666 27.309C172.162 28.3498 173.553 31.8555 172.013 36.9651L174.381 37.9444L172.637 42.231L170.27 41.2517C168.912 43.8159 167.229 45.9086 165.25 47.3703L163.167 42.2866C165.05 40.7946 166.603 38.5133 167.459 36.4021C168.01 35.0585 167.843 34.5526 167.396 34.4008C165.828 33.7584 162.125 46.7209 155.983 44.1809C152.784 42.8652 151.931 39.1921 153.41 34.2741L151.138 33.3251L152.881 29.0385L155.184 29.9552Z" fill="#FFDE17"/>
<path d="M139.637 101.328C137.993 113.876 133.383 123.707 129.068 124.157L129.069 124.221L124.1 123.569L124.551 119.97C122.763 115.422 122.194 107.676 123.328 99.0453C124.431 90.4783 126.953 83.1918 129.814 79.2688L130.266 75.702L134.12 76.2127C134.502 76.2701 135.235 76.3856 135.235 76.3856C139.296 77.9735 141.28 88.7478 139.637 101.328Z" fill="#FA6E00"/>
<path d="M124.183 80.9477C124.121 81.044 124.059 81.1722 123.997 81.2685C121.807 85.4351 119.967 91.5983 119.061 98.5731C117.365 111.79 119.609 122.973 124.131 123.568C126.489 123.912 129.019 121.17 131.139 116.592C131.201 116.464 131.262 116.335 131.324 116.207C133.103 112.174 134.574 106.78 135.368 100.76C137.064 87.5438 134.82 76.3605 130.298 75.7651C128.228 75.5121 126.066 77.4852 124.183 80.9477ZM120.909 98.8614C121.616 93.3836 123.065 88.5614 124.793 85.3557C124.855 85.2276 124.917 85.1312 124.979 85.0031C126.432 82.4692 128.03 81.0453 129.559 81.2434C133.03 81.6966 134.789 90.3451 133.458 100.537C132.862 105.027 131.783 109.113 130.465 112.185C130.404 112.313 130.342 112.441 130.281 112.601C128.655 116.25 126.656 118.443 124.776 118.187C121.336 117.67 119.577 109.053 120.909 98.8614Z" fill="#FFE800"/>
<path d="M124.566 120.925C127.178 121.264 129.98 117.628 132.05 111.874C129.922 117.979 127.029 121.871 124.353 121.5C120.244 120.962 118.175 110.761 119.731 98.6906C120.296 94.2956 121.281 90.2754 122.467 86.9511C121.342 90.1473 120.45 93.9753 119.944 98.1151C118.388 110.185 120.458 120.386 124.566 120.925Z" fill="#FA6E00"/>
<path d="M130.015 77.8679C134.123 78.4063 136.193 88.6071 134.637 100.677C134.099 104.849 133.207 108.677 132.083 111.905C129.982 117.691 127.179 121.296 124.599 120.955C120.491 120.417 118.421 110.216 119.977 98.1459C120.515 94.0057 121.407 90.1776 122.5 86.982C124.601 81.1642 127.403 77.5281 130.015 77.8679Z" fill="#F7C200"/>
<path d="M125.145 117.323C127.12 117.578 129.211 115.161 130.895 111.161C130.865 111.257 130.835 111.385 130.773 111.481C129.061 115.767 126.847 118.409 124.808 118.123C121.337 117.67 119.578 109.022 120.909 98.83C121.391 95.1356 122.196 91.7857 123.2 88.9729C123.261 88.813 123.321 88.6213 123.414 88.4609C122.472 91.1774 121.698 94.4633 121.246 97.9983C119.915 108.222 121.674 116.87 125.145 117.323Z" fill="#FA6E00"/>
<path d="M123.199 89.0045C123.26 88.8446 123.321 88.6847 123.414 88.4926C122.472 91.2091 121.698 94.495 121.245 98.03C119.914 108.221 121.673 116.87 125.144 117.323C127.119 117.578 129.21 115.161 130.894 111.193C130.864 111.289 130.834 111.416 130.772 111.513C131.964 108.506 132.953 104.74 133.49 100.536C134.821 90.3448 133.062 81.6963 129.591 81.2432C127.361 80.9291 124.964 84.0502 123.199 89.0045Z" fill="#FFA200"/>
<path d="M120.74 98.2284L120.952 97.5576L120.668 97.6575L120.563 97.0553L120.416 97.8204L120.136 98.1745L120.332 98.5527L120.281 99.3481L120.527 98.8039L120.784 98.9587L120.74 98.2284Z" fill="#FF861F"/>
<path d="M120.225 105.675L120.34 104.879L120.06 105.296L119.832 104.95L119.813 105.713L119.536 106.322L119.823 106.381L119.867 107.111L120.077 106.377L120.361 106.213L120.225 105.675Z" fill="#FF861F"/>
<path d="M120.742 112.213L120.762 111.45L120.518 112.09L120.231 112.031L120.305 112.697L120.126 113.463L120.44 113.235L120.576 113.742L120.69 112.945L120.969 112.496L120.742 112.213Z" fill="#FF861F"/>
<path d="M122.245 116.861L122.139 116.227L121.993 116.993L121.711 117.251L121.877 117.694L121.794 118.489L122.072 118.008L122.298 118.227L122.286 117.465L122.53 116.825L122.245 116.861Z" fill="#FF861F"/>
<path d="M124.503 118.891L124.306 118.481L124.255 119.276L124.009 119.821L124.266 119.975L124.278 120.706L124.489 120.004L124.773 119.904L124.669 119.333L124.815 118.537L124.503 118.891Z" fill="#FF861F"/>
<path d="M127.189 117.991L126.933 117.868L126.976 118.566L126.765 119.301L127.08 119.137L127.216 119.707L127.331 118.91L127.611 118.524L127.414 118.178L127.434 117.383L127.189 117.991Z" fill="#FF861F"/>
<path d="M129.866 114.325L129.583 114.52L129.75 115.026L129.635 115.823L129.914 115.373L130.141 115.656L130.161 114.892L130.405 114.253L130.118 114.226L130.044 113.56L129.866 114.325Z" fill="#FF861F"/>
<path d="M132.155 108.408L131.877 108.921L132.103 109.108L132.115 109.87L132.327 109.2L132.613 109.195L132.507 108.561L132.686 107.796L132.404 108.086L132.206 107.612L132.155 108.408Z" fill="#FF861F"/>
<path d="M133.66 101.202L133.449 101.904L133.733 101.804L133.838 102.406L133.985 101.61L134.265 101.287L134.069 100.909L134.151 100.113L133.874 100.658L133.617 100.471L133.66 101.202Z" fill="#FF861F"/>
<path d="M134.209 93.7567L134.062 94.5536L134.342 94.1677L134.57 94.5137L134.589 93.7189L134.866 93.1424L134.579 93.0516L134.536 92.3531L134.357 93.0869L134.041 93.2191L134.209 93.7567Z" fill="#FF861F"/>
<path d="M133.659 87.2166L133.64 88.0115L133.884 87.3719L134.17 87.3991L134.096 86.7329L134.275 85.9991L133.993 86.226L133.826 85.7202L133.711 86.5166L133.433 86.966L133.659 87.2166Z" fill="#FF861F"/>
<path d="M132.157 82.6011L132.262 83.2351L132.409 82.47L132.722 82.179L132.524 81.7372L132.607 80.9413L132.329 81.4542L132.103 81.2036L132.115 81.9662L131.871 82.6375L132.157 82.6011Z" fill="#FF861F"/>
<path d="M129.899 80.5721L130.096 80.9822L130.147 80.1868L130.424 79.6421L130.167 79.4873L130.124 78.757L129.913 79.4595L129.628 79.5276L129.764 80.1293L129.618 80.8944L129.899 80.5721Z" fill="#FF861F"/>
<path d="M127.212 81.4392L127.5 81.5617L127.425 80.8637L127.636 80.1294L127.353 80.2928L127.217 79.7546L127.071 80.5515L126.791 80.9374L127.018 81.2516L126.967 82.0469L127.212 81.4392Z" fill="#FF861F"/>
<path d="M124.538 85.1381L124.82 84.9111L124.685 84.4366L124.768 83.6407L124.489 84.0901L124.262 83.7759L124.274 84.5702L124.03 85.178L124.285 85.2057L124.359 85.872L124.538 85.1381Z" fill="#FF861F"/>
<path d="M122.278 91.0231L122.556 90.5419L122.299 90.3236L122.287 89.561L122.075 90.2318L121.789 90.2681L121.894 90.8703L121.716 91.6677L122.029 91.3767L122.195 91.819L122.278 91.0231Z" fill="#FF861F"/>
<path d="M125.79 102.026C125.599 101.998 125.498 101.618 125.667 100.312C125.953 98.2735 126.519 95.8808 127.252 94.0575L127.252 94.0257L127.045 93.0438C127.045 93.0438 127.014 93.0443 126.951 93.0771L126.143 90.2931C125.346 92.1174 124.715 94.384 124.247 96.934L123.195 96.7601L122.854 99.2445C122.605 99.5981 122.419 99.9189 122.419 99.9189L122.626 100.901L122.626 100.933L123.678 101.107C123.246 105.913 123.987 108.539 125.103 108.743C128.003 109.237 128.889 97.0189 129.622 97.1662C129.909 97.2252 129.864 98.4018 129.693 99.644C129.381 102.001 128.841 103.98 128.26 105.451C128.226 105.325 128.193 105.23 128.193 105.23C127.909 105.33 127.624 105.43 127.624 105.43L127.83 106.412C127.83 106.412 127.83 106.412 127.831 106.443L129.034 110.143C129.895 108.317 130.65 105.858 131.231 102.416L132.251 102.591L132.82 98.4183L132.614 97.4363C132.614 97.4363 132.432 97.9795 132.402 98.1071C132.402 98.1389 132.404 98.2342 132.406 98.3613L131.768 98.2443C132.203 93.5972 131.648 90.7139 130.246 90.4502C127.505 89.9854 126.491 102.142 125.79 102.026Z" fill="#FA6E00"/>
<path d="M131.024 101.401C130.444 104.875 129.689 107.334 128.827 109.127L127.624 105.428C128.362 103.891 129.119 101.527 129.518 98.5966C129.689 97.3544 129.733 96.1777 129.446 96.1187C128.745 96.0028 127.828 108.222 124.927 107.696C123.811 107.491 123.071 104.897 123.502 100.059L122.451 99.8852L123.02 95.7126L124.071 95.8866C124.539 93.3048 125.171 91.07 125.968 89.2457L127.077 93.0419C126.344 94.8651 125.746 97.2583 125.493 99.3282C125.323 100.634 125.424 101.014 125.616 101.042C126.317 101.158 127.331 89.0015 130.071 89.4663C131.505 89.6977 132.028 92.5816 131.594 97.2605L132.614 97.4349L132.045 101.607L131.024 101.401Z" fill="#FFDE17"/>
<path d="M93.2837 78.5174C92.9482 69.4331 95.0852 61.9302 98.091 61.0878L98.09 61.0242L101.679 60.9035L101.785 63.5079C103.58 66.4986 104.907 71.944 105.133 78.2014C105.359 84.3953 104.429 89.8449 102.89 92.9841L102.962 95.5255L100.167 95.6336C99.9129 95.6377 99.341 95.6468 99.341 95.6468C96.28 95.0281 93.6196 87.6335 93.2837 78.5174Z" fill="#FA6E00"/>
<path d="M106.643 91.1112C106.673 91.0154 106.704 90.9513 106.734 90.8555C107.795 87.6604 108.358 83.0748 108.182 77.9925C107.839 68.4315 104.888 60.7873 101.648 60.9025C99.9329 60.9616 98.4426 63.1783 97.5134 66.6891C97.4831 66.785 97.4528 66.8808 97.4226 66.9766C96.6133 70.0406 96.2323 74.0512 96.397 78.4027C96.74 87.9637 99.6904 95.6079 102.93 95.4927C104.424 95.4689 105.732 93.8272 106.643 91.1112ZM106.848 78.0455C107.006 82.0157 106.523 85.6148 105.673 88.0756C105.642 88.1714 105.612 88.2672 105.581 88.3313C104.85 90.3134 103.884 91.5048 102.772 91.5543C100.263 91.626 98.0073 85.7187 97.731 78.3497C97.6153 75.078 97.8854 72.0862 98.4839 69.7565C98.5142 69.6607 98.5444 69.5649 98.5742 69.4373C99.2927 66.6608 100.472 64.894 101.806 64.8409C104.316 64.7692 106.571 70.6765 106.848 78.0455Z" fill="#FFE800"/>
<path d="M101.648 62.8416C99.7734 62.9032 98.199 65.8205 97.4099 70.1554C98.1949 65.5663 99.7668 62.4902 101.736 62.427C104.722 62.3159 107.376 69.3292 107.706 78.0322C107.82 81.2086 107.613 84.1676 107.144 86.6859C107.551 84.2958 107.729 81.4643 107.617 78.4786C107.288 69.7438 104.602 62.7627 101.648 62.8416Z" fill="#FA6E00"/>
<path d="M102.875 94.0007C99.8888 94.1118 97.2344 87.0985 96.9051 78.3955C96.7934 75.378 96.9708 72.5465 97.3776 70.1564C98.1667 65.8214 99.741 62.9042 101.615 62.8425C104.601 62.7314 107.255 69.7129 107.585 78.4478C107.696 81.4335 107.518 84.2649 107.112 86.6551C106.323 91.0218 104.78 93.9385 102.875 94.0007Z" fill="#F7C200"/>
<path d="M101.691 65.4809C100.261 65.5355 99.0529 67.4935 98.3385 70.5241C98.337 70.4288 98.3677 70.3648 98.3662 70.2694C99.0771 67.0163 100.315 64.899 101.808 64.8434C104.317 64.7717 106.573 70.679 106.849 78.048C106.955 80.716 106.772 83.1979 106.392 85.3016C106.363 85.4292 106.333 85.5568 106.303 85.6844C106.652 83.6448 106.804 81.2269 106.732 78.6855C106.456 71.3165 104.2 65.4092 101.691 65.4809Z" fill="#FA6E00"/>
<path d="M106.392 85.301C106.363 85.4286 106.333 85.5562 106.303 85.6838C106.652 83.6442 106.804 81.2263 106.732 78.6849C106.455 71.3158 104.2 65.4085 101.69 65.4803C100.261 65.5349 99.0846 67.4923 98.3384 70.5235C98.3373 70.46 98.3676 70.3641 98.3666 70.3006C97.8624 72.5652 97.621 75.3658 97.7326 78.3834C98.009 85.7524 100.264 91.6597 102.774 91.5879C104.394 91.5303 105.721 89.0302 106.392 85.301Z" fill="#FFA200"/>
<path d="M107.045 78.487L106.958 78.9969L107.147 78.8985L107.312 79.3091L107.303 78.7371L107.489 78.4481L107.295 78.197L107.254 77.6256L107.133 78.0406L106.941 77.9484L107.045 78.487Z" fill="#FF861F"/>
<path d="M106.546 73.1245L106.555 73.7282L106.709 73.408L106.903 73.6273L106.831 73.0564L106.919 72.6101L106.728 72.5813L106.625 72.1062L106.57 72.6474L106.381 72.7775L106.546 73.1245Z" fill="#FF861F"/>
<path d="M105.392 68.5656L105.465 69.1366L105.553 68.6584L105.775 68.6549L105.641 68.1803L105.664 67.6396L105.508 67.8328L105.312 67.4863L105.353 68.0578L105.199 68.4098L105.392 68.5656Z" fill="#FF861F"/>
<path d="M103.788 65.4781L103.922 65.9209L103.944 65.3485L104.132 65.123L103.936 64.8401L103.895 64.2369L103.774 64.6202L103.581 64.4961L103.653 65.0353L103.566 65.5134L103.788 65.4781Z" fill="#FF861F"/>
<path d="M101.924 64.2979L102.119 64.5491L102.046 63.9782L102.199 63.5944L101.975 63.5026L101.871 62.9957L101.816 63.5051L101.627 63.6035L101.761 64.0145L101.77 64.5864L101.924 64.2979Z" fill="#FF861F"/>
<path d="M100.128 65.2478L100.351 65.276L100.216 64.8014L100.271 64.2602L100.083 64.4221L99.9177 64.0434L99.9268 64.6153L99.773 64.9356L99.9667 65.1232L100.039 65.6941L100.128 65.2478Z" fill="#FF861F"/>
<path d="M98.6808 68.1636L98.8684 67.9699L98.6727 67.6552L98.6636 67.0833L98.5103 67.4353L98.3166 67.2477L98.4205 67.7864L98.301 68.265L98.4916 68.262L98.6263 68.7366L98.6808 68.1636Z" fill="#FF861F"/>
<path d="M97.7667 72.5971L97.8882 72.2456L97.6956 72.1215L97.6234 71.5824L97.5357 72.0605L97.3461 72.1271L97.4797 72.5381L97.4571 73.1106L97.6124 72.8856L97.8081 73.2003L97.7667 72.5971Z" fill="#FF861F"/>
<path d="M97.5332 77.9092L97.6205 77.3993L97.4313 77.4977L97.2659 77.0871L97.275 77.6591L97.0884 77.9163L97.2831 78.1674L97.324 78.7389L97.4445 78.3238L97.6367 78.4161L97.5332 77.9092Z" fill="#FF861F"/>
<path d="M98.0306 83.2407L98.0215 82.6687L97.8677 82.989L97.6735 82.7696L97.7456 83.3088L97.6574 83.7551L97.8486 83.7839L97.952 84.2907L98.0069 83.7496L98.1955 83.6194L98.0306 83.2407Z" fill="#FF861F"/>
<path d="M99.1839 87.7988L99.1117 87.2596L98.9922 87.7383L98.8016 87.7413L98.9358 88.1841L98.9131 88.7566L99.0689 88.5634L99.2651 88.9099L99.2238 88.3067L99.3776 87.9864L99.1839 87.7988Z" fill="#FF861F"/>
<path d="M100.791 90.9181L100.657 90.4753L100.634 91.0477L100.447 91.2732L100.642 91.5561L100.683 92.1275L100.804 91.7442L100.997 91.8683L100.925 91.3609L101.013 90.851L100.791 90.9181Z" fill="#FF861F"/>
<path d="M102.653 92.0649L102.459 91.8137L102.531 92.3846L102.379 92.8002L102.602 92.8602L102.706 93.3989L102.761 92.8577L102.951 92.7911L102.786 92.3806L102.808 91.8081L102.653 92.0649Z" fill="#FF861F"/>
<path d="M104.449 91.1454L104.226 91.0853L104.361 91.5599L104.306 92.1011L104.494 91.971L104.659 92.3497L104.65 91.746L104.804 91.4575L104.61 91.2381L104.537 90.6672L104.449 91.1454Z" fill="#FF861F"/>
<path d="M105.896 88.2008L105.708 88.3945L105.904 88.7092L105.913 89.3129L106.067 88.9609L106.26 89.1485L106.156 88.5781L106.275 88.0994L106.053 88.1347L105.951 87.6596L105.896 88.2008Z" fill="#FF861F"/>
<path d="M106.81 83.768L106.657 84.1519L106.882 84.2754L106.954 84.8145L107.041 84.3046L107.231 84.2698L107.097 83.827L107.12 83.2546L106.965 83.5113L106.769 83.1966L106.81 83.768Z" fill="#FF861F"/>
<path d="M103.008 76.3898C103.135 76.3878 103.266 76.64 103.281 77.5932C103.337 79.0861 103.206 80.8362 102.91 82.2075L102.911 82.2393L103.176 82.9343C103.176 82.9343 103.208 82.9338 103.239 82.9015L104.159 84.7938C104.487 83.4219 104.682 81.7343 104.716 79.8587L105.479 79.8783L105.418 78.0677C105.541 77.7797 105.633 77.5557 105.633 77.5557L105.367 76.8608L105.367 76.829L104.604 76.8094C104.326 73.3495 103.504 71.5829 102.709 71.5637C100.611 71.5654 101.386 80.3249 100.877 80.3012C100.655 80.3048 100.546 79.4484 100.532 78.5587C100.473 76.8434 100.64 75.3788 100.877 74.2626C100.91 74.3574 100.943 74.4205 100.943 74.4205C101.132 74.3221 101.321 74.2238 101.321 74.2238L101.056 73.5288L99.7763 71.0384C99.3851 72.4113 99.1285 74.2587 99.1367 76.7694L98.4054 76.7492L98.517 79.7668L98.7824 80.4617C98.7824 80.4617 98.8398 80.0794 98.8696 79.9518C98.8691 79.9201 98.8681 79.8565 98.8348 79.7617L99.2478 79.7551C99.4916 83.0883 100.223 85.079 101.24 85.0945C103.211 85.1267 102.5 76.3979 103.008 76.3898Z" fill="#FA6E00"/>
<path d="M99.4032 77.4658C99.395 74.9552 99.6516 73.1077 100.043 71.7349L101.322 74.2253C100.96 75.407 100.733 77.1586 100.799 79.2869C100.813 80.1766 100.922 81.033 101.144 81.0294C101.653 81.0213 100.846 72.2624 102.976 72.292C103.802 72.3106 104.625 74.0773 104.871 77.5376L105.634 77.5572L105.746 80.5747L104.983 80.5551C104.949 82.4308 104.785 84.1179 104.426 85.4902L103.209 82.9353C103.505 81.5639 103.636 79.8138 103.58 78.3209C103.565 77.3677 103.434 77.1155 103.307 77.1176C102.798 77.1257 103.51 85.8544 101.539 85.8223C100.49 85.8072 99.791 83.8478 99.5467 80.4828L98.8154 80.4627L98.7037 77.4452L99.4032 77.4658Z" fill="#FFDE17"/>
<path d="M30.0237 85.5629C33.9785 72.4692 47.8134 65.0978 60.8753 69.0531C66.8474 70.8648 71.6122 74.6981 74.678 79.6073C75.1672 80.394 75.6252 81.213 76.0202 82.0649C75.9223 81.9075 75.8245 81.7502 75.7266 81.5928C72.6609 76.6837 67.8961 72.8504 61.9239 71.0387C48.8302 67.0839 35.0272 74.4548 31.0724 87.5485C29.2606 93.5206 29.8344 99.6136 32.2067 104.883C32.2733 105.073 32.3394 105.231 32.4373 105.388C31.948 104.602 31.5213 103.75 31.1263 102.898C28.754 97.6286 28.2119 91.5351 30.0237 85.5629Z" fill="#FA6E00"/>
<path d="M32.2069 104.886C32.2735 105.075 32.3396 105.233 32.4375 105.391C35.3308 111.447 40.6525 116.32 47.5829 118.434C60.6766 122.389 74.4797 115.018 78.4345 101.924C80.5488 94.994 79.4498 87.8605 76.0204 82.0673C75.9225 81.9099 75.8247 81.7525 75.7268 81.5952C72.6611 76.686 67.8963 72.8528 61.9241 71.041C48.8304 67.0862 35.0274 74.4572 31.0726 87.5509C29.2608 93.523 29.8346 99.616 32.2069 104.886ZM49.2126 113.005C43.7832 111.344 39.6221 107.501 37.4162 102.705C37.3184 102.548 37.2518 102.358 37.1857 102.2C35.5014 98.2226 35.1426 93.6517 36.4697 89.1811C39.5189 79.0894 50.2022 73.389 60.2939 76.4382C64.7651 77.7971 68.3698 80.6319 70.7158 84.2494C70.8136 84.4068 70.9115 84.5641 71.0093 84.7215C73.7508 89.2226 74.666 94.8017 73.005 100.263C69.9882 110.386 59.3049 116.086 49.2126 113.005Z" fill="#FFE800"/>
<path d="M75.9047 100.755C78.1995 93.1863 76.3263 85.3342 71.5962 79.6888C76.6764 85.3604 78.7442 93.4637 76.3581 101.288C72.7346 113.233 60.1293 119.981 48.1851 116.357C43.8415 115.028 40.1783 112.512 37.4571 109.282C40.1107 112.259 43.6115 114.555 47.7316 115.824C59.6759 119.447 72.2812 112.699 75.9047 100.755Z" fill="#FA6E00"/>
<path d="M33.1491 88.1837C36.7726 76.2395 49.3779 69.4915 61.3221 73.115C65.4417 74.3524 68.9431 76.6803 71.6289 79.6885C76.3591 85.3339 78.2322 93.186 75.9374 100.755C72.3139 112.699 59.7086 119.447 47.7644 115.824C43.6448 114.586 40.1757 112.29 37.4898 109.281C32.7279 103.637 30.8548 95.7844 33.1491 88.1837Z" fill="#F7C200"/>
<path d="M72.3872 99.4132C74.1077 93.6967 73.0285 87.8025 69.9678 83.2111C70.0647 83.3049 70.1297 83.3992 70.2271 83.5248C73.607 88.2064 74.8491 94.3524 73.0687 100.292C70.0195 110.384 59.3362 116.084 49.2445 113.035C45.6035 111.917 42.5193 109.837 40.2198 107.14C40.0896 106.952 39.9595 106.763 39.8294 106.574C42.0946 109.113 45.0819 111.099 48.5635 112.188C58.6548 115.205 69.3381 109.505 72.3872 99.4132Z" fill="#FA6E00"/>
<path d="M40.2202 107.109C40.09 106.92 39.9599 106.732 39.8298 106.543C42.0949 109.081 45.0506 111.068 48.5634 112.125C58.6557 115.206 69.339 109.505 72.3881 99.4135C74.1086 93.697 73.0612 87.8023 69.9687 83.2114C70.0656 83.3052 70.1306 83.3995 70.2275 83.4933C67.8553 80.2257 64.478 77.7052 60.3261 76.4365C50.2344 73.3874 39.5511 79.0877 36.502 89.1794C34.5394 95.6625 36.1397 102.343 40.2202 107.109Z" fill="#FFA200"/>
<path d="M48.4269 113.524L47.8453 112.93L47.7314 113.758L47.0067 114.151L47.743 114.489L47.8833 115.313L48.4461 114.732L49.2743 114.846L48.8813 114.121L49.251 113.384L48.4269 113.524Z" fill="#FF861F"/>
<path d="M56.1355 114.545L55.3673 114.208L55.5711 115.031L55.0406 115.643L55.8677 115.694L56.3237 116.386L56.5975 115.619L57.4206 115.415L56.777 114.916L56.8274 114.089L56.1355 114.545Z" fill="#FF861F"/>
<path d="M63.602 112.518L62.7759 112.531L63.2949 113.19L63.0534 113.989L63.8114 113.691L64.4868 114.188L64.4731 113.331L65.1327 112.843L64.3348 112.634L64.068 111.843L63.602 112.518Z" fill="#FF861F"/>
<path d="M69.7573 107.814L68.9993 108.112L69.7054 108.546L69.7821 109.371L70.4085 108.789L71.2064 108.999L70.8765 108.241L71.3102 107.535L70.4851 107.612L69.9348 106.985L69.7573 107.814Z" fill="#FF861F"/>
<path d="M73.6229 101.079L73.06 101.66L73.8882 101.774L74.2499 102.531L74.619 101.762L75.4431 101.622L74.8303 101.059L74.9442 100.231L74.2195 100.624L73.4826 100.254L73.6229 101.079Z" fill="#FF861F"/>
<path d="M74.6439 93.4012L74.3383 94.1688L75.1291 93.9337L75.7737 94.4955L75.7918 93.6371L76.516 93.2124L75.7166 92.9073L75.5451 92.1155L75.0151 92.7596L74.1879 92.7092L74.6439 93.4012Z" fill="#FF861F"/>
<path d="M72.617 85.9012L72.6301 86.7274L73.2898 86.2401L74.0882 86.4816L73.7896 85.6919L74.2873 85.0165L73.4617 85.0614L72.974 84.37L72.7324 85.1684L71.9421 85.4353L72.617 85.9012Z" fill="#FF861F"/>
<path d="M67.9111 79.7478L68.2415 80.5371L68.6429 79.7997L69.468 79.723L68.9183 79.1279L69.0957 78.2988L68.3387 78.6604L67.6326 78.2267L67.7093 79.0518L67.0825 79.6021L67.9111 79.7478Z" fill="#FF861F"/>
<path d="M61.1759 75.8807L61.7892 76.4748L61.8714 75.6471L62.6279 75.2537L61.8597 74.9163L61.7195 74.0922L61.1571 74.705L60.3285 74.5593L60.7537 75.3153L60.3841 76.0522L61.1759 75.8807Z" fill="#FF861F"/>
<path d="M53.5002 74.8925L54.2678 75.1981L54.0645 74.4067L54.5946 73.7627L53.7674 73.7123L53.3115 73.0203L53.0376 73.7875L52.2146 73.9913L52.8586 74.5213L52.8083 75.3484L53.5002 74.8925Z" fill="#FF861F"/>
<path d="M45.9998 76.8869L46.8577 76.8732L46.3387 76.2141L46.5807 75.4474L45.7904 75.7143L45.1156 75.2483L45.1605 76.0739L44.5009 76.5612L45.2993 76.8027L45.5343 77.5935L45.9998 76.8869Z" fill="#FF861F"/>
<path d="M39.8783 81.6254L40.6358 81.2955L39.8984 80.8941L39.8529 80.0367L39.2266 80.6187L38.4287 80.409L38.7591 81.1983L38.3254 81.9044L39.15 81.7959L39.7003 82.4228L39.8783 81.6254Z" fill="#FF861F"/>
<path d="M35.9791 88.3287L36.5737 87.7472L35.7455 87.6332L35.3844 86.908L35.0147 87.6449L34.1906 87.7852L34.8034 88.3475L34.6895 89.1756L35.4142 88.7827L36.1511 89.1523L35.9791 88.3287Z" fill="#FF861F"/>
<path d="M34.9892 96.0034L35.2948 95.2357L34.504 95.4708L33.8599 94.9408L33.8095 95.7679L33.117 96.1921L33.8847 96.4977L34.088 97.289L34.618 96.6449L35.4457 96.7271L34.9892 96.0034Z" fill="#FF861F"/>
<path d="M36.9834 103.505L37.002 102.678L36.3429 103.197L35.544 102.924L35.8108 103.714L35.3448 104.389L36.171 104.376L36.6582 105.035L36.8997 104.237L37.69 103.97L36.9834 103.505Z" fill="#FF861F"/>
<path d="M41.7221 109.658L41.3922 108.901L40.9903 109.606L40.1651 109.683L40.7154 110.31L40.5374 111.107L41.295 110.777L42.0006 111.179L41.8921 110.355L42.5512 109.836L41.7221 109.658Z" fill="#FF861F"/>
<path d="M56.262 98.6222C56.1117 99.1649 55.6079 99.459 54.3303 99.0662C52.3179 98.4308 50.133 96.9401 48.703 94.9606L48.64 94.9934L48.6395 94.9616L47.4104 95.6168C47.4104 95.6168 47.4119 95.7122 47.3827 95.8715L43.7369 98.4404C45.1376 100.579 47.1345 102.232 49.5685 103.401L48.6639 106.466L51.1237 107.253C51.3567 107.917 51.5242 108.455 51.5242 108.455L52.7533 107.8L52.7528 107.768L52.7845 107.767L53.7532 104.733C58.6616 105.608 62.0567 103.265 63.0859 100.039C65.7801 91.6056 53.1672 89.8997 53.8333 87.8232C54.1061 86.9925 55.3463 87.0363 56.5603 87.4302C58.892 88.1558 60.6311 89.59 61.8008 91.1923C61.6439 91.3219 61.5183 91.4193 61.5183 91.4193C61.4357 92.2151 61.3217 93.0433 61.3217 93.0433L62.5508 92.388C62.5508 92.388 62.5508 92.388 62.5503 92.3563L62.5508 92.388L67.4493 88.655C66.1091 86.3245 63.9791 84.2926 60.6513 82.8837L61.5897 79.9448L57.4691 78.6438L57.4696 78.6756L56.2406 79.3308C56.2406 79.3308 56.6935 79.8321 56.7903 79.9259C56.8226 79.9572 56.9174 79.9239 57.0758 79.8896L56.5307 81.5827C51.7812 80.705 48.2811 82.4452 46.9489 86.5981C44.4695 94.5513 56.9286 96.5775 56.262 98.6222Z" fill="#FA6E00"/>
<path d="M59.4549 83.5392C62.7827 84.9482 64.9127 86.9801 66.2529 89.3106L61.3544 93.0436C60.2412 90.9955 58.2075 89.0256 55.3322 88.0862C54.1182 87.6924 52.8462 87.6491 52.6052 88.4793C51.9385 90.524 64.5514 92.2299 61.8572 100.663C60.828 103.89 57.4334 106.264 52.5245 105.357L51.5246 108.424L47.404 107.123L48.3721 104.056C45.9063 102.888 43.9412 101.235 42.5405 99.096L47.4749 95.6167C48.8735 97.6284 51.058 99.0874 53.1021 99.7222C54.3797 100.115 54.8835 99.821 55.0338 99.2783C55.6691 97.2659 43.2413 95.2074 45.7525 87.2536C47.0529 83.1012 50.5848 81.3605 55.3343 82.2383L56.2727 79.2994L60.3933 80.6003L59.4549 83.5392Z" fill="#FFDE17"/>
<path d="M90.8363 94.3503L89.4144 92.8792L89.2893 93.0083C83.2132 88.6557 73.2312 90.4992 65.9397 97.6392C58.7113 104.747 56.6764 114.663 60.874 120.794L60.7802 120.891L61.5554 121.673C61.7496 121.892 61.9438 122.112 62.1698 122.33C67.9843 128.213 79.0839 126.701 86.9694 118.948C94.7919 111.227 96.5237 100.235 90.8363 94.3503Z" fill="#FA6E00"/>
<path d="M92.0263 105.296C92.0561 105.169 92.0858 105.041 92.1156 104.914C93.1204 100.162 92.1896 95.6002 89.1522 92.4704C83.4335 86.6183 72.3657 88.1296 64.4166 95.8839C60.1914 99.9876 57.729 105.017 57.1684 109.729C57.1387 109.857 57.1407 109.984 57.1427 110.111C56.7617 114.122 57.807 117.887 60.3919 120.547C66.1106 126.4 77.1785 124.888 85.1276 117.134C88.7264 113.612 91.0744 109.38 92.0263 105.296ZM85.8661 95.6692C88.2568 98.1101 88.9501 101.722 88.1196 105.454C88.0899 105.582 88.0601 105.709 88.0309 105.869C87.2534 108.932 85.4919 112.075 82.7691 114.724C76.635 120.702 68.0728 121.887 63.6786 117.38C61.7397 115.377 60.9008 112.594 61.1392 109.602C61.1372 109.475 61.1669 109.348 61.1644 109.189C61.551 105.528 63.4899 101.556 66.7756 98.3253C72.9091 92.3161 81.4396 91.1314 85.8661 95.6692Z" fill="#FFE800"/>
<path d="M65.3606 97.2991C60.7602 101.79 58.4037 107.485 58.6411 112.407C58.2428 107.36 60.564 101.444 65.3212 96.823C72.5819 89.747 82.6663 88.3468 87.9002 93.6981C89.8063 95.6382 90.801 98.2285 90.9414 101.055C90.7088 98.4206 89.7488 96.0205 87.9396 94.1742C82.7056 88.8229 72.5895 90.2236 65.3606 97.2991Z" fill="#FA6E00"/>
<path d="M84.2226 116.196C76.962 123.272 66.8776 124.672 61.6436 119.321C59.8344 117.475 58.8422 115.043 58.6413 112.408C58.4039 107.486 60.7604 101.791 65.3608 97.3002C72.6214 90.2242 82.7058 88.824 87.9398 94.1753C89.749 96.0216 90.709 98.4218 90.9416 101.056C91.1795 106.01 88.823 111.705 84.2226 116.196Z" fill="#F7C200"/>
<path d="M66.756 99.0579C63.2823 102.45 61.3468 106.645 61.0898 110.463C61.0883 110.367 61.0868 110.272 61.0858 110.208C61.1819 106.266 63.1455 101.849 66.7761 98.3266C72.9102 92.3491 81.4724 91.1639 85.8671 95.7022C87.4504 97.3297 88.3109 99.4771 88.4125 101.859C88.415 102.018 88.3858 102.177 88.3883 102.336C88.2252 100.082 87.3662 98.0302 85.847 96.4335C81.4523 91.8952 72.89 93.0804 66.756 99.0579Z" fill="#FA6E00"/>
<path d="M88.411 101.825C88.4136 101.984 88.3843 102.143 88.3868 102.302C88.2238 100.048 87.3648 97.996 85.8461 96.4311C81.4196 91.8932 72.8891 93.078 66.7556 99.0872C63.2818 102.48 61.3464 106.674 61.0894 110.492C61.0879 110.397 61.0869 110.333 61.0854 110.238C61.0023 113.004 61.8372 115.533 63.6464 117.38C68.0729 121.918 76.6034 120.733 82.7369 114.724C86.6802 110.879 88.6685 106.016 88.411 101.825Z" fill="#FFA200"/>
<path d="M86.5316 95.5318L86.6037 96.0709L87.0404 95.5554L87.6114 95.4828L87.3501 95.042L87.6269 94.4655L87.0273 94.7293L86.6414 94.4494L86.5234 95.0234L85.9899 95.445L86.5316 95.5318Z" fill="#FF861F"/>
<path d="M82.6128 92.9559L82.9053 93.3644L83.1186 92.7889L83.7178 92.4934L83.2371 92.2468L83.3233 91.6733L82.7902 92.1268L82.2485 92.04L82.4155 92.5459L82.0111 93.0926L82.6128 92.9559Z" fill="#FF861F"/>
<path d="M77.4571 92.4654L77.9373 92.6802L77.9282 92.1083L78.429 91.6236L77.857 91.6327L77.6901 91.1268L77.3497 91.7043L76.7485 91.8728L77.1036 92.2168L76.8908 92.824L77.4571 92.4654Z" fill="#FF861F"/>
<path d="M71.9208 94.1118L72.4922 94.0709L72.2627 93.6296L72.5713 93.0526L71.9711 93.2847L71.6161 92.9407L71.4668 93.547L70.9322 93.9051L71.4431 94.0559L71.4517 94.596L71.9208 94.1118Z" fill="#FF861F"/>
<path d="M66.7958 97.6263L67.3642 97.3948L66.9466 97.1154L67.0641 96.5096L66.5305 96.9313L65.9888 96.8446L66.0922 97.3515L65.6873 97.8664L66.2582 97.7938L66.5195 98.2346L66.7958 97.6263Z" fill="#FF861F"/>
<path d="M62.8701 102.518L63.3719 102.096L62.8307 102.041L62.695 101.503L62.3223 102.05L61.7206 102.186L62.0444 102.562L61.7999 103.17L62.3985 102.843L62.8156 103.09L62.8701 102.518Z" fill="#FF861F"/>
<path d="M60.7632 108.019L61.1036 107.442L60.5347 107.642L60.1791 107.266L59.9981 107.873L59.4312 108.199L59.9109 108.383L59.92 108.954L60.389 108.47L60.9614 108.493L60.7632 108.019Z" fill="#FF861F"/>
<path d="M60.7841 113.295L60.9333 112.688L60.3675 113.079L59.8566 112.928L59.9287 113.467L59.4597 113.951L60.0311 113.911L60.2611 114.384L60.5698 113.807L61.1704 113.606L60.7841 113.295Z" fill="#FF861F"/>
<path d="M62.9171 117.519L62.8132 116.98L62.4083 117.495L61.8056 117.569L62.0986 118.009L61.8218 118.585L62.3896 118.322L62.8073 118.601L62.8935 118.028L63.427 117.606L62.9171 117.519Z" fill="#FF861F"/>
<path d="M66.836 120.093L66.5434 119.685L66.3301 120.26L65.731 120.556L66.1799 120.803L66.1254 121.376L66.6267 120.923L67.1997 120.977L67.0327 120.472L67.4377 119.957L66.836 120.093Z" fill="#FF861F"/>
<path d="M71.9935 120.585L71.5134 120.37L71.5225 120.942L71.0217 121.426L71.5936 121.417L71.7601 121.891L72.101 121.346L72.7022 121.177L72.3471 120.833L72.5281 120.227L71.9935 120.585Z" fill="#FF861F"/>
<path d="M77.5274 118.938L76.956 118.979L77.1855 119.42L76.8769 119.997L77.4453 119.766L77.8321 120.109L77.9814 119.503L78.516 119.145L78.0051 118.994L77.9647 118.455L77.5274 118.938Z" fill="#FF861F"/>
<path d="M82.6529 115.426L82.0527 115.658L82.5021 115.937L82.3841 116.511L82.9182 116.121L83.4281 116.208L83.3565 115.701L83.7614 115.186L83.1905 115.259L82.9292 114.818L82.6529 115.426Z" fill="#FF861F"/>
<path d="M86.5786 110.533L86.0451 110.954L86.618 111.009L86.7537 111.547L87.1264 111.001L87.7281 110.864L87.4043 110.488L87.6488 109.88L87.0502 110.207L86.6013 109.96L86.5786 110.533Z" fill="#FF861F"/>
<path d="M88.6855 105.03L88.3129 105.576L88.914 105.408L89.2696 105.783L89.4507 105.177L90.0175 104.85L89.5379 104.667L89.5288 104.095L89.0597 104.579L88.4873 104.556L88.6855 105.03Z" fill="#FF861F"/>
<path d="M88.6646 99.7546L88.5154 100.361L89.0812 99.9704L89.5604 100.122L89.52 99.582L89.989 99.0978L89.3858 99.1392L89.1876 98.6657L88.879 99.2427L88.2783 99.4429L88.6646 99.7546Z" fill="#FF861F"/>
<path d="M75.5997 103.555C75.9441 103.232 76.3562 103.162 76.9055 103.725C77.7786 104.665 78.3748 106.181 78.3063 107.866L78.3381 107.866L78.3063 107.866L79.2893 107.724C79.2893 107.724 79.3518 107.659 79.4138 107.563L82.6109 106.749C82.7414 104.967 82.3348 103.385 81.4546 102L83.3645 100.19L82.2977 99.0627C82.4485 98.5518 82.6012 98.168 82.6012 98.168L81.5865 98.3113L81.587 98.3431L79.7089 100.153C77.2965 98.3479 74.3527 99.094 72.349 101.001C67.1525 105.978 73.5767 110.23 72.3244 111.426C71.8236 111.911 71.119 111.572 70.6015 111.008C69.5993 109.944 69.2275 108.551 69.2381 107.216C69.3964 107.182 69.4912 107.149 69.4912 107.149C69.8962 106.634 70.3012 106.119 70.3012 106.119L69.3167 106.166C69.3167 106.166 69.3167 106.166 69.3162 106.135L64.887 107.413C64.6309 109.292 64.9468 111.162 66.2461 112.921L64.4306 114.666L66.2085 116.545L66.2403 116.545L67.2233 116.402C67.2233 116.402 67.1844 115.957 67.1829 115.862C67.1824 115.83 67.1188 115.831 66.9912 115.802L68.0241 114.8C70.3401 116.543 73.1004 116.245 75.6362 113.82C80.5523 109.197 74.3475 104.751 75.5997 103.555Z" fill="#FA6E00"/>
<path d="M67.2305 112.843C65.9629 111.084 65.6153 109.214 65.8714 107.335L70.3005 106.057C70.0409 107.714 70.324 109.521 71.5844 110.835C72.1019 111.399 72.8065 111.738 73.3073 111.253C74.5595 110.057 68.1671 105.805 73.3319 100.828C75.3355 98.9209 78.2794 98.1747 80.6918 99.9797L82.5699 98.1699L84.3478 100.049L82.438 101.859C83.3181 103.243 83.7247 104.826 83.5942 106.608L79.2897 107.725C79.3582 106.04 78.7619 104.523 77.8888 103.584C77.339 102.989 76.9275 103.091 76.5831 103.414C75.3308 104.61 81.5356 109.056 76.6205 113.743C74.0848 116.167 71.3245 116.465 69.0084 114.722L67.1929 116.467L65.4149 114.589L67.2305 112.843Z" fill="#FFDE17"/>
<path d="M56.1587 46.3091C66.7521 38.9575 73.6364 30.203 72.7697 25.672C72.7359 25.5454 72.6637 25.0063 72.5986 24.912C72.5008 24.7546 69.6055 20.5737 69.6055 20.5737L66.4308 22.7855C61.2587 23.3129 53.5878 26.5816 45.981 31.8833C38.4055 37.1527 32.7158 43.0913 30.4379 47.736L27.2944 49.9155L29.6691 53.3419C30.1579 54.0969 30.3521 54.3162 30.3521 54.3162C33.8343 57.439 45.0312 54.0505 56.1587 46.3091Z" fill="#FA6E00"/>
<path d="M66.2769 31.1473C66.3702 31.0187 66.464 30.9219 66.5573 30.7933C69.9216 26.5126 71.2599 22.741 69.7956 20.6032C67.03 16.5791 55.2602 19.9131 43.5351 28.0455C37.3107 32.3399 32.334 37.1548 29.4444 41.3007C29.3511 41.4293 29.289 41.5257 29.227 41.622C26.8361 45.1561 26.0263 48.1883 27.2636 50.0438C30.0292 54.0678 41.7673 50.7343 53.5241 42.6014C58.8685 38.9249 63.2848 34.85 66.2769 31.1473ZM64.9551 23.9857C66.094 25.652 64.9972 28.6252 62.3178 32.005C62.2245 32.1336 62.1312 32.2622 62.0374 32.3591C59.762 35.1604 56.4093 38.1695 52.4175 40.9664C43.3325 47.2451 34.2836 49.8048 32.1369 46.7243C31.1932 45.341 31.7615 43.1072 33.4993 40.4733C33.5608 40.3452 33.6546 40.2484 33.7479 40.1198C35.9527 36.8746 39.834 33.1261 44.7381 29.7426C53.7277 23.4654 62.8079 20.8734 64.9551 23.9857Z" fill="#FFE800"/>
<path d="M43.7431 29.1237C36.9533 33.8403 31.7942 39.1665 29.541 43.3659C31.6343 39.1055 36.917 33.5548 43.9272 28.7076C54.6467 21.2904 65.3725 18.2591 67.9096 21.9054C68.821 23.2575 68.5357 25.2961 67.2392 27.7004C68.3476 25.458 68.5401 23.5798 67.6938 22.322C65.2197 18.6429 54.4939 21.6742 43.7431 29.1237Z" fill="#FA6E00"/>
<path d="M53.0683 41.9733C42.3488 49.3904 31.623 52.4218 29.0858 48.7755C28.2077 47.5182 28.4315 45.6077 29.5399 43.3653C31.7613 39.1664 36.92 33.8084 43.742 29.123C54.4615 21.7059 65.1873 18.6746 67.7245 22.3209C68.6026 23.5782 68.3783 25.4569 67.2699 27.6993C65.049 31.9299 59.8898 37.2562 53.0683 41.9733Z" fill="#F7C200"/>
<path d="M44.3042 30.3537C39.1802 33.8996 35.1437 37.8732 33.0039 41.2126C33.0347 41.1485 33.0649 41.0527 33.1275 40.9882C35.2021 37.5544 39.331 33.3887 44.6754 29.7122C53.7603 23.4335 62.8092 20.8738 64.9559 23.9542C65.7367 25.086 65.4776 26.7745 64.4292 28.7935C64.3359 28.9221 64.2749 29.082 64.1816 29.2106C65.1362 27.2885 65.3328 25.6645 64.5848 24.5958C62.438 21.5154 53.3579 24.1073 44.3042 30.3537Z" fill="#FA6E00"/>
<path d="M64.4293 28.8254C64.336 28.954 64.2745 29.0822 64.1817 29.2425C65.1363 27.3204 65.3329 25.6964 64.5849 24.6277C62.4695 21.515 53.3893 24.1069 44.3044 30.3856C39.1804 33.9315 35.1438 37.9051 33.0041 41.2445C33.0348 41.1805 33.0651 41.0846 33.1276 41.0201C31.6717 43.3951 31.2593 45.4358 32.1379 46.7248C34.2534 49.8376 43.3335 47.2456 52.4185 40.9669C58.1704 36.9343 62.5791 32.3827 64.4293 28.8254Z" fill="#FFA200"/>
<path d="M65.6849 23.7515L65.5008 24.1676L66.16 23.6486L66.7929 23.4796L66.7243 23.1628L67.2876 22.6136L66.5937 22.9424L66.3052 22.7881L65.932 23.3026L65.2083 23.7591L65.6849 23.7515Z" fill="#FF861F"/>
<path d="M63.0533 22.2352L63.1532 22.5196L63.653 21.9714L64.3782 21.6102L64.059 21.52L64.4004 21.006L63.6766 21.4625L63.1688 21.5024L63.0483 21.9175L62.3896 22.4682L63.0533 22.2352Z" fill="#FF861F"/>
<path d="M58.1988 22.7255L58.5816 22.8147L58.86 22.3336L59.5514 21.8458L59.0128 21.9498L59.0703 21.5675L58.4434 22.1177L57.7797 22.3508L57.9426 22.6025L57.4746 23.1502L58.1988 22.7255Z" fill="#FF861F"/>
<path d="M51.8816 25.1486L52.452 25.0442L52.4464 24.6947L53.0415 24.1449L52.347 24.442L52.1529 24.2226L51.7166 24.7699L50.9924 25.1946L51.406 25.2198L51.1589 25.6687L51.8816 25.1486Z" fill="#FF861F"/>
<path d="M45.0157 29.1338L45.7415 28.8044L45.453 28.6501L45.8579 28.1352L45.1024 28.5922L44.6576 28.5992L44.4735 29.0153L43.7826 29.5349L44.4156 29.3659L44.4842 29.6826L45.0157 29.1338Z" fill="#FF861F"/>
<path d="M38.7053 34.0663L39.4285 33.578L38.9211 33.6497L39.0416 33.2346L38.3825 33.7536L37.7505 33.9861L37.8499 34.2388L37.3184 34.7876L38.0436 34.4264L38.3634 34.5484L38.7053 34.0663Z" fill="#FF861F"/>
<path d="M33.8614 39.1655L34.5205 38.6465L33.8256 38.9119L33.6626 38.6602L33.1941 39.1762L32.4694 39.5691L32.8522 39.6584L32.5421 40.14L33.2653 39.6518L33.8357 39.5473L33.8614 39.1655Z" fill="#FF861F"/>
<path d="M31.265 43.7182L31.7012 43.171L30.977 43.5957L30.5634 43.5705L30.3163 44.0194L29.6254 44.5389L30.227 44.4022L30.2008 44.7522L30.7959 44.2024L31.4904 43.9053L31.265 43.7182Z" fill="#FF861F"/>
<path d="M31.2854 46.994L31.469 46.5461L30.7781 47.0656L30.1769 47.2341L30.2137 47.5513L29.6504 48.1006L30.3761 47.7712L30.6329 47.926L31.0378 47.4111L31.7615 46.9546L31.2854 46.994Z" fill="#FF861F"/>
<path d="M33.9134 48.4761L33.8136 48.1916L33.282 48.7404L32.5568 49.1016L32.9083 49.2231L32.5664 49.7053L33.2901 49.2488L33.798 49.2089L33.9185 48.7938L34.5772 48.243L33.9134 48.4761Z" fill="#FF861F"/>
<path d="M38.7685 47.9843L38.3857 47.8951L38.1073 48.3762L37.3841 48.8645L37.9545 48.7601L37.8971 49.1424L38.4922 48.5926L39.1876 48.359L38.9929 48.1079L39.4927 47.5596L38.7685 47.9843Z" fill="#FF861F"/>
<path d="M45.0862 45.5658L44.5158 45.6702L44.5214 46.0197L43.8945 46.57L44.589 46.2729L44.815 46.4918L45.2512 45.9445L45.9759 45.5516L45.5301 45.4951L45.7772 45.0462L45.0862 45.5658Z" fill="#FF861F"/>
<path d="M51.9198 41.5772L51.2258 41.9061L51.5143 42.0604L51.1094 42.5754L51.8331 42.1189L52.3102 42.1431L52.462 41.6957L53.1529 41.1762L52.52 41.3452L52.4831 41.028L51.9198 41.5772Z" fill="#FF861F"/>
<path d="M58.2626 36.6474L57.5394 37.1357L58.0467 37.064L57.9262 37.4791L58.5854 36.9601L59.2173 36.7275L59.0862 36.4754L59.6177 35.9266L58.8925 36.2878L58.5727 36.1657L58.2626 36.6474Z" fill="#FF861F"/>
<path d="M63.0741 31.5494L62.4473 32.0997L63.1422 31.8343L63.3052 32.086L63.7732 31.5382L64.4979 31.1453L64.1151 31.0561L64.3935 30.5749L63.6703 31.0632L63.1316 31.1671L63.0741 31.5494Z" fill="#FF861F"/>
<path d="M65.7043 26.9947L65.2363 27.5424L65.9923 27.1172L66.4059 27.1424L66.6212 26.694L67.3439 26.174L66.7422 26.3107L66.7367 25.9612L66.1416 26.511L65.4471 26.8081L65.7043 26.9947Z" fill="#FF861F"/>
<path d="M50.8233 32.6346C51.3266 32.3088 51.769 32.1428 52.0297 32.5518C52.4211 33.1812 52.2815 34.3912 51.3516 35.868L51.4146 35.8352L51.3829 35.8357L52.4268 35.533C52.4268 35.533 52.4894 35.4684 52.6149 35.3711L56.1857 34.0747C57.2099 32.5328 57.6022 31.2235 57.3948 30.178L60.1929 28.2583L59.7036 27.4715C60.1096 27.0201 60.453 26.6332 60.453 26.6332L59.409 26.9359L59.3778 26.9682L56.611 28.8557C55.1312 27.7351 51.8126 28.9003 48.889 30.9174C41.2495 36.1561 45.5159 38.6307 43.661 39.8997C42.9065 40.4203 42.3951 40.2377 42.1348 39.8605C41.6784 39.1368 41.9779 37.9878 42.6904 36.8323C42.8483 36.7662 42.9749 36.7325 42.9749 36.7325C43.6028 36.2457 44.2932 35.6944 44.2932 35.6944L43.2492 35.9971C43.2492 35.9971 43.2492 35.9971 43.2174 35.9976C43.2174 35.9976 43.2174 35.9976 43.2169 35.9658L38.1942 37.8892C37.0131 39.5607 36.402 41.096 36.804 42.3927L34.1316 44.215L34.9467 45.5051L34.978 45.4728L36.0219 45.1702C36.0219 45.1702 36.2065 44.7858 36.2373 44.7218C36.2368 44.69 36.1732 44.691 36.0784 44.7243L37.6191 43.6827C39.0349 44.7725 41.947 44.0269 45.6881 41.4565C52.9207 36.6057 49.0002 33.9032 50.8233 32.6346Z" fill="#FA6E00"/>
<path d="M37.8802 42.1517C37.4781 40.8551 38.0893 39.3198 39.2704 37.6483L44.2931 35.7249C43.2038 37.1725 42.5926 38.7077 43.1792 39.6201C43.4077 39.9978 43.9509 40.1798 44.7054 39.6593C46.5603 38.3902 42.2934 35.8839 49.9334 30.677C52.857 28.6599 56.1438 27.4952 57.6554 28.6152L60.4221 26.7278L61.2373 28.0179L58.4392 29.9376C58.6466 30.9831 58.2538 32.2606 57.2301 33.8343L52.395 35.564C53.2931 34.0877 53.465 32.909 53.0731 32.2479C52.8123 31.8388 52.3695 31.973 51.8667 32.3306C50.0431 33.5674 53.9635 36.27 46.7643 41.2156C43.0231 43.786 40.1429 44.5311 38.6953 43.4418L36.0229 45.2642L35.2078 43.9741L37.8802 42.1517Z" fill="#FFDE17"/>
</g>
<defs>
<clipPath id="clip0">
<rect width="126" height="183.042" fill="white" transform="translate(2.93555 128.901) rotate(-90.913)"/>
</clipPath>
</defs>
</svg>
