<svg width="24" height="24" viewBox="0 0 24 24" fill="none" xmlns="http://www.w3.org/2000/svg">
<circle cx="12" cy="12" r="12" fill="#FF7B46"/>
<g clip-path="url(#clip0)">
<path d="M15.1494 13.4998C14.3244 13.4248 13.8744 14.5498 13.2744 14.8498C12.2994 15.3748 10.4994 13.4998 10.4994 13.4998C10.4994 13.4998 8.62443 11.6998 9.07443 10.7248C9.44943 10.1248 10.5744 9.67482 10.4994 8.84982C10.4244 8.09982 8.77443 5.39982 7.94943 6.14982C6.14943 7.79982 5.99943 8.47482 5.99943 9.82482C5.92443 12.1498 8.92443 15.0748 8.92443 15.0748C9.22443 15.3748 11.8494 18.0748 14.1744 17.9998C15.5244 17.9998 16.1994 17.8498 17.8494 16.0498C18.5994 15.2248 15.9744 13.5748 15.1494 13.4998Z" fill="white"/>
</g>
<defs>
<clipPath id="clip0">
<rect width="12" height="12" fill="white" transform="translate(6 6)"/>
</clipPath>
</defs>
</svg>
