<svg width="24" height="24" viewBox="0 0 24 24" fill="none" xmlns="http://www.w3.org/2000/svg">
<path fill-rule="evenodd" clip-rule="evenodd" d="M12 24C18.6274 24 24 18.6274 24 12C24 5.37256 18.6274 0 12 0C5.37256 0 0 5.37256 0 12C0 18.6274 5.37256 24 12 24ZM16.6667 13.3943V13.7543L18.7917 15.8799C18.9235 16.0118 18.9975 16.1906 18.9978 16.377C18.9984 16.7665 18.6831 17.0828 18.2936 17.0833H16.2123C15.8656 17.0843 15.533 16.9467 15.2883 16.7012L14.0773 15.4902C13.9772 15.39 13.8413 15.3336 13.6996 15.3337C13.4052 15.3338 13.1666 15.5726 13.1667 15.8671V16.3664C13.166 16.7621 12.8454 17.0827 12.4498 17.0833H10.5417C9.20526 17.0833 7.05975 14.0821 5.49524 11.565C5.17102 11.0421 4.99951 10.439 5 9.82373V9.67499C5 9.25616 5.33954 8.91669 5.7583 8.91669H7.62494C7.73486 8.91669 7.83545 8.97845 7.88513 9.07648C8.45776 10.2687 9.12244 11.4146 9.87311 12.5035C9.94257 12.5883 10.0408 12.6443 10.149 12.6611C10.1874 12.6537 10.2227 12.6348 10.25 12.6068V10.3901C10.2505 10.084 10.1287 9.79047 9.91162 9.57465L9.75183 9.41479C9.69684 9.35999 9.66602 9.28546 9.66614 9.20782C9.66644 9.04669 9.79724 8.91632 9.95831 8.91663H12.5285C12.8799 8.91888 13.1642 9.20337 13.1661 9.55481V12.5386C13.3807 12.6638 13.6501 12.6453 13.8456 12.4919C14.4809 11.5235 15.0016 10.4846 15.3973 9.39612C15.5197 9.1048 15.8052 8.91559 16.1213 8.91663H18.1676C18.6272 8.91699 18.9997 9.28949 19 9.74908C18.9996 10.2203 18.8392 10.6776 18.545 11.0458L16.6667 13.3943Z" fill="url(#paint0_linear)"/>
<defs>
<linearGradient id="paint0_linear" x1="-2.53774" y1="12.0642" x2="19.1016" y2="17.6882" gradientUnits="userSpaceOnUse">
<stop stop-color="#FF8218"/>
<stop offset="1" stop-color="#FE7952"/>
</linearGradient>
</defs>
</svg>
