<svg display="none" xmlns="http://www.w3.org/2000/svg" xmlns:xlink="http://www.w3.org/1999/xlink">

<!-- Phone -->
	<symbol id="phone" viewBox="0 0 24 24">
		<circle cx="12" cy="12" r="12" fill="#FF7B46"/>
		<g clip-path="url(#clip0)">
		<path d="M15.1494 13.4998C14.3244 13.4248 13.8744 14.5498 13.2744 14.8498C12.2994 15.3748 10.4994 13.4998 10.4994 13.4998C10.4994 
			13.4998 8.62443 11.6998 9.07443 10.7248C9.44943 10.1248 10.5744 9.67482 10.4994 8.84982C10.4244 8.09982 8.77443 5.39982 
			7.94943 6.14982C6.14943 7.79982 5.99943 8.47482 5.99943 9.82482C5.92443 12.1498 8.92443 15.0748 8.92443 15.0748C9.22443 
			15.3748 11.8494 18.0748 14.1744 17.9998C15.5244 17.9998 16.1994 17.8498 17.8494 16.0498C18.5994 15.2248 15.9744 13.5748 15.1494 
			13.4998Z" fill="white"/>
		</g>
		
	</symbol>

<!-- Facebook -->
	<symbol id="facebook" viewBox="0 0 24 24">
		<path d="M24 12C24 5.37188 18.6281 0 12 0C5.37188 0 0 5.37188 0 12C0 18.6281 5.37188 24 12 24C12.0703 24 12.1406 24 12.2109 
			23.9953V14.6578H9.63281V11.6531H12.2109V9.44062C12.2109 6.87656 13.7766 5.47969 16.0641 5.47969C17.1609 5.47969 18.1031
			 5.55938 18.375 5.59688V8.27813H16.8C15.5578 8.27813 15.3141 8.86875 15.3141 9.73594V11.6484H18.2906L17.9016 14.6531H15.3141V23.5359C20.3297 
			 22.0969 24 17.4797 24 12Z" />
	</symbol>	

<!-- VK -->
	<symbol id="vk" viewBox="0 0 24 24">
		<path fill-rule="evenodd" clip-rule="evenodd" d="M12 24C18.6274 24 24 18.6274 24 12C24 5.37256 18.6274 0 12 0C5.37256 0 0 5.37256 
			0 12C0 18.6274 5.37256 24 12 24ZM16.6667 13.3943V13.7543L18.7917 15.8799C18.9235 16.0118 18.9975 16.1906 18.9978 16.377C18.9984
			 16.7665 18.6831 17.0828 18.2936 17.0833H16.2123C15.8656 17.0843 15.533 16.9467 15.2883 16.7012L14.0773 15.4902C13.9772 15.39 
			 13.8413 15.3336 13.6996 15.3337C13.4052 15.3338 13.1666 15.5726 13.1667 15.8671V16.3664C13.166 16.7621 12.8454 17.0827 12.4498
			  17.0833H10.5417C9.20526 17.0833 7.05975 14.0821 5.49524 11.565C5.17102 11.0421 4.99951 10.439 5 9.82373V9.67499C5 9.25616 5.33954 
			  8.91669 5.7583 8.91669H7.62494C7.73486 8.91669 7.83545 8.97845 7.88513 9.07648C8.45776 10.2687 9.12244 11.4146 9.87311 12.5035C9.94257 
			  12.5883 10.0408 12.6443 10.149 12.6611C10.1874 12.6537 10.2227 12.6348 10.25 12.6068V10.3901C10.2505 10.084 10.1287 9.79047 9.91162
			   9.57465L9.75183 9.41479C9.69684 9.35999 9.66602 9.28546 9.66614 9.20782C9.66644 9.04669 9.79724 8.91632 9.95831 8.91663H12.5285C12.8799
			    8.91888 13.1642 9.20337 13.1661 9.55481V12.5386C13.3807 12.6638 13.6501 12.6453 13.8456 12.4919C14.4809 11.5235 15.0016 10.4846 15.3973
			     9.39612C15.5197 9.1048 15.8052 8.91559 16.1213 8.91663H18.1676C18.6272 8.91699 18.9997 9.28949 19 9.74908C18.9996 10.2203 18.8392 10.6776
			      18.545 11.0458L16.6667 13.3943Z" fill="#paint"/>
	      <defs>
	      <linearGradient id="paint" x1="-2.53774" y1="12.0642" x2="19.1016" y2="17.6882" gradientUnits="userSpaceOnUse">
	      <stop stop-color="#FF8218"/>
	      <stop offset="1" stop-color="#FE7952"/>
	      </linearGradient>
	      </defs>

	</symbol>	


<!-- Instagram -->
	<symbol id="instagram" viewBox="0 0 24 24">
		<path d="M14.2969 12C14.2969 13.2686 13.2686 14.2969 12 14.2969C10.7314 14.2969 9.70312 13.2686 9.70312 12C9.70312 10.7314 10.7314 9.70312 12 9.70312C13.2686 9.70312 14.2969 10.7314 14.2969 12Z" />
		<path d="M17.3723 7.9361C17.2619 7.6369 17.0858 7.36609 16.8569 7.1438C16.6346 6.91492 16.364 6.73877 16.0646 6.62836C15.8218 6.53406 15.457 6.42181 14.7852 6.39124C14.0585 6.35809 13.8406 6.35095 12.0007 
			6.35095C10.1607 6.35095 9.94281 6.35791 9.21625 6.39105C8.54443 6.42181 8.1795 6.53406 7.93689 6.62836C7.63751 6.73877 7.3667 6.91492 7.14459 7.1438C6.91571 7.36609 6.73956 7.63672 6.62897 7.9361C6.53467 
			8.17889 6.42242 8.54382 6.39185 9.21564C6.3587 9.9422 6.35156 10.1601 6.35156 12.0001C6.35156 13.84 6.3587 14.0579 6.39185 14.7846C6.42242 15.4564 6.53467 15.8212 6.62897 16.064C6.73956 16.3633 6.91553 
			16.634 7.14441 16.8563C7.3667 17.0851 7.63733 17.2613 7.93671 17.3717C8.1795 17.4662 8.54443 17.5784 9.21625 17.609C9.94281 17.6422 10.1605 17.6491 12.0005 17.6491C13.8408 17.6491 14.0587 17.6422 14.785 
			17.609C15.4568 17.5784 15.8218 17.4662 16.0646 17.3717C16.6655 17.1399 17.1405 16.6649 17.3723 16.064C17.4666 15.8212 17.5789 15.4564 17.6096 14.7846C17.6428 14.0579 17.6497 13.84 17.6497 12.0001C17.6497 
			10.1601 17.6428 9.9422 17.6096 9.21564C17.579 8.54382 17.4668 8.17889 17.3723 7.9361ZM12.0007 15.5383C10.0464 15.5383 8.46222 13.9542 8.46222 11.9999C8.46222 10.0457 10.0464 8.46161 12.0007 8.46161C13.9548 
			8.46161 15.5391 10.0457 15.5391 11.9999C15.5391 13.9542 13.9548 15.5383 12.0007 15.5383ZM15.679 9.14862C15.2223 9.14862 14.852 8.77838 14.852 8.32172C14.852 7.86505 15.2223 7.49481 15.679 7.49481C16.1356 
			7.49481 16.5059 7.86505 16.5059 8.32172C16.5057 8.77838 16.1356 9.14862 15.679 9.14862Z"/>
		<path d="M12 0C5.3736 0 0 5.3736 0 12C0 18.6264 5.3736 24 12 24C18.6264 24 24 18.6264 24 12C24 5.3736 18.6264 0 12 0ZM18.8491 14.8409C18.8157 15.5744 18.6991 16.0752 18.5288 16.5135C18.1708 17.4391 17.4391 
			18.1708 16.5135 18.5288C16.0754 18.6991 15.5744 18.8156 14.8411 18.8491C14.1063 18.8826 13.8715 18.8906 12.0002 18.8906C10.1287 18.8906 9.8941 18.8826 9.15912 18.8491C8.42578 18.8156 7.9248 18.6991 7.48663 
			18.5288C7.02667 18.3558 6.61029 18.0846 6.26605 17.7339C5.91559 17.3899 5.64441 16.9733 5.47137 16.5135C5.30109 16.0754 5.18445 15.5744 5.15112 14.8411C5.11725 14.1061 5.10938 13.8713 5.10938 12C5.10938 10.1287
			 5.11725 9.89392 5.15094 9.15912C5.18427 8.4256 5.30072 7.9248 5.47101 7.48645C5.64404 7.02667 5.91541 6.61011 6.26605 6.26605C6.61011 5.91541 7.02667 5.64423 7.48645 5.47119C7.9248 5.3009 8.4256 5.18445 9.15912 
			 5.15094C9.89392 5.11743 10.1287 5.10938 12 5.10938C13.8713 5.10938 14.1061 5.11743 14.8409 5.15112C15.5744 5.18445 16.0752 5.3009 16.5135 5.47101C16.9733 5.64404 17.3899 5.91541 17.7341 6.26605C18.0846 6.61029 
			 18.356 7.02667 18.5288 7.48645C18.6993 7.9248 18.8157 8.4256 18.8492 9.15912C18.8828 9.89392 18.8906 10.1287 18.8906 12C18.8906 13.8713 18.8828 14.1061 18.8491 14.8409Z" />
	</symbol>		


<!-- Button -->
	<symbol id="button" viewBox="0 0 370 90">
		<path d="M1.85366 23.1016C-3.2773 12.0321 2.43641 0 16.6052 0L350.759 8.6631C364.928 8.6631 370 15.8384 370 26.4706L365.133 
			67.861C364.265 82.7807 348.252 82.7807 334.083 82.7807L41.6186 90C27.4498 90 22.3778 76.5241 18.5296 66.4171L1.85366 
			23.1016Z" fill="url(#paint_linear")/>
		<defs>
		<linearGradient id="paint_linear" x1="-39.1236" y1="45.2406" x2="127.172" y2="222.921" gradientUnits="userSpaceOnUse">
		<stop stop-color="#FF8218"/>
		<stop offset="1" stop-color="#FE7952"/>
		</linearGradient>
		</defs>
	</symbol>



</svg>













